<?xml version="1.0" encoding="utf-8"?>
<!-- Generator: Adobe Illustrator 23.0.4, SVG Export Plug-In . SVG Version: 6.00 Build 0)  -->
<svg version="1.1" id="Layer_1" xmlns="http://www.w3.org/2000/svg" xmlns:xlink="http://www.w3.org/1999/xlink" x="0px" y="0px"
	 viewBox="0 0 316.8 339.9" style="enable-background:new 0 0 316.8 339.9;" xml:space="preserve">
<style type="text/css">
	.st0{filter:url(#Adobe_OpacityMaskFilter);}
	.st1{fill:#FFFFFF;}
	.st2{mask:url(#mask-864e0a63-f6cf-42b6-9a6f-44b0d7be2df1_1_);}
</style>
<defs>
	<filter id="Adobe_OpacityMaskFilter" filterUnits="userSpaceOnUse" x="0" y="0" width="316.8" height="339.9">
		<feColorMatrix  type="matrix" values="1 0 0 0 0  0 1 0 0 0  0 0 1 0 0  0 0 0 1 0"/>
	</filter>
</defs>
<mask maskUnits="userSpaceOnUse" x="0" y="0" width="316.8" height="339.9" id="mask-864e0a63-f6cf-42b6-9a6f-44b0d7be2df1_1_">
	<rect class="st0" width="316.8" height="339.9"/>
	<g>
		<g id="def-3efa369a-a78a-4ec3-992f-852d4360172a_1_" transform="matrix(3.906, 0.000, 0.000, 3.906, 341.620, 192.013)">
			<g transform="translate(-9.457, -6.500)">
				<g>
					<g>
						<path class="st1" d="M-73.9-12.8c-2,0-3.6,1.6-3.6,3.6v21.7c0,2,1.6,3.6,3.6,3.6c2,0,3.6-1.6,3.6-3.6V-9.2
							C-70.3-11.2-71.9-12.8-73.9-12.8z M-61.8-28.5c-2,0-3.6,1.6-3.6,3.6v53c0,2,1.6,3.6,3.6,3.6c2,0,3.6-1.6,3.6-3.6v-53
							C-58.2-26.9-59.8-28.5-61.8-28.5z M-49.8-40.5c-2,0-3.6,1.6-3.6,3.6v77.1c0,2,1.6,3.6,3.6,3.6s3.6-1.6,3.6-3.6v-77.1
							C-46.2-38.9-47.8-40.5-49.8-40.5z M-37.7-19.4c-2,0-3.6,1.6-3.6,3.6v35c0,2,1.6,3.6,3.6,3.6c2,0,3.6-1.6,3.6-3.6v-35
							C-34.1-17.8-35.7-19.4-37.7-19.4z M-25.7-40.5c-2,0-3.6,1.6-3.6,3.6v77.1c0,2,1.6,3.6,3.6,3.6s3.6-1.6,3.6-3.6v-77.1
							C-22.1-38.9-23.7-40.5-25.7-40.5z M-13.6-22.4c-2,0-3.6,1.6-3.6,3.6v41c0,2,1.6,3.6,3.6,3.6c2,0,3.6-1.6,3.6-3.6v-41
							C-10-20.8-11.6-22.4-13.6-22.4z M-1.6-12.2c-2,0-3.6,1.6-3.6,3.6v20.5c0,2,1.6,3.6,3.6,3.6S2,13.9,2,11.9V-8.6
							C2-10.6,0.4-12.2-1.6-12.2z"/>
					</g>
				</g>
			</g>
		</g>
	</g>
</mask>
<g class="st2">
	<rect width="316.8" height="339.9"/>
</g>
</svg>
