<svg xmlns="http://www.w3.org/2000/svg" viewBox="0 0 517.3943 211.0043"><defs><style>.a{isolation:isolate;}.b{fill:#bf8d0a;}</style></defs><g class="a"><path d="M212.2612,70.6109a15.5686,15.5686,0,0,1,1.1094-5.9956,13.1471,13.1471,0,0,1,3.0952-4.5742,13.63,13.63,0,0,1,4.7109-2.9,18.0325,18.0325,0,0,1,11.9131,0,13.6388,13.6388,0,0,1,4.71,2.9,13.1485,13.1485,0,0,1,3.0952,4.5742,16.7559,16.7559,0,0,1,0,11.9912A13.1485,13.1485,0,0,1,237.8,81.1807a13.6238,13.6238,0,0,1-4.71,2.9,18.0325,18.0325,0,0,1-11.9131,0,13.6154,13.6154,0,0,1-4.7109-2.9,13.1471,13.1471,0,0,1-3.0952-4.5742A15.5668,15.5668,0,0,1,212.2612,70.6109Zm6.3066,0a10.1029,10.1029,0,0,0,.6036,3.562,8.15,8.15,0,0,0,1.7324,2.8032,7.8965,7.8965,0,0,0,2.706,1.8492,9.705,9.705,0,0,0,7.0464,0,7.9055,7.9055,0,0,0,2.7061-1.8492,8.1649,8.1649,0,0,0,1.7324-2.8032,10.7576,10.7576,0,0,0,0-7.105,8.1391,8.1391,0,0,0-1.7324-2.8222,7.9261,7.9261,0,0,0-2.7061-1.85,9.71,9.71,0,0,0-7.0464,0,7.917,7.917,0,0,0-2.706,1.85,8.1242,8.1242,0,0,0-1.7324,2.8222A10.1561,10.1561,0,0,0,218.5678,70.6109Z"/><path d="M248.0776,56.8292h10.2388a20.2506,20.2506,0,0,1,4.0488.3891,9.22,9.22,0,0,1,3.3286,1.3433,6.8012,6.8012,0,0,1,2.2583,2.5693,8.8029,8.8029,0,0,1,.8369,4.0684,9.3826,9.3826,0,0,1-.7788,4.0488,6.6368,6.6368,0,0,1-2.1411,2.6084,8.67,8.67,0,0,1-3.2314,1.3823,18.9376,18.9376,0,0,1-4.0489.4087h-4.4379V84.3926h-6.0733Zm6.0733,11.6792H258.2a7.813,7.813,0,0,0,1.5766-.1558,4.171,4.171,0,0,0,1.3628-.5254,2.8119,2.8119,0,0,0,.9732-1.0122,3.2,3.2,0,0,0,.37-1.6157,2.7341,2.7341,0,0,0-.4868-1.6934,3.2358,3.2358,0,0,0-1.2461-.9926,5.3211,5.3211,0,0,0-1.6934-.4478,17.4224,17.4224,0,0,0-1.791-.0977h-3.1142Z"/><path d="M274.7842,56.8292H293.51v5.6059H280.8574v5.1392H292.81V73.18H280.8574v5.6065h13.3535v5.6059H274.7842Z"/><path d="M301.0239,56.8292h8.2534l11.7183,19.1543h.0781V56.8292h6.0732V84.3926h-7.9418l-12.03-19.6215h-.0777V84.3926h-6.0732Z"/><path d="M345.4438,56.8292h6.9307l6.8115,18.0639h.0781l6.93-18.0639h6.502L361.3286,84.3926h-4.8672Z"/><path d="M376.0434,70.6109a15.5594,15.5594,0,0,1,1.11-5.9956,13.146,13.146,0,0,1,3.0947-4.5742,13.6275,13.6275,0,0,1,4.7109-2.9,18.0325,18.0325,0,0,1,11.9131,0,13.6447,13.6447,0,0,1,4.711,2.9,13.16,13.16,0,0,1,3.0947,4.5742,16.7559,16.7559,0,0,1,0,11.9912,13.16,13.16,0,0,1-3.0947,4.5742,13.63,13.63,0,0,1-4.711,2.9,18.0325,18.0325,0,0,1-11.9131,0,13.6126,13.6126,0,0,1-4.7109-2.9,13.146,13.146,0,0,1-3.0947-4.5742A15.5576,15.5576,0,0,1,376.0434,70.6109Zm6.3076,0a10.08,10.08,0,0,0,.6036,3.562,8.1347,8.1347,0,0,0,1.7324,2.8032,7.8919,7.8919,0,0,0,2.7051,1.8492,9.706,9.706,0,0,0,7.0468,0,7.896,7.896,0,0,0,2.7061-1.8492,8.18,8.18,0,0,0,1.7324-2.8032,10.7576,10.7576,0,0,0,0-7.105,8.1541,8.1541,0,0,0-1.7324-2.8222,7.9164,7.9164,0,0,0-2.7061-1.85,9.7115,9.7115,0,0,0-7.0468,0,7.9124,7.9124,0,0,0-2.7051,1.85,8.1094,8.1094,0,0,0-1.7324,2.8222A10.1331,10.1331,0,0,0,382.351,70.6109Z"/><path d="M411.7827,56.8292h6.0732V84.3926h-6.0732Z"/><path d="M443.3559,63.9923a5.9589,5.9589,0,0,0-2.1992-1.6739,7.3281,7.3281,0,0,0-3.0176-.584,7.5465,7.5465,0,0,0-5.7031,2.5113,8.6037,8.6037,0,0,0-1.6738,2.8222,10.7576,10.7576,0,0,0,0,7.105,8.8188,8.8188,0,0,0,1.6543,2.8032,7.4922,7.4922,0,0,0,2.4717,1.8492,7.1418,7.1418,0,0,0,3.0566.6621,6.8475,6.8475,0,0,0,3.31-.7788,6.586,6.586,0,0,0,2.374-2.18l5.0615,3.7764a10.5367,10.5367,0,0,1-4.4385,3.6206,13.7309,13.7309,0,0,1-5.5283,1.1679,16.9765,16.9765,0,0,1-5.956-1.0122,13.6121,13.6121,0,0,1-4.711-2.9,13.1473,13.1473,0,0,1-3.0947-4.5742,16.7418,16.7418,0,0,1,0-11.9912,13.1473,13.1473,0,0,1,3.0947-4.5742,13.6271,13.6271,0,0,1,4.711-2.9,16.9765,16.9765,0,0,1,5.956-1.0122,14.6544,14.6544,0,0,1,2.4336.2139,13.2064,13.2064,0,0,1,2.4912.6811,11.1215,11.1215,0,0,1,2.3555,1.2461,9.3742,9.3742,0,0,1,2.0244,1.9077Z"/><path d="M454.1792,56.8292h18.7256v5.6059H460.2524v5.1392h11.9522V73.18H460.2524v5.6065h13.3535v5.6059H454.1792Z"/></g><g class="a"><path d="M236.5151,91.9932h8.2534l11.7183,19.1543h.0781V91.9932h6.0733v27.5635h-7.9419l-12.03-19.6216h-.0776v19.6216h-6.0733Z"/><path d="M270.4238,91.9932H289.15v5.606H276.497v5.1392h11.9522v5.6059H276.497v5.6065h13.3536v5.6059H270.4238Z"/><path d="M301.997,97.3658h-7.8642V91.9932h21.8017v5.3726H308.07v22.1909H301.997Z"/><path d="M318.0757,91.9932h6.6181l4.3994,17.6748h.0777l5.7617-17.6748h5.6455l5.7231,18.1421h.0782l4.6328-18.1421h6.1513l-8.06,27.5635h-5.4112L337.6191,100.48h-.0776l-6.0738,19.0766h-5.2168Z"/><path d="M360.355,105.775a15.5612,15.5612,0,0,1,1.11-5.9956,13.1477,13.1477,0,0,1,3.0947-4.5743,13.6283,13.6283,0,0,1,4.711-2.9,18.0325,18.0325,0,0,1,11.9131,0,13.6456,13.6456,0,0,1,4.7109,2.9,13.16,13.16,0,0,1,3.0947,4.5743,16.7559,16.7559,0,0,1,0,11.9912,13.16,13.16,0,0,1-3.0947,4.5742,13.6293,13.6293,0,0,1-4.7109,2.9,18.0325,18.0325,0,0,1-11.9131,0,13.6121,13.6121,0,0,1-4.711-2.9,13.1473,13.1473,0,0,1-3.0947-4.5742A15.56,15.56,0,0,1,360.355,105.775Zm6.3076,0a10.0834,10.0834,0,0,0,.6035,3.562,8.1372,8.1372,0,0,0,1.7324,2.8032,7.8912,7.8912,0,0,0,2.7051,1.8491,9.7063,9.7063,0,0,0,7.0469,0,7.8949,7.8949,0,0,0,2.706-1.8491,8.18,8.18,0,0,0,1.7324-2.8032,10.7559,10.7559,0,0,0,0-7.105,8.153,8.153,0,0,0-1.7324-2.8223,7.917,7.917,0,0,0-2.706-1.85,9.7131,9.7131,0,0,0-7.0469,0,7.9133,7.9133,0,0,0-2.7051,1.85,8.1113,8.1113,0,0,0-1.7324,2.8223A10.135,10.135,0,0,0,366.6626,105.775Z"/><path d="M396.1714,91.9932h10.6679a18.8363,18.8363,0,0,1,3.99.4087,9.4792,9.4792,0,0,1,3.3095,1.3628,6.808,6.808,0,0,1,2.2578,2.5694,8.7057,8.7057,0,0,1,.837,4.0293,8.0871,8.0871,0,0,1-1.5186,4.9638,6.8318,6.8318,0,0,1-4.4385,2.5889l7.0078,11.6406h-7.28l-5.7618-11.0176h-2.998v11.0176h-6.0732ZM402.2446,103.4h3.582q.8175,0,1.7325-.0581a5.43,5.43,0,0,0,1.6543-.3506,2.86,2.86,0,0,0,1.2265-.9151,2.7842,2.7842,0,0,0,.4873-1.7519,2.9107,2.9107,0,0,0-.4287-1.6738,2.8715,2.8715,0,0,0-1.09-.9541,4.8455,4.8455,0,0,0-1.5186-.4473,12.3492,12.3492,0,0,0-1.6738-.1172h-3.9717Z"/><path d="M423.58,91.9932h6.0732V103.439l10.7061-11.4458H448.3l-12.2627,12.8086,13.3144,14.7549h-8.4873l-11.2119-13.081v13.081H423.58Z"/></g><path d="M212.5434,133.2774h2.6084l2.9844,13.5361h.0474l6.9795-13.5361H227.63l-8.8828,16.6381h-2.1152Z"/><path d="M224.9511,144.3462a6.1454,6.1454,0,0,1,.7754-2.28,7.263,7.263,0,0,1,1.5279-1.8564,7.1886,7.1886,0,0,1,2.0561-1.2574,6.3417,6.3417,0,0,1,2.3853-.458,5.4075,5.4075,0,0,1,2.2558.458,4.91,4.91,0,0,1,1.7036,1.2574,4.8549,4.8549,0,0,1,.9991,1.8564,5.5046,5.5046,0,0,1,.1406,2.28,6.8476,6.8476,0,0,1-2.3027,4.1475,7.3177,7.3177,0,0,1-2.0562,1.2456,6.3357,6.3357,0,0,1-2.3852.4585,5.4816,5.4816,0,0,1-2.2681-.4585,4.8243,4.8243,0,0,1-1.7036-1.2456,4.9339,4.9339,0,0,1-.9986-1.8565A5.1921,5.1921,0,0,1,224.9511,144.3462Zm2.2559,0a4.4863,4.4863,0,0,0,.0352,1.5625,2.9232,2.9232,0,0,0,.5522,1.2222,2.7615,2.7615,0,0,0,1.0459.7988,3.5646,3.5646,0,0,0,1.4922.2939,4.0758,4.0758,0,0,0,2.82-1.0927,4.3678,4.3678,0,0,0,.9048-1.2222,4.921,4.921,0,0,0,.4814-1.5625,4.514,4.514,0,0,0-.0351-1.563,2.8508,2.8508,0,0,0-.564-1.2222,2.898,2.898,0,0,0-1.0459-.7988,3.4919,3.4919,0,0,0-1.4805-.2934,4.08,4.08,0,0,0-1.5625.2934,4.26,4.26,0,0,0-1.269.7988,4.081,4.081,0,0,0-.9048,1.2222A5.1106,5.1106,0,0,0,227.207,144.3462Z"/><path d="M239.6386,138.7764h2.1153l-1.5513,11.1391h-2.1147Zm.07-3.9946a1.7755,1.7755,0,0,1,.6113-1.0928,1.6929,1.6929,0,0,1,1.1514-.4585,1.3283,1.3283,0,0,1,1.3393,1.5513,1.78,1.78,0,0,1-.6108,1.0927,1.6958,1.6958,0,0,1-1.1514.458,1.3281,1.3281,0,0,1-1.34-1.5507Z"/><path d="M251.9106,141.7373a3.5591,3.5591,0,0,0-1.09-.9282,3.15,3.15,0,0,0-1.4883-.3169,3.697,3.697,0,0,0-1.5586.3169,3.819,3.819,0,0,0-1.2065.87,4.509,4.509,0,0,0-.8321,1.2691,5.8442,5.8442,0,0,0-.4336,1.4922,3.8282,3.8282,0,0,0,.0469,1.4687,3.14,3.14,0,0,0,.562,1.21,2.7432,2.7432,0,0,0,1.0191.81,3.3257,3.3257,0,0,0,1.4409.2939,3.6734,3.6734,0,0,0,1.5693-.3173,4.5362,4.5362,0,0,0,1.2881-.9283l1.2886,1.5039a5.8463,5.8463,0,0,1-2.1035,1.316,7.0858,7.0858,0,0,1-2.3619.4,5.9093,5.9093,0,0,1-2.3027-.4234,4.3985,4.3985,0,0,1-1.6684-1.1865,4.5364,4.5364,0,0,1-.94-1.833,5.8842,5.8842,0,0,1-.0937-2.3618,6.8251,6.8251,0,0,1,.74-2.3736,6.5148,6.5148,0,0,1,3.4663-3.0669,6.7444,6.7444,0,0,1,2.4439-.4345,5.857,5.857,0,0,1,2.268.4345,4.3031,4.3031,0,0,1,1.75,1.3282Z"/><path d="M256.0879,145.1216a2.6433,2.6433,0,0,0,.1416,1.3276,2.7256,2.7256,0,0,0,.6958,1.0225,3.2465,3.2465,0,0,0,1.1089.6577,4.0209,4.0209,0,0,0,1.38.2354,3.4848,3.4848,0,0,0,1.7813-.4585,7.0479,7.0479,0,0,0,1.519-1.21l1.41,1.2222a6.7676,6.7676,0,0,1-5.2407,2.28,5.6293,5.6293,0,0,1-2.315-.4468,4.31,4.31,0,0,1-1.6328-1.2339,4.642,4.642,0,0,1-.8931-1.8564,5.972,5.972,0,0,1-.0708-2.3145,6.5365,6.5365,0,0,1,.752-2.3149,6.9632,6.9632,0,0,1,1.4687-1.8565,6.7286,6.7286,0,0,1,1.9976-1.2339,6.3058,6.3058,0,0,1,2.3618-.4463,5.0629,5.0629,0,0,1,2.4321.5171,4.03,4.03,0,0,1,1.4927,1.3511,4.5257,4.5257,0,0,1,.6812,1.88,8.0385,8.0385,0,0,1,0,2.1269l-.1177.752Zm6.956-1.6919a4.3617,4.3617,0,0,0-.0478-1.2925,2.461,2.461,0,0,0-.4493-1.0224,2.2147,2.2147,0,0,0-.8994-.6817,3.4337,3.4337,0,0,0-1.3725-.2466,3.6905,3.6905,0,0,0-1.4673.294,4.4935,4.4935,0,0,0-1.2188.7637,4.1686,4.1686,0,0,0-.8637,1.0454,3.04,3.04,0,0,0-.4024,1.14Z"/><path d="M273.102,138.7764h2.397l1.3081,8.3193h.0474l3.8379-8.3193h2.2558l1.645,8.3193h.0469l3.5488-8.3193h2.2559l-5.1465,11.1391h-2.1147l-1.8233-8.3188h-.0473l-3.84,8.3188h-2.2563Z"/><path d="M290.21,144.3462a6.1454,6.1454,0,0,1,.7754-2.28,7.263,7.263,0,0,1,1.5279-1.8564,7.1886,7.1886,0,0,1,2.0561-1.2574,6.3417,6.3417,0,0,1,2.3853-.458,5.4078,5.4078,0,0,1,2.2558.458,4.91,4.91,0,0,1,1.7036,1.2574,4.8562,4.8562,0,0,1,.9991,1.8564,5.5063,5.5063,0,0,1,.1406,2.28,6.8471,6.8471,0,0,1-2.3028,4.1475,7.3158,7.3158,0,0,1-2.0561,1.2456,6.3362,6.3362,0,0,1-2.3853.4585,5.4815,5.4815,0,0,1-2.268-.4585,4.8243,4.8243,0,0,1-1.7036-1.2456,4.9339,4.9339,0,0,1-.9986-1.8565A5.1906,5.1906,0,0,1,290.21,144.3462Zm2.2559,0a4.4889,4.4889,0,0,0,.0351,1.5625,2.9245,2.9245,0,0,0,.5523,1.2222,2.7607,2.7607,0,0,0,1.0459.7988,3.5646,3.5646,0,0,0,1.4922.2939,4.0758,4.0758,0,0,0,2.82-1.0927,4.3678,4.3678,0,0,0,.9048-1.2222,4.921,4.921,0,0,0,.4814-1.5625,4.5164,4.5164,0,0,0-.0351-1.563,2.8508,2.8508,0,0,0-.564-1.2222,2.8989,2.8989,0,0,0-1.0459-.7988,3.4919,3.4919,0,0,0-1.4805-.2934,4.08,4.08,0,0,0-1.5625.2934,4.26,4.26,0,0,0-1.269.7988,4.081,4.081,0,0,0-.9048,1.2222A5.1078,5.1078,0,0,0,292.4658,144.3462Z"/><path d="M305.2026,138.7764h2.1157l-.2358,1.7158h.0474a4.0123,4.0123,0,0,1,1.5507-1.4453,4.2658,4.2658,0,0,1,2.0684-.5523,2.7413,2.7413,0,0,1,.916.1412l-.4228,2.2793q-.2594-.07-.5049-.1177a2.7043,2.7043,0,0,0-.5059-.0469,3.524,3.524,0,0,0-2.4912.87,4.3961,4.3961,0,0,0-1.1982,2.7027l-.7754,5.5927h-2.1148Z"/><path d="M319.8193,140.6094h-3.042l-.6933,5.0527q-.07.47-.1055.9282a2.5229,2.5229,0,0,0,.0586.8223,1.041,1.041,0,0,0,.3877.5879,1.4905,1.4905,0,0,0,.9043.2231,4.6322,4.6322,0,0,0,.7881-.0708,2.5126,2.5126,0,0,0,.7636-.2583l-.2841,1.9268a2.0809,2.0809,0,0,1-.4834.1885,4.4654,4.4654,0,0,1-.543.1054c-.1817.0235-.3545.043-.5195.0586s-.3028.024-.4131.024a3.9847,3.9847,0,0,1-1.8535-.3409,1.9269,1.9269,0,0,1-.8731-.8813,2.5341,2.5341,0,0,1-.2119-1.21q.0351-.6693.1289-1.351l.8223-5.8047H312.206l.2588-1.833h2.4444l.4462-3.1255h2.1153l-.44,3.1255h3.0479Z"/><path d="M323.4394,132.1494h2.1153l-1.1748,8.3428h.0468a3.9421,3.9421,0,0,1,1.5977-1.4453,4.9994,4.9994,0,0,1,2.3506-.5523,4.5247,4.5247,0,0,1,1.5039.2466,2.9116,2.9116,0,0,1,1.1865.7637,3.0348,3.0348,0,0,1,.6934,1.3281,4.8241,4.8241,0,0,1,.0468,1.9151l-.9873,7.1674h-2.1152l.917-6.58a3.8616,3.8616,0,0,0-.0352-1.3277,2.0684,2.0684,0,0,0-.4228-.893,1.6812,1.6812,0,0,0-.74-.4937,2.8923,2.8923,0,0,0-.94-.1523,3.7447,3.7447,0,0,0-1.2568.2114,3.0017,3.0017,0,0,0-1.0811.6694,3.7886,3.7886,0,0,0-.81,1.1636,6.0068,6.0068,0,0,0-.4707,1.6685l-.7989,5.7338h-2.1152Z"/><path d="M333.4746,138.7764h2.4443l2.0908,8.6953h.0469l4.3711-8.6953h2.2554l-7.1665,13.5361q-.3765.7281-.7637,1.3276a4.88,4.88,0,0,1-.87,1.0225,3.532,3.532,0,0,1-1.1162.6577,4.3259,4.3259,0,0,1-1.5039.2354,7.5768,7.5768,0,0,1-.94-.0591,2.8737,2.8737,0,0,1-.87-.2466l.4941-1.9267a3.0661,3.0661,0,0,0,1.2452.2583,2.5681,2.5681,0,0,0,.8574-.1294,1.8342,1.8342,0,0,0,.6347-.376,3.2865,3.2865,0,0,0,.4942-.5757,6.7517,6.7517,0,0,0,.4346-.752l.916-1.7626Z"/><path d="M350.7466,144.3462a6.1524,6.1524,0,0,1,.7753-2.28,7.2819,7.2819,0,0,1,1.5274-1.8564,7.2048,7.2048,0,0,1,2.0566-1.2574,6.3411,6.3411,0,0,1,2.3848-.458,5.4121,5.4121,0,0,1,2.2568.458,4.9144,4.9144,0,0,1,1.7032,1.2574,4.856,4.856,0,0,1,.999,1.8564,5.513,5.513,0,0,1,.1406,2.28,6.8476,6.8476,0,0,1-2.3027,4.1475,7.3274,7.3274,0,0,1-2.0567,1.2456,6.3312,6.3312,0,0,1-2.3847.4585,5.4776,5.4776,0,0,1-2.2676-.4585,4.8218,4.8218,0,0,1-1.7041-1.2456,4.9473,4.9473,0,0,1-.999-1.8565A5.1893,5.1893,0,0,1,350.7466,144.3462Zm2.2558,0a4.5106,4.5106,0,0,0,.0352,1.5625,2.9114,2.9114,0,0,0,.5527,1.2222,2.75,2.75,0,0,0,1.0459.7988,3.563,3.563,0,0,0,1.4922.2939,4.0733,4.0733,0,0,0,2.8193-1.0927,4.36,4.36,0,0,0,.9053-1.2222,4.921,4.921,0,0,0,.4814-1.5625,4.5115,4.5115,0,0,0-.0351-1.563,2.8491,2.8491,0,0,0-.5645-1.2222,2.89,2.89,0,0,0-1.0449-.7988,3.4966,3.4966,0,0,0-1.4805-.2934,4.0864,4.0864,0,0,0-1.5634.2934,4.2689,4.2689,0,0,0-1.2686.7988,4.0925,4.0925,0,0,0-.9053,1.2222A5.1239,5.1239,0,0,0,353.0024,144.3462Z"/><path d="M365.8335,140.6094H363.437l.2578-1.833h2.3975l.3525-2.4907a6.2,6.2,0,0,1,1.3223-3.3252,3.965,3.965,0,0,1,3.0781-1.0928c.2344,0,.48.0078.7373.0234a3.8744,3.8744,0,0,1,.8076.1411l-.4932,1.88a2.5922,2.5922,0,0,0-.5644-.1645,3.7225,3.7225,0,0,0-.6113-.0469,2.2694,2.2694,0,0,0-.9629.1763,1.534,1.534,0,0,0-.6114.5048,2.5288,2.5288,0,0,0-.3642.7876,9.1174,9.1174,0,0,0-.2227,1.0455l-.3486,2.5615h2.51l-.2578,1.833h-2.53l-1.2774,9.3061h-2.1142Z"/><path d="M386.4428,149.9155h-2.1152l.2354-1.7153h-.0469a3.9414,3.9414,0,0,1-1.5977,1.4453,5.0077,5.0077,0,0,1-2.3506.5523,4.4869,4.4869,0,0,1-1.5156-.2471,2.9165,2.9165,0,0,1-1.1748-.7637,3.02,3.02,0,0,1-.6933-1.3276,5.0907,5.0907,0,0,1-.07-1.9155l1.0108-7.1675h2.1142l-.916,6.58a3.54,3.54,0,0,0,.0117,1.3276,1.9789,1.9789,0,0,0,.4346.8931,1.7434,1.7434,0,0,0,.752.4936,2.8793,2.8793,0,0,0,.94.1528,3.4365,3.4365,0,0,0,2.3262-.8813,4.4692,4.4692,0,0,0,1.2929-2.8315l.7989-5.7344h2.1142Z"/><path d="M396.4311,141.5733a2.6022,2.6022,0,0,0-.8115-.7876,2.4176,2.4176,0,0,0-1.3037-.3169,2.8421,2.8421,0,0,0-1.3516.3169,1.1649,1.1649,0,0,0-.67.9282.9448.9448,0,0,0,.2.7993,2,2,0,0,0,.6816.4932,3.9422,3.9422,0,0,0,.8809.2822q.47.0938.8223.1645a8.6921,8.6921,0,0,1,1.2226.3995,3.0067,3.0067,0,0,1,.9512.6108,2.116,2.116,0,0,1,.5527.9165,3.2283,3.2283,0,0,1,.07,1.3159,3.6269,3.6269,0,0,1-.623,1.61,3.9486,3.9486,0,0,1-1.1865,1.0927,5.1851,5.1851,0,0,1-1.5391.6114,7.541,7.541,0,0,1-1.6572.188,5.913,5.913,0,0,1-2.3613-.4234,3.6787,3.6787,0,0,1-1.6573-1.5508l1.7627-1.3159a5.26,5.26,0,0,0,1.0371.9165,2.6414,2.6414,0,0,0,1.5118.3994,3.813,3.813,0,0,0,1.583-.3408,1.3831,1.3831,0,0,0,.874-1.0693.9536.9536,0,0,0-.1778-.7754,1.7125,1.7125,0,0,0-.6367-.4819,4.5113,4.5113,0,0,0-.85-.2818c-.3076-.0708-.57-.1294-.791-.1762q-.6606-.1641-1.251-.376a3.335,3.335,0,0,1-1.0146-.564,2.0764,2.0764,0,0,1-.625-.8931,2.7231,2.7231,0,0,1-.083-1.34,3.3513,3.3513,0,0,1,.5761-1.5156,4.0122,4.0122,0,0,1,1.1163-1.0694,5.0777,5.0777,0,0,1,1.457-.6342,6.1284,6.1284,0,0,1,1.5742-.2115,5.235,5.235,0,0,1,2.1035.4229,2.7921,2.7921,0,0,1,1.4453,1.41Z"/><path d="M401.7407,145.1216a2.6487,2.6487,0,0,0,.1426,1.3276,2.7129,2.7129,0,0,0,.6953,1.0225,3.2488,3.2488,0,0,0,1.1094.6577,4.02,4.02,0,0,0,1.38.2354,3.4872,3.4872,0,0,0,1.7813-.4585,7.0216,7.0216,0,0,0,1.5185-1.21l1.41,1.2222a6.7666,6.7666,0,0,1-5.24,2.28,5.6222,5.6222,0,0,1-2.3145-.4468,4.3139,4.3139,0,0,1-1.6338-1.2339,4.6463,4.6463,0,0,1-.8925-1.8564,5.9626,5.9626,0,0,1-.07-2.3145,6.5365,6.5365,0,0,1,.752-2.3149,6.9553,6.9553,0,0,1,1.4687-1.8565,6.7148,6.7148,0,0,1,1.9971-1.2339,6.3073,6.3073,0,0,1,2.3623-.4463,5.0656,5.0656,0,0,1,2.4317.5171,4.0248,4.0248,0,0,1,1.4921,1.3511,4.5194,4.5194,0,0,1,.6817,1.88,8.081,8.081,0,0,1,0,2.1269l-.1182.752Zm6.9561-1.6919a4.315,4.315,0,0,0-.0479-1.2925,2.4431,2.4431,0,0,0-.4492-1.0224,2.2094,2.2094,0,0,0-.8994-.6817,3.432,3.432,0,0,0-1.3721-.2466,3.6947,3.6947,0,0,0-1.4678.294,4.4957,4.4957,0,0,0-1.2178.7637,4.16,4.16,0,0,0-.8642,1.0454,3.0312,3.0312,0,0,0-.4024,1.14Z"/><path d="M413.8452,138.7764h2.1142l-.2343,1.7158h.0468a4.0133,4.0133,0,0,1,1.5508-1.4453,4.2658,4.2658,0,0,1,2.0684-.5523,2.7413,2.7413,0,0,1,.916.1412l-.4228,2.2793q-.2593-.07-.5049-.1177a2.7043,2.7043,0,0,0-.5059-.0469,3.524,3.524,0,0,0-2.4912.87,4.4016,4.4016,0,0,0-1.1982,2.7027l-.7754,5.5927h-2.1153Z"/><path d="M433.3022,140.6094H430.26l-.6933,5.0527q-.07.47-.1055.9282a2.5229,2.5229,0,0,0,.0586.8223,1.041,1.041,0,0,0,.3877.5879,1.4907,1.4907,0,0,0,.9043.2231,4.6313,4.6313,0,0,0,.7881-.0708,2.5126,2.5126,0,0,0,.7636-.2583l-.2841,1.9268a2.0809,2.0809,0,0,1-.4834.1885,4.4617,4.4617,0,0,1-.543.1054q-.2724.0353-.5195.0586c-.1651.0157-.3028.024-.4131.024a3.985,3.985,0,0,1-1.8535-.3409,1.9274,1.9274,0,0,1-.8731-.8813,2.5341,2.5341,0,0,1-.2119-1.21q.0351-.6693.1289-1.351l.8223-5.8047h-2.4444l.2588-1.833h2.4444l.4463-3.1255h2.1152l-.44,3.1255h3.0479Z"/><path d="M435.9829,138.7764h2.1142l-.2343,1.7158h.0468a4.0133,4.0133,0,0,1,1.5508-1.4453,4.2658,4.2658,0,0,1,2.0684-.5523,2.7413,2.7413,0,0,1,.916.1412l-.4229,2.2793q-.2592-.07-.5048-.1177a2.7043,2.7043,0,0,0-.5059-.0469,3.5238,3.5238,0,0,0-2.4912.87,4.4016,4.4016,0,0,0-1.1982,2.7027l-.7754,5.5927h-2.1153Z"/><path d="M452.7143,149.9155h-2.1152l.2353-1.7153h-.0468a3.9414,3.9414,0,0,1-1.5977,1.4453,5.008,5.008,0,0,1-2.3506.5523,4.4869,4.4869,0,0,1-1.5156-.2471,2.9165,2.9165,0,0,1-1.1748-.7637,3.0208,3.0208,0,0,1-.6934-1.3276,5.0929,5.0929,0,0,1-.07-1.9155l1.0108-7.1675H446.51l-.916,6.58a3.54,3.54,0,0,0,.0117,1.3276,1.9789,1.9789,0,0,0,.4346.8931,1.7434,1.7434,0,0,0,.752.4936,2.8793,2.8793,0,0,0,.94.1528,3.4367,3.4367,0,0,0,2.3262-.8813,4.47,4.47,0,0,0,1.2929-2.8315l.7989-5.7344h2.1142Z"/><path d="M462.7026,141.5733a2.6022,2.6022,0,0,0-.8115-.7876,2.4176,2.4176,0,0,0-1.3037-.3169,2.8421,2.8421,0,0,0-1.3516.3169,1.1649,1.1649,0,0,0-.67.9282.9448.9448,0,0,0,.2.7993,2,2,0,0,0,.6816.4932,3.9422,3.9422,0,0,0,.8809.2822q.47.0938.8223.1645a8.6921,8.6921,0,0,1,1.2226.3995,3.0067,3.0067,0,0,1,.9512.6108,2.116,2.116,0,0,1,.5527.9165,3.2283,3.2283,0,0,1,.07,1.3159,3.6269,3.6269,0,0,1-.623,1.61,3.9486,3.9486,0,0,1-1.1865,1.0927,5.1851,5.1851,0,0,1-1.5391.6114,7.541,7.541,0,0,1-1.6572.188,5.9135,5.9135,0,0,1-2.3614-.4234,3.6785,3.6785,0,0,1-1.6572-1.5508l1.7627-1.3159a5.26,5.26,0,0,0,1.0371.9165,2.6413,2.6413,0,0,0,1.5117.3994,3.8126,3.8126,0,0,0,1.583-.3408,1.3831,1.3831,0,0,0,.8741-1.0693.954.954,0,0,0-.1778-.7754,1.7125,1.7125,0,0,0-.6367-.4819,4.5161,4.5161,0,0,0-.85-.2818c-.3076-.0708-.57-.1294-.791-.1762q-.6606-.1641-1.251-.376a3.335,3.335,0,0,1-1.0146-.564,2.0764,2.0764,0,0,1-.625-.8931,2.7231,2.7231,0,0,1-.083-1.34,3.3513,3.3513,0,0,1,.5761-1.5156,4.0132,4.0132,0,0,1,1.1162-1.0694,5.08,5.08,0,0,1,1.4571-.6342,6.1284,6.1284,0,0,1,1.5742-.2115,5.2354,5.2354,0,0,1,2.1035.4229,2.7925,2.7925,0,0,1,1.4453,1.41Z"/><path d="M473.0639,140.6094h-3.042l-.6933,5.0527q-.07.47-.1055.9282a2.5229,2.5229,0,0,0,.0586.8223,1.041,1.041,0,0,0,.3877.5879,1.4907,1.4907,0,0,0,.9043.2231,4.6313,4.6313,0,0,0,.7881-.0708,2.5141,2.5141,0,0,0,.7637-.2583l-.2842,1.9268a2.0809,2.0809,0,0,1-.4834.1885,4.4617,4.4617,0,0,1-.543.1054q-.2724.0353-.52.0586c-.1651.0157-.3028.024-.4131.024a3.985,3.985,0,0,1-1.8535-.3409,1.9274,1.9274,0,0,1-.8731-.8813,2.5341,2.5341,0,0,1-.2119-1.21q.0353-.6693.1289-1.351l.8223-5.8047h-2.4443l.2587-1.833h2.4444l.4463-3.1255h2.1152l-.4394,3.1255h3.0478Z"/><path class="b" d="M209.6353,104.9615H181.5064V89.2387a2.9663,2.9663,0,1,0-5.9218,0v15.7228h-2.961V60.9379a2.9663,2.9663,0,1,0-5.9219,0v44.0236h-2.9609V79.8052a2.9663,2.9663,0,1,0-5.9219,0v25.1563H154.858V86.0942a2.9663,2.9663,0,1,0-5.9219,0v18.8673h-2.9609V79.8052a2.9663,2.9663,0,1,0-5.9219,0v25.1563h-2.9609V73.5161a2.9663,2.9663,0,1,0-5.9219,0v31.4454H128.21V57.7934a2.9663,2.9663,0,1,0-5.9219,0v47.1681h-2.961V73.5161a2.9663,2.9663,0,1,0-5.9218,0v31.4454h-2.961V76.6606a2.9664,2.9664,0,1,0-5.922,0v28.3009H101.561V51.5043a2.9663,2.9663,0,1,0-5.9219,0v53.4572H92.6782V29.4925a2.9663,2.9663,0,1,0-5.9219,0v75.469H83.7954V64.0824a2.9663,2.9663,0,1,0-5.9219,0v40.8791H74.9126V89.2387a2.9663,2.9663,0,1,0-5.9219,0v15.7228H66.03V76.6606a2.9663,2.9663,0,1,0-5.9218,0v28.3009h-2.961V64.0824a2.9663,2.9663,0,1,0-5.9219,0v40.8791H23.096a1.5751,1.5751,0,0,0,0,3.1445H51.2249v40.879a2.9663,2.9663,0,1,0,5.9219,0V108.106h2.961v28.3008a2.9663,2.9663,0,1,0,5.9218,0V108.106h2.9611v15.7227a2.9663,2.9663,0,1,0,5.9219,0V108.106h2.9609v40.879a2.9663,2.9663,0,1,0,5.9219,0V108.106h2.9609v75.4689a2.9663,2.9663,0,1,0,5.9219,0V108.106h2.9609v53.4571a2.9663,2.9663,0,1,0,5.9219,0V108.106h2.9609v28.3008a2.9664,2.9664,0,1,0,5.922,0V108.106h2.961v31.4454a2.9663,2.9663,0,1,0,5.9218,0V108.106h2.961v47.168a2.9663,2.9663,0,1,0,5.9219,0V108.106h2.9609v31.4454a2.9663,2.9663,0,1,0,5.9219,0V108.106h2.9609v25.1563a2.9663,2.9663,0,1,0,5.9219,0V108.106h2.9609v18.8672a2.9663,2.9663,0,1,0,5.9219,0V108.106h2.9609v25.1563a2.9663,2.9663,0,1,0,5.9219,0V108.106h2.9609v47.168a2.9663,2.9663,0,1,0,5.9219,0V108.106h2.961v15.7227a2.9663,2.9663,0,1,0,5.9218,0V108.106h28.1289a1.5751,1.5751,0,0,0,0-3.1445Z"/></svg>