<svg xmlns="http://www.w3.org/2000/svg" width="620" height="96" viewBox="0 0 620 96"><defs><style>.a{fill:#2b2a35;}.b{fill:#6f59fd;}</style></defs><path class="a" d="M59.8791,81.77H20.5125L16.0751,95.6285H0L32.3122,1.3856H47.9314L80.242,95.6285H64.1668ZM56.1671,69.435,40.1912,18.1577,24.3077,69.435Z"/><path class="a" d="M92.5766,92.3025a19.386,19.386,0,0,1-9.1473-8.87L92.16,77.4742a16.5,16.5,0,0,0,6.3763,5.681,18.6977,18.6977,0,0,0,8.7312,2.0792,13.1932,13.1932,0,0,0,8.9392-3.0486A9.7978,9.7978,0,0,0,119.74,74.424a7.8357,7.8357,0,0,0-2.7711-6.1665q-2.7737-2.4234-10.2554-5.1971Q94.6566,58.4877,89.7361,53.705a15.8559,15.8559,0,0,1-4.92-11.8491,15.8544,15.8544,0,0,1,6.5826-13.304q6.58-4.989,17.5318-4.989a28.4028,28.4028,0,0,1,12.8878,2.91,22.4546,22.4546,0,0,1,9.1474,8.1763L122.79,40.7478a15.5123,15.5123,0,0,0-5.8907-5.0584,17.5665,17.5665,0,0,0-7.83-1.7323,13.1427,13.1427,0,0,0-7.6924,2.0791A6.3227,6.3227,0,0,0,98.398,41.44a6.9253,6.9253,0,0,0,3.0485,5.752q3.0477,2.2865,11.9185,5.752,11.087,4.2963,15.5913,8.9393a16.5053,16.5053,0,0,1,4.5051,11.9878A19.4813,19.4813,0,0,1,126.2545,89.67q-7.2094,5.9583-18.9866,5.9583A31.831,31.831,0,0,1,92.5766,92.3025Z"/><path class="a" d="M147.8735,92.3025a19.386,19.386,0,0,1-9.1473-8.87l8.7312-5.9584a16.5,16.5,0,0,0,6.3762,5.681,18.698,18.698,0,0,0,8.7312,2.0792,13.1932,13.1932,0,0,0,8.9393-3.0486,9.7981,9.7981,0,0,0,3.5324-7.7618,7.8357,7.8357,0,0,0-2.7711-6.1665Q169.4918,65.8341,162.01,63.06q-12.0563-4.5728-16.9768-9.3554a15.856,15.856,0,0,1-4.92-11.8491,15.8545,15.8545,0,0,1,6.5827-13.304q6.58-4.989,17.5317-4.989a28.4032,28.4032,0,0,1,12.8879,2.91,22.4543,22.4543,0,0,1,9.1473,8.1763l-8.1763,6.0988a15.5123,15.5123,0,0,0-5.8907-5.0584,17.5665,17.5665,0,0,0-7.8295-1.7323,13.1427,13.1427,0,0,0-7.6924,2.0791,6.323,6.323,0,0,0-2.9792,5.4035,6.9254,6.9254,0,0,0,3.0486,5.752q3.0477,2.2865,11.9184,5.752,11.087,4.2963,15.5913,8.9393a16.5054,16.5054,0,0,1,4.5052,11.9878A19.4813,19.4813,0,0,1,181.5515,89.67q-7.2094,5.9583-18.9867,5.9583A31.8313,31.8313,0,0,1,147.8735,92.3025Z"/><path class="a" d="M199.3994,15.1074a8.3492,8.3492,0,0,1-2.4954-6.3762,8.3532,8.3532,0,0,1,2.4954-6.3746A9.49,9.49,0,0,1,206.19,0a9.7511,9.7511,0,0,1,6.86,2.3566,8.2367,8.2367,0,0,1,2.563,6.3746,8.2327,8.2327,0,0,1-2.563,6.3762,9.7421,9.7421,0,0,1-6.86,2.355A9.4808,9.4808,0,0,1,199.3994,15.1074Zm0,9.841h13.72V94.243h-13.72Z"/><path class="a" d="M231.9079,92.3025a19.386,19.386,0,0,1-9.1473-8.87l8.7312-5.9584a16.5,16.5,0,0,0,6.3762,5.681,18.698,18.698,0,0,0,8.7312,2.0792,13.1932,13.1932,0,0,0,8.9393-3.0486,9.7981,9.7981,0,0,0,3.5324-7.7618A7.8357,7.8357,0,0,0,256.3,68.2575q-2.7736-2.4234-10.2555-5.1971-12.0564-4.5728-16.9768-9.3554a15.856,15.856,0,0,1-4.92-11.8491,15.8545,15.8545,0,0,1,6.5827-13.304q6.58-4.989,17.5317-4.989a28.4032,28.4032,0,0,1,12.8879,2.91,22.4543,22.4543,0,0,1,9.1473,8.1763l-8.1763,6.0988a15.5123,15.5123,0,0,0-5.8907-5.0584,17.5665,17.5665,0,0,0-7.8295-1.7323,13.1427,13.1427,0,0,0-7.6924,2.0791,6.323,6.323,0,0,0-2.9792,5.4035,6.9254,6.9254,0,0,0,3.0486,5.752q3.0477,2.2865,11.9184,5.752,11.087,4.2963,15.5913,8.9393a16.5054,16.5054,0,0,1,4.5052,11.9878A19.4813,19.4813,0,0,1,265.5859,89.67q-7.2094,5.9583-18.9867,5.9583A31.8313,31.8313,0,0,1,231.9079,92.3025Z"/><path class="a" d="M286.8985,89.74q-5.4762-5.89-5.4745-16.2849V0h13.72V24.9484h16.3543V37.2136H295.1442v34.578q0,6.7908,2.7017,9.978,2.7026,3.19,8.2473,3.1873a27.1033,27.1033,0,0,0,9.8393-1.663l.8324,9.841q-5.1312,2.4945-14.6913,2.4936Q292.3722,95.6285,286.8985,89.74Z"/><path class="a" d="M471.9939,89.74q-5.4763-5.89-5.4746-16.2849V0h13.72V24.9484h16.3543V37.2136H480.24v34.578q0,6.7908,2.7018,9.978,2.7025,3.19,8.2473,3.1873a27.1041,27.1041,0,0,0,9.8393-1.663l.8323,9.841q-5.1311,2.4945-14.6912,2.4936Q477.4676,95.6285,471.9939,89.74Z"/><path class="a" d="M383.6028,64.8622H334.2643q1.1089,9.4273,6.0294,14.2751,4.9181,4.8519,13.5121,4.85c8.129,0,16.422-4.92,21.411-11.2959l7.6231,7.3457a36.3283,36.3283,0,0,1-13.2347,11.9184,36.9313,36.9313,0,0,1-16.493,3.6728q-15.5228,0-24.1837-9.4924-8.6635-9.4908-8.6618-26.4017,0-16.9057,8.7311-26.54,8.7321-9.63,23.9757-9.6312,14.4138,0,22.5207,9.4924,8.1078,9.4959,8.1086,26.54Zm-13.0282-10.81q0-9.0062-4.85-14.1364-4.8519-5.1234-13.304-5.1277-7.9,0-12.6121,5.2665-4.7124,5.2681-5.6826,14.9687h36.449Z"/><path class="a" d="M394.3422,42.6882c0-8.5924,0-17.74,0-17.74H407.23s0,13.1636,0,12.1959h.4162a21.3344,21.3344,0,0,1,9.078-9.9086A27.4268,27.4268,0,0,1,430.79,23.5629q24.3918,0,24.3918,31.5987V94.243h-13.72v-39.22q0-10.3942-3.4647-15.3832-3.464-4.9915-10.6716-4.9907a17.6849,17.6849,0,0,0-13.859,6.0988q-5.4025,6.1-5.4035,15.5219V94.243h-13.72Z"/><path class="a" d="M546.1741,92.8574a20.5713,20.5713,0,0,1-8.3167-7.6924A21.0913,21.0913,0,0,1,534.8782,74.01q0-10.5312,8.0376-16.1462,8.0367-5.6131,22.8675-5.6132h13.0283V48.7853q0-6.9277-3.7422-10.6716-3.7431-3.74-10.9491-3.7405a28.1268,28.1268,0,0,0-11.641,2.4243,22.4494,22.4494,0,0,0-8.87,6.9988L537.0961,35.62a33.3028,33.3028,0,0,1,12.1265-8.9393,38.1607,38.1607,0,0,1,15.4526-3.1179q13.3049,0,20.65,6.4439,7.3439,6.4457,7.3456,18.2253V94.243H580.3359c0-.6953,0-7.6248,0-9.2861h-.2774q-7.9,10.6734-21.7578,10.6716A25.91,25.91,0,0,1,546.1741,92.8574Zm27.44-11.9878q5.197-4.0881,5.1971-9.91V61.8136H565.23q-8.1813,0-12.5427,3.1179a10.4571,10.4571,0,0,0-4.3665,9.078,10.0172,10.0172,0,0,0,3.3954,8.0376q3.3954,2.9106,9.2167,2.91A19.8807,19.8807,0,0,0,573.6145,80.87Z"/><path class="a" d="M603.7862,15.1074a8.3488,8.3488,0,0,1-2.4954-6.3762,8.3528,8.3528,0,0,1,2.4954-6.3746A9.4893,9.4893,0,0,1,610.5769,0a9.7513,9.7513,0,0,1,6.86,2.3566A8.2367,8.2367,0,0,1,620,8.7312a8.2327,8.2327,0,0,1-2.563,6.3762,9.7423,9.7423,0,0,1-6.86,2.355A9.4807,9.4807,0,0,1,603.7862,15.1074Zm0,9.841h13.72V94.243h-13.72Z"/><path class="b" d="M512.6282,93.6451a9.3921,9.3921,0,0,1,0-12.7508,9.4892,9.4892,0,0,1,6.7908-2.3567,9.7509,9.7509,0,0,1,6.86,2.3567,9.2108,9.2108,0,0,1,0,12.7508A9.7427,9.7427,0,0,1,519.419,96,9.4813,9.4813,0,0,1,512.6282,93.6451Z"/></svg>