<svg width="2199" height="523" viewBox="0 0 2199 523" fill="none" xmlns="http://www.w3.org/2000/svg">
<path d="M260.895 488.932C135.553 488.932 33.5193 387.098 33.5193 262C33.5193 234.423 38.4589 207.462 48.0293 181.888C50.4991 175.572 57.5998 172.337 63.9286 174.647C70.2575 177.112 73.4991 184.199 71.1837 190.516C62.6937 213.471 58.2172 237.504 58.2172 262C58.2172 373.54 149.137 464.282 260.895 464.282C372.653 464.282 463.418 373.54 463.418 262C463.418 150.46 372.499 59.7179 260.74 59.7179C253.948 59.7179 248.391 54.1717 248.391 47.393C248.391 40.6143 253.948 35.0681 260.74 35.0681C386.082 35.0681 488.116 136.903 488.116 262C488.116 387.098 386.237 488.932 260.895 488.932Z" fill="#00BDD1"/>
<path d="M396.734 386.173C393.955 386.173 391.177 385.249 388.861 383.4C383.613 379.087 382.841 371.229 387.163 365.991C411.244 336.874 424.519 299.899 424.519 262C424.519 171.874 351.042 98.5413 260.741 98.5413C253.949 98.5413 248.392 92.9951 248.392 86.2164C248.392 79.4377 253.949 73.8915 260.741 73.8915C364.626 73.8915 449.217 158.317 449.217 262C449.217 305.599 433.935 348.12 406.15 381.706C403.834 384.633 400.284 386.173 396.734 386.173Z" fill="#F7C64D"/>
<path d="M260.894 410.055C179.083 410.055 112.707 343.655 112.707 262.156C112.707 255.378 118.264 249.831 125.056 249.831C131.848 249.831 137.405 255.378 137.405 262.156C137.405 330.097 192.821 385.405 260.894 385.405C328.968 385.405 384.384 330.097 384.384 262.156C384.384 194.215 328.968 138.907 260.894 138.907C254.103 138.907 248.545 133.361 248.545 126.582C248.545 119.804 254.103 114.258 260.894 114.258C342.706 114.258 409.082 180.658 409.082 262.156C409.082 343.655 342.552 410.055 260.894 410.055Z" fill="#EE7B42"/>
<path d="M709.78 218.246C705.458 213.008 700.056 209.002 693.727 206.229C687.552 203.456 680.297 202.069 672.116 202.069C663.935 202.069 656.217 203.61 649.116 206.845C642.17 210.081 636.15 214.548 630.901 220.249C625.807 225.795 621.794 232.574 618.861 240.431C616.083 248.288 614.693 256.761 614.693 266.005C614.693 275.403 616.083 284.03 618.861 291.887C621.794 299.59 625.962 306.369 630.901 312.069C635.995 317.615 641.861 322.083 648.653 325.318C655.599 328.554 663.009 330.094 670.881 330.094C679.834 330.094 687.861 328.246 694.807 324.548C701.754 320.851 707.465 315.612 711.941 308.834L748.525 336.103C740.035 347.965 729.384 356.593 716.418 362.139C703.452 367.685 690.176 370.612 676.438 370.612C660.848 370.612 646.492 368.147 633.371 363.371C620.25 358.441 608.982 351.509 599.411 342.573C589.841 333.33 582.277 322.391 576.875 309.45C571.626 296.509 569.002 282.181 569.002 266.159C569.002 250.137 571.626 235.809 576.875 222.868C582.277 209.927 589.841 198.988 599.411 190.053C608.982 180.809 620.25 173.876 633.371 168.946C646.492 164.016 660.848 161.705 676.438 161.705C681.995 161.705 687.861 162.322 693.881 163.4C700.056 164.324 706.076 165.865 711.941 168.176C717.962 170.487 723.673 173.414 729.076 177.112C734.478 180.809 739.418 185.431 743.74 190.823L709.78 218.246ZM826.633 280.641L751.767 166.635H806.257L848.398 241.047L893.163 166.635H945.183L870.317 280.641V365.374H826.478V280.641H826.633ZM965.713 166.635H1042.74C1052.93 166.635 1062.5 167.714 1071.45 169.717C1080.71 171.565 1088.59 174.801 1095.38 179.577C1102.32 184.044 1107.73 190.207 1111.74 198.064C1115.91 205.767 1117.91 215.319 1117.91 227.027C1117.91 241.047 1114.21 253.064 1106.95 262.924C1099.7 272.629 1088.89 278.792 1074.85 281.411L1125.48 365.374H1072.84L1031.16 285.879H1009.55V365.374H965.713V166.635ZM1009.55 248.904H1035.48C1039.5 248.904 1043.51 248.75 1047.83 248.596C1052.31 248.288 1056.32 247.363 1059.87 246.131C1063.42 244.59 1066.36 242.433 1068.52 239.352C1070.99 236.425 1072.22 232.111 1072.22 226.719C1072.22 221.635 1071.14 217.63 1069.14 214.702C1067.13 211.775 1064.5 209.464 1061.26 207.924C1058.02 206.229 1054.47 205.151 1050.3 204.534C1046.14 203.918 1042.12 203.764 1038.26 203.764H1009.55V248.904ZM1219.18 166.635H1255.45L1342.05 365.374H1292.5L1275.36 323.316H1198.03L1181.51 365.374H1133.2L1219.18 166.635ZM1236 224.408L1211.77 286.187H1260.39L1236 224.408ZM1367.67 166.635H1427.26L1511.85 304.674H1512.46V166.635H1556.3V365.374H1498.88L1411.97 223.946H1411.36V365.374H1367.52V166.635H1367.67ZM1591.96 266.005C1591.96 250.137 1594.58 235.655 1599.83 222.714C1605.24 209.773 1612.8 198.834 1622.37 189.899C1631.94 180.655 1643.21 173.722 1656.33 168.792C1669.45 163.862 1683.81 161.551 1699.4 161.551C1714.99 161.551 1729.34 164.016 1742.46 168.792C1755.58 173.722 1766.85 180.655 1776.42 189.899C1785.99 198.834 1793.4 209.773 1798.65 222.714C1804.05 235.655 1806.83 249.982 1806.83 266.005C1806.83 282.027 1804.05 296.355 1798.65 309.296C1793.4 322.237 1785.99 333.175 1776.42 342.419C1766.85 351.355 1755.58 358.287 1742.46 363.217C1729.34 368.147 1714.99 370.458 1699.4 370.458C1683.81 370.458 1669.45 367.993 1656.33 363.217C1643.21 358.287 1631.94 351.355 1622.37 342.419C1612.8 333.175 1605.24 322.237 1599.83 309.296C1594.58 296.355 1591.96 281.873 1591.96 266.005ZM1637.5 266.005C1637.5 275.403 1638.89 284.03 1641.66 291.887C1644.6 299.59 1648.92 306.369 1654.32 312.069C1659.73 317.615 1666.21 322.083 1673.77 325.318C1681.49 328.554 1689.98 330.094 1699.4 330.094C1708.81 330.094 1717.15 328.554 1724.71 325.318C1732.43 322.083 1738.91 317.769 1744.47 312.069C1749.87 306.215 1754.04 299.59 1756.82 291.887C1759.75 284.03 1761.3 275.403 1761.3 266.005C1761.3 256.761 1759.75 248.288 1756.82 240.431C1754.04 232.574 1749.87 225.795 1744.47 220.249C1739.07 214.394 1732.43 209.927 1724.71 206.845C1717.15 203.61 1708.81 202.069 1699.4 202.069C1689.98 202.069 1681.49 203.61 1673.77 206.845C1666.21 210.081 1659.88 214.548 1654.32 220.249C1648.92 225.795 1644.6 232.574 1641.66 240.431C1638.89 248.288 1637.5 256.761 1637.5 266.005ZM1814.55 341.187C1814.55 337.643 1815.17 334.254 1816.56 331.019C1817.95 327.783 1819.64 325.164 1821.96 322.853C1824.43 320.388 1827.21 318.54 1830.45 317.307C1833.69 315.921 1837.09 315.304 1840.64 315.304C1844.19 315.304 1847.58 315.921 1850.83 317.307C1854.07 318.694 1856.69 320.542 1859.01 322.853C1861.48 325.164 1863.33 327.783 1864.56 331.019C1865.95 334.254 1866.57 337.643 1866.57 341.187C1866.57 344.73 1865.95 348.119 1864.56 351.355C1863.17 354.59 1861.32 357.363 1859.01 359.828C1856.69 362.139 1854.07 363.834 1850.83 365.22C1847.58 366.607 1844.19 367.223 1840.64 367.223C1837.09 367.223 1833.69 366.607 1830.45 365.22C1827.21 363.834 1824.43 362.139 1821.96 359.828C1819.64 357.363 1817.95 354.59 1816.56 351.355C1815.17 348.119 1814.55 344.73 1814.55 341.187ZM1973.39 166.635H2009.66L2096.26 365.374H2046.71L2029.58 323.316H1952.24L1935.72 365.374H1887.41L1973.39 166.635ZM1990.21 224.408L1965.98 286.187H2014.6L1990.21 224.408ZM2121.42 166.635H2165.26V365.374H2121.42V166.635Z" fill="#4D4D4D"/>
<path d="M259.042 365.682C201.774 365.682 155.156 319.156 155.156 261.999C155.156 204.843 201.774 158.316 259.042 158.316C283.74 158.316 307.821 167.098 326.498 183.274C331.747 187.742 332.364 195.445 327.888 200.683C323.411 205.921 315.693 206.537 310.445 202.07C296.089 189.899 277.874 183.12 259.042 183.12C215.358 183.12 179.854 218.554 179.854 262.153C179.854 305.753 215.358 341.187 259.042 341.187C277.874 341.187 296.089 334.408 310.445 322.237C315.693 317.769 323.411 318.386 327.888 323.624C332.364 328.862 331.747 336.565 326.498 341.033C307.821 356.901 283.74 365.682 259.042 365.682Z" fill="#3885DF"/>
</svg>
