<?xml version="1.0" encoding="utf-8"?>
<!-- Generator: Adobe Illustrator 26.0.2, SVG Export Plug-In . SVG Version: 6.00 Build 0)  -->
<svg version="1.1" id="Layer_1" xmlns="http://www.w3.org/2000/svg" xmlns:xlink="http://www.w3.org/1999/xlink" x="0px" y="0px"
	 viewBox="0 0 400 400" style="enable-background:new 0 0 400 400;" xml:space="preserve">
<style type="text/css">
	.st0{fill:#6C3393;}
	.st1{fill:url(#SVGID_1_);}
	.st2{fill:url(#SVGID_00000124131101300505732410000008562881772640665771_);}
	.st3{fill:url(#SVGID_00000028295325365770805940000010737436395334028177_);}
	.st4{fill:url(#SVGID_00000144327837171923465200000011084871412536797587_);}
	.st5{fill:url(#SVGID_00000179636694426384380770000014104442835351959466_);}
	.st6{fill:url(#SVGID_00000033362802136210839000000013679620363133609122_);}
	.st7{fill:url(#SVGID_00000018948531650621396400000014461266868585377179_);}
	.st8{fill:url(#SVGID_00000042729985868918592160000010310742059569641143_);}
	.st9{fill:url(#SVGID_00000158708995092719992990000001666490739346424207_);}
	.st10{fill:url(#SVGID_00000098933660558374042080000015363963803239050916_);}
	.st11{fill:url(#SVGID_00000057106073540192366440000008690910158715323800_);}
	.st12{fill:url(#SVGID_00000043448770488685900600000014740188637936617355_);}
	.st13{fill:#F47A20;}
</style>
<g>
	<polygon class="st0" points="373.7,326.5 378.6,326.5 378.6,327.7 376.9,327.7 376.9,331.4 375.3,331.4 375.3,327.7 373.7,327.7 	
		"/>
	<polygon class="st0" points="384.4,331.4 384.4,329 383.1,331 382.3,331 381,329 381,331.4 379.5,331.4 379.5,326.5 380.9,326.5 
		382.7,329.3 384.5,326.5 385.8,326.5 385.9,331.4 	"/>
</g>
<g>
	<linearGradient id="SVGID_1_" gradientUnits="userSpaceOnUse" x1="-41.6473" y1="-20.5809" x2="365.0969" y2="119.5646">
		<stop  offset="1.651384e-07" style="stop-color:#FFFFFF"/>
		<stop  offset="0.9994" style="stop-color:#E1E1E1"/>
	</linearGradient>
	<path class="st1" d="M337.5,122.3l28.9,0c0.8,0,1.4-0.6,1.4-1.4c0-10-8.1-18.1-18.1-18.1h-20.1c-0.2,0-0.5,0.1-0.6,0.2
		c0.9,4.5,1.7,9.1,2.2,13.7C331.6,119.9,334.3,122.3,337.5,122.3z"/>
	
		<linearGradient id="SVGID_00000153705074491510645130000005698235978842971830_" gradientUnits="userSpaceOnUse" x1="-37.055" y1="-33.9091" x2="369.6891" y2="106.2364">
		<stop  offset="1.651384e-07" style="stop-color:#FFFFFF"/>
		<stop  offset="0.9994" style="stop-color:#E1E1E1"/>
	</linearGradient>
	<path style="fill:url(#SVGID_00000153705074491510645130000005698235978842971830_);" d="M252.2,50.2c20.2,15,34.7,37.2,39.6,62.8
		c1,5.4,5.6,9.3,11.1,9.3h8.3c0.8,0,1.5-0.7,1.4-1.6c-3.9-41.7-28.9-77.3-64.3-96.1c-0.9-0.5-2.1,0.2-2.1,1.3v12.2
		C246.2,42.9,248.4,47.4,252.2,50.2z"/>
	
		<linearGradient id="SVGID_00000045592551144465485570000011948431031913231785_" gradientUnits="userSpaceOnUse" x1="-57.2979" y1="24.8418" x2="349.4463" y2="164.9873">
		<stop  offset="1.651384e-07" style="stop-color:#FFFFFF"/>
		<stop  offset="0.9994" style="stop-color:#E1E1E1"/>
	</linearGradient>
	<path style="fill:url(#SVGID_00000045592551144465485570000011948431031913231785_);" d="M33.3,122.3c0,0,228.3,0,228.3,0
		c6.4,0,11.1-6.1,9.4-12.3c-9.7-34.7-41.5-60.2-79.2-60.2c-33.2,0-61.8,19.7-74.8,48c-1.3,2.9-4.3,4.8-7.5,4.8H101
		c-3.4,0-5.8-3.4-4.6-6.6c7-18.5,19.2-34.4,34.8-45.9c3.9-2.9,6.2-7.3,6.2-12.2V25.8c0-1.1-1.1-1.8-2.1-1.3
		c-26.7,14-47.5,37.7-57.9,66.4l0,0c0,0.1,0,0.1-0.1,0.2c-0.5,1.3-0.9,2.7-1.4,4c-2.1,5-4.7,7.1-9.3,7.6l-49.6-0.1
		c-0.8,0-1.4,0.6-1.4,1.4C15.7,113.9,23.5,122.1,33.3,122.3z M137.5,100.5c10.9-18.6,31.1-31.2,54.2-31.2
		c23.1,0,43.3,12.5,54.2,31.2c0.6,1-0.1,2.2-1.2,2.2H138.8C137.7,102.7,137,101.5,137.5,100.5z"/>
	
		<linearGradient id="SVGID_00000011742687858344828980000016384340945024346267_" gradientUnits="userSpaceOnUse" x1="-86.2236" y1="108.7927" x2="320.5206" y2="248.9382">
		<stop  offset="1.651384e-07" style="stop-color:#FFFFFF"/>
		<stop  offset="0.9994" style="stop-color:#E1E1E1"/>
	</linearGradient>
	<path style="fill:url(#SVGID_00000011742687858344828980000016384340945024346267_);" d="M46,142.2l-28.9,0c-0.8,0-1.4,0.6-1.4,1.4
		c0,10,8.1,18.1,18.1,18.1h20.1c0.2,0,0.5-0.1,0.6-0.2c-0.9-4.5-1.7-9.1-2.2-13.7C51.9,144.6,49.2,142.2,46,142.2z"/>
	
		<linearGradient id="SVGID_00000138569181517948168030000004309452050156616887_" gradientUnits="userSpaceOnUse" x1="-90.8159" y1="122.1211" x2="315.9283" y2="262.2666">
		<stop  offset="1.651384e-07" style="stop-color:#FFFFFF"/>
		<stop  offset="0.9994" style="stop-color:#E1E1E1"/>
	</linearGradient>
	<path style="fill:url(#SVGID_00000138569181517948168030000004309452050156616887_);" d="M137.3,238.5v-12.2c0-4.7-2.2-9.2-6-12
		c-20.2-15-34.7-37.2-39.6-62.8c-1-5.4-5.6-9.3-11.1-9.3h-8.3c-0.8,0-1.5,0.7-1.4,1.6c3.9,41.7,28.9,77.3,64.3,96.1
		C136.2,240.2,137.3,239.5,137.3,238.5z"/>
	
		<linearGradient id="SVGID_00000117656831292540045960000008593657167541781664_" gradientUnits="userSpaceOnUse" x1="-70.5755" y1="63.3773" x2="336.1687" y2="203.5228">
		<stop  offset="1.651384e-07" style="stop-color:#FFFFFF"/>
		<stop  offset="0.9994" style="stop-color:#E1E1E1"/>
	</linearGradient>
	<path style="fill:url(#SVGID_00000117656831292540045960000008593657167541781664_);" d="M350.1,142.1c0,0-228.1,0-228.1,0
		c-6.4,0-11.1,6.1-9.4,12.3c9.7,34.7,41.5,60.2,79.2,60.2c33.2,0,61.8-19.7,74.8-48c1.3-2.9,4.3-4.8,7.5-4.8h8.4
		c3.4,0,5.8,3.4,4.6,6.6c-7,18.5-19.2,34.4-34.8,45.9c-3.9,2.9-6.2,7.3-6.2,12.2v12.2c0,1.1,1.1,1.8,2.1,1.3
		c26.7-14,47.5-37.7,57.9-66.4l0,0c0-0.1,0-0.1,0.1-0.2c0.5-1.3,0.9-2.7,1.4-4c2.1-5,4.7-7.1,9.3-7.6l49.6,0.1
		c0.8,0,1.4-0.6,1.4-1.4C367.9,150.5,359.9,142.3,350.1,142.1z M246,163.9c-10.9,18.6-31.1,31.2-54.2,31.2
		c-23.1,0-43.3-12.5-54.2-31.2c-0.6-1,0.1-2.2,1.2-2.2h105.8C245.9,161.7,246.6,162.9,246,163.9z"/>
</g>
<g>
	
		<radialGradient id="SVGID_00000044166302985693285010000013734581210983680384_" cx="170.6261" cy="9.1402" r="221.0068" gradientUnits="userSpaceOnUse">
		<stop  offset="0" style="stop-color:#FAA719"/>
		<stop  offset="0.5667" style="stop-color:#F47A20"/>
		<stop  offset="0.9944" style="stop-color:#6C3393"/>
	</radialGradient>
	<path style="fill:url(#SVGID_00000044166302985693285010000013734581210983680384_);" d="M337.5,113.8l28.9,0
		c0.8,0,1.4-0.6,1.4-1.4c0-10-8.1-18.1-18.1-18.1h-20.1c-0.2,0-0.5,0.1-0.6,0.2c0.9,4.5,1.7,9.1,2.2,13.7
		C331.6,111.4,334.3,113.8,337.5,113.8z"/>
	
		<radialGradient id="SVGID_00000080918493179492041340000000855395563794675850_" cx="170.6261" cy="9.1402" r="221.0068" gradientUnits="userSpaceOnUse">
		<stop  offset="0" style="stop-color:#FAA719"/>
		<stop  offset="0.5667" style="stop-color:#F47A20"/>
		<stop  offset="0.9944" style="stop-color:#6C3393"/>
	</radialGradient>
	<path style="fill:url(#SVGID_00000080918493179492041340000000855395563794675850_);" d="M252.2,41.7c20.2,15,34.7,37.2,39.6,62.8
		c1,5.4,5.6,9.3,11.1,9.3h8.3c0.8,0,1.5-0.7,1.4-1.6c-3.9-41.7-28.9-77.3-64.3-96.1c-0.9-0.5-2.1,0.2-2.1,1.3v12.2
		C246.2,34.5,248.4,38.9,252.2,41.7z"/>
	
		<radialGradient id="SVGID_00000112590182156760811160000001157424536880181428_" cx="170.6261" cy="9.1402" r="221.0068" gradientUnits="userSpaceOnUse">
		<stop  offset="0" style="stop-color:#FAA719"/>
		<stop  offset="0.5667" style="stop-color:#F47A20"/>
		<stop  offset="0.9944" style="stop-color:#6C3393"/>
	</radialGradient>
	<path style="fill:url(#SVGID_00000112590182156760811160000001157424536880181428_);" d="M33.3,113.9c0,0,228.3,0,228.3,0
		c6.4,0,11.1-6.1,9.4-12.3c-9.7-34.7-41.5-60.2-79.2-60.2c-33.2,0-61.8,19.7-74.8,48c-1.3,2.9-4.3,4.8-7.5,4.8H101
		c-3.4,0-5.8-3.4-4.6-6.6c7-18.5,19.2-34.4,34.8-45.9c3.9-2.9,6.2-7.4,6.2-12.2V17.4c0-1.1-1.1-1.8-2.1-1.3
		c-26.7,14-47.5,37.7-57.9,66.4l0,0c0,0.1,0,0.1-0.1,0.2c-0.5,1.3-0.9,2.7-1.4,4c-2.1,5-4.7,7.1-9.3,7.6l-49.6-0.1
		c-0.8,0-1.4,0.6-1.4,1.4C15.7,105.5,23.5,113.6,33.3,113.9z M137.5,92.1c10.9-18.6,31.1-31.2,54.2-31.2c23.1,0,43.3,12.5,54.2,31.2
		c0.6,1-0.1,2.2-1.2,2.2H138.8C137.7,94.3,137,93.1,137.5,92.1z"/>
	
		<radialGradient id="SVGID_00000155866337055283563890000007256121987781959326_" cx="170.6261" cy="9.1402" r="221.0068" gradientUnits="userSpaceOnUse">
		<stop  offset="0" style="stop-color:#FAA719"/>
		<stop  offset="0.5667" style="stop-color:#F47A20"/>
		<stop  offset="0.9944" style="stop-color:#6C3393"/>
	</radialGradient>
	<path style="fill:url(#SVGID_00000155866337055283563890000007256121987781959326_);" d="M46,133.7l-28.9,0c-0.8,0-1.4,0.6-1.4,1.4
		c0,10,8.1,18.1,18.1,18.1h20.1c0.2,0,0.5-0.1,0.6-0.2c-0.9-4.5-1.7-9.1-2.2-13.7C51.9,136.1,49.2,133.7,46,133.7z"/>
	
		<radialGradient id="SVGID_00000011721914088611163280000002759988109293689015_" cx="170.6261" cy="9.1402" r="221.0068" gradientUnits="userSpaceOnUse">
		<stop  offset="0" style="stop-color:#FAA719"/>
		<stop  offset="0.5667" style="stop-color:#F47A20"/>
		<stop  offset="0.9944" style="stop-color:#6C3393"/>
	</radialGradient>
	<path style="fill:url(#SVGID_00000011721914088611163280000002759988109293689015_);" d="M137.3,230v-12.2c0-4.7-2.2-9.2-6-12
		c-20.2-15-34.7-37.2-39.6-62.8c-1-5.4-5.6-9.3-11.1-9.3h-8.3c-0.8,0-1.5,0.7-1.4,1.6c3.9,41.7,28.9,77.3,64.3,96.1
		C136.2,231.8,137.3,231.1,137.3,230z"/>
	
		<radialGradient id="SVGID_00000023247247761073120640000016504675843205568187_" cx="170.6261" cy="9.1402" r="221.0068" gradientUnits="userSpaceOnUse">
		<stop  offset="0" style="stop-color:#FAA719"/>
		<stop  offset="0.5667" style="stop-color:#F47A20"/>
		<stop  offset="0.9944" style="stop-color:#6C3393"/>
	</radialGradient>
	<path style="fill:url(#SVGID_00000023247247761073120640000016504675843205568187_);" d="M350.1,133.6c0,0-228.1,0-228.1,0
		c-6.4,0-11.1,6.1-9.4,12.3c9.7,34.7,41.5,60.2,79.2,60.2c33.2,0,61.8-19.7,74.8-48c1.3-2.9,4.3-4.8,7.5-4.8h8.4
		c3.4,0,5.8,3.4,4.6,6.6c-7,18.5-19.2,34.4-34.8,45.9c-3.9,2.9-6.2,7.3-6.2,12.2v12.2c0,1.1,1.1,1.8,2.1,1.3
		c26.7-14,47.5-37.7,57.9-66.4l0,0c0-0.1,0-0.1,0.1-0.2c0.5-1.3,0.9-2.7,1.4-4c2.1-5,4.7-7.1,9.3-7.6l49.6,0.1
		c0.8,0,1.4-0.6,1.4-1.4C367.9,142.1,359.9,133.9,350.1,133.6z M246,155.4c-10.9,18.6-31.1,31.2-54.2,31.2
		c-23.1,0-43.3-12.5-54.2-31.2c-0.6-1,0.1-2.2,1.2-2.2h105.8C245.9,153.3,246.6,154.5,246,155.4z"/>
</g>
<path class="st0" d="M244,324.3v-7.1c0-0.3,0.2-0.5,0.5-0.5H260c0.3,0,0.5-0.2,0.5-0.5v-3.8c0-1.2-0.9-2.1-2.1-2.1h-13.9
	c-0.3,0-0.5-0.2-0.5-0.5V303c0-0.3,0.2-0.5,0.5-0.5h17.6c0.3,0,0.5-0.2,0.5-0.5v-5.5c0-0.3-0.2-0.5-0.5-0.5h-25.8
	c-0.3,0-0.5,0.2-0.5,0.5V331c0,0.3,0.2,0.5,0.5,0.5h26.5c0.3,0,0.5-0.2,0.5-0.5v-5.5c0-0.3-0.2-0.5-0.5-0.5h-18.3
	C244.3,324.9,244,324.6,244,324.3z"/>
<path class="st0" d="M96.8,335c0.2,0.2,0.2,0.5,0,0.7c-2.3,2.6-5.6,4-9.3,4c-5.2,0-8.9-1.9-14.4-7.6c-0.1-0.1-0.2-0.1-0.3-0.2
	c-9.7-1.3-16.5-8.6-16.5-18.2c0-10.6,8.2-18.4,19.5-18.4c11.2,0,19.5,7.8,19.5,18.4c0,8-4.8,14.5-11.9,17.1
	c-0.4,0.1-0.5,0.6-0.2,0.9c1.5,1.4,2.8,1.9,4.4,1.9c2,0,3.8-0.7,5.4-2.2c0.2-0.2,0.6-0.2,0.8,0L96.8,335z M75.9,325.1
	c6.4,0,11.1-4.6,11.1-11.4c0-6.8-4.8-11.4-11.1-11.4s-11.1,4.6-11.1,11.4C64.7,320.5,69.5,325.1,75.9,325.1z"/>
<path class="st0" d="M110.8,315.8v-19.4c0-0.3,0.2-0.5,0.5-0.5h7.2c0.3,0,0.5,0.2,0.5,0.5v19.1c0,6.8,3,9.6,7.9,9.6
	c5,0,7.9-2.8,7.9-9.6v-17c0-1.4,1.2-2.6,2.6-2.6h5c0.3,0,0.5,0.2,0.5,0.5v19.4c0,10.5-6,16.3-16.1,16.3S110.8,326.3,110.8,315.8z"/>
<path class="st0" d="M159.9,295.9h5.1c1.4,0,2.6,1.1,2.6,2.6V331c0,0.3-0.2,0.5-0.5,0.5h-5c-1.5,0-2.7-1.2-2.7-2.7v-32.4
	C159.4,296.1,159.6,295.9,159.9,295.9z"/>
<path class="st0" d="M186.1,296.4c0-0.3,0.2-0.5,0.5-0.5h15.6c11.6,0,19.6,7,19.6,17.8s-8,17.8-19.6,17.8h-15.6
	c-0.3,0-0.5-0.2-0.5-0.5V296.4z M201.8,324.7c7.1,0,11.7-4.2,11.7-11s-4.6-11-11.7-11h-5c-1.4,0-2.5,1.1-2.5,2.5v19.6H201.8z"/>
<path class="st0" d="M277.5,315.8v-19.4c0-0.3,0.2-0.5,0.5-0.5h7.2c0.3,0,0.5,0.2,0.5,0.5v19.1c0,6.8,3,9.6,7.9,9.6
	c5,0,7.9-2.8,7.9-9.6v-17c0-1.4,1.2-2.6,2.6-2.6h5c0.3,0,0.5,0.2,0.5,0.5v19.4c0,10.5-6,16.3-16.1,16.3S277.5,326.3,277.5,315.8z"/>
<path class="st0" d="M359.3,331l0-18.9c0-0.6-0.7-0.8-1-0.3l-9.3,15.6c-0.1,0.2-0.3,0.3-0.5,0.3h-3.1c-0.2,0-0.4-0.1-0.5-0.3
	l-9.3-15.2c-0.3-0.5-1-0.3-1,0.3V331c0,0.3-0.2,0.5-0.5,0.5h-4.6c-1.5,0-2.6-1.2-2.6-2.6v-32.4c0-0.3,0.2-0.5,0.5-0.5h6
	c0.2,0,0.4,0.1,0.5,0.3l12.7,21.1c0.2,0.4,0.7,0.4,0.9,0l12.5-21.1c0.1-0.2,0.3-0.3,0.5-0.3h5.9c0.3,0,0.5,0.2,0.5,0.5L367,331
	c0,0.3-0.2,0.5-0.5,0.5h-6.6C359.6,331.5,359.3,331.3,359.3,331z"/>
<path class="st0" d="M23.3,324.3v-7.1c0-0.3,0.2-0.5,0.5-0.5h15.4c0.3,0,0.5-0.2,0.5-0.5v-3.8c0-1.2-0.9-2.1-2.1-2.1H23.8
	c-0.3,0-0.5-0.2-0.5-0.5V303c0-0.3,0.2-0.5,0.5-0.5h17.6c0.3,0,0.5-0.2,0.5-0.5v-5.5c0-0.3-0.2-0.5-0.5-0.5H15.6
	c-0.3,0-0.5,0.2-0.5,0.5V331c0,0.3,0.2,0.5,0.5,0.5h26.5c0.3,0,0.5-0.2,0.5-0.5v-5.5c0-0.3-0.2-0.5-0.5-0.5H23.8
	C23.5,324.9,23.3,324.6,23.3,324.3z"/>
<g>
	<path class="st13" d="M131.1,365.6c-0.6-0.1-1.5-0.1-2.4-0.1c-0.9,0-1.8,0-2.4,0.1c-0.5,0.1-0.6,0.2-0.6,0.7v6.4
		c0,0.2-0.1,0.3-0.4,0.4c-1.2,0.1-2.5,0.1-3.7,0.1c-1.2,0-2.5,0-3.7-0.1c-0.2,0-0.4-0.1-0.4-0.4v-6.4c0-0.4-0.1-0.6-0.6-0.7
		c-0.6-0.1-1.5-0.1-2.4-0.1c-0.9,0-1.8,0-2.4,0.1c-0.5,0.1-0.6,0.2-0.6,0.7v17.4c0,0.4,0.1,0.6,0.6,0.7c0.6,0.1,1.5,0.1,2.4,0.1
		c0.9,0,1.8,0,2.4-0.1c0.5-0.1,0.6-0.2,0.6-0.7v-6.6c0-0.3,0.1-0.4,0.4-0.4c1.4,0.1,2.6,0.2,3.7,0.2c1.1,0,2.3-0.1,3.7-0.2
		c0.2,0,0.4,0.1,0.4,0.4v6.6c0,0.4,0.1,0.6,0.6,0.7c0.6,0.1,1.5,0.1,2.4,0.1c0.9,0,1.8,0,2.4-0.1c0.5-0.1,0.6-0.2,0.6-0.7v-17.4
		C131.7,365.9,131.6,365.7,131.1,365.6z"/>
	<path class="st13" d="M160.5,380.6h-10.4c-0.2,0-0.4-0.1-0.4-0.4v-3c0-0.2,0.1-0.4,0.4-0.4h6.2c0.3,0,0.5,0,0.5-0.4
		c0.1-0.4,0.1-1,0.1-1.6s0-1.2-0.1-1.6c-0.1-0.3-0.2-0.4-0.5-0.4h-6.2c-0.2,0-0.4-0.1-0.4-0.4v-2.8c0-0.2,0.1-0.4,0.4-0.4h9.9
		c0.3,0,0.5,0,0.5-0.4c0.1-0.4,0.1-1,0.1-1.6c0-0.6,0-1.2-0.1-1.6c-0.1-0.3-0.2-0.4-0.5-0.4h-15.4c-0.7,0-0.9,0.1-0.9,0.9v17.1
		c0,0.8,0.3,0.9,0.9,0.9h15.8c0.3,0,0.5,0,0.5-0.4c0.1-0.4,0.1-1,0.1-1.6c0-0.6,0-1.2-0.1-1.6C160.9,380.6,160.7,380.6,160.5,380.6z
		"/>
	<path class="st13" d="M185.5,366.2c-0.2-0.5-0.5-0.7-1.2-0.7h-7.2c-0.7,0-1,0.1-1.2,0.7l-7,17.3c-0.2,0.5,0,0.7,0.4,0.8
		c0.6,0.1,1.5,0.2,2.5,0.2c0.9,0,1.8,0,2.5-0.1c0.4-0.1,0.6-0.2,0.8-0.8l1-2.9c0.1-0.3,0.2-0.4,0.6-0.3c1,0.1,2.5,0.2,4,0.2
		c1.5,0,2.9-0.1,4-0.2c0.3,0,0.5,0,0.6,0.3l1,2.9c0.2,0.6,0.3,0.7,0.8,0.8c0.6,0.1,1.6,0.1,2.5,0.1c1.1,0,2.2,0,2.7-0.2
		c0.4-0.1,0.6-0.3,0.5-0.8L185.5,366.2z M183.2,376.7c-0.5,0.1-1.6,0.1-2.6,0.1c-1,0-2.1,0-2.6-0.1c-0.4-0.1-0.5-0.2-0.4-0.5
		l2.4-6.4c0.1-0.2,0.2-0.3,0.4-0.3h0.3c0.2,0,0.3,0.1,0.4,0.3l2.4,6.4C183.7,376.5,183.6,376.7,183.2,376.7z"/>
	<path class="st13" d="M218,380.6h-9.4c-0.2,0-0.4-0.1-0.4-0.4v-13.9c0-0.4-0.1-0.6-0.6-0.7c-0.6-0.1-1.5-0.1-2.4-0.1
		c-0.9,0-1.8,0-2.4,0.1c-0.5,0.1-0.6,0.2-0.6,0.7v17.3c0,0.8,0.3,0.9,0.9,0.9H218c0.3,0,0.5,0,0.5-0.4c0.1-0.4,0.1-1,0.1-1.6
		c0-0.6,0-1.2-0.1-1.6C218.4,380.6,218.3,380.6,218,380.6z"/>
	<path class="st13" d="M241.8,365.6h-18.5c-0.3,0-0.5,0-0.5,0.4c-0.1,0.4-0.1,1-0.1,1.6s0,1.2,0.1,1.6c0.1,0.3,0.2,0.4,0.5,0.4h5.9
		c0.2,0,0.4,0.1,0.4,0.4v13.9c0,0.4,0.1,0.6,0.6,0.7c0.6,0.1,1.5,0.1,2.4,0.1c0.9,0,1.8,0,2.4-0.1c0.5-0.1,0.6-0.2,0.6-0.7v-13.9
		c0-0.2,0.1-0.4,0.4-0.4h5.9c0.3,0,0.5,0,0.5-0.4c0.1-0.4,0.1-1,0.1-1.6s0-1.2-0.1-1.6C242.3,365.6,242.1,365.6,241.8,365.6z"/>
	<path class="st13" d="M271.1,365.6c-0.6-0.1-1.5-0.1-2.4-0.1c-0.9,0-1.8,0-2.4,0.1c-0.5,0.1-0.6,0.2-0.6,0.7v6.4
		c0,0.2-0.1,0.3-0.4,0.4c-1.2,0.1-2.5,0.1-3.7,0.1c-1.2,0-2.5,0-3.7-0.1c-0.2,0-0.4-0.1-0.4-0.4v-6.4c0-0.4-0.1-0.6-0.6-0.7
		c-0.6-0.1-1.5-0.1-2.4-0.1c-0.9,0-1.8,0-2.4,0.1c-0.5,0.1-0.6,0.2-0.6,0.7v17.4c0,0.4,0.1,0.6,0.6,0.7c0.6,0.1,1.5,0.1,2.4,0.1
		c0.9,0,1.8,0,2.4-0.1c0.5-0.1,0.6-0.2,0.6-0.7v-6.6c0-0.3,0.1-0.4,0.4-0.4c1.4,0.1,2.6,0.2,3.7,0.2c1.1,0,2.3-0.1,3.7-0.2
		c0.2,0,0.4,0.1,0.4,0.4v6.6c0,0.4,0.1,0.6,0.6,0.7c0.6,0.1,1.5,0.1,2.4,0.1c0.9,0,1.8,0,2.4-0.1c0.5-0.1,0.6-0.2,0.6-0.7v-17.4
		C271.7,365.9,271.6,365.7,271.1,365.6z"/>
</g>
</svg>
