<svg xmlns="http://www.w3.org/2000/svg" viewBox="0 0 525.64 704.78"><defs><style>.cls-1{fill:#544e49;}</style></defs><title>rabbit-and-pork-brown-portrait</title><g id="Layer_2" data-name="Layer 2"><g id="Layer_1-2" data-name="Layer 1"><path class="cls-1" d="M130.73,647.8q5.29-5.41,8-8.53-3.94.42-6.65.73a43.43,43.43,0,0,1-5,.31,37.32,37.32,0,0,1-4.89-.31c-1.6-.21-3.23-.45-4.89-.73q-8.11,10.4-14.87,18.82l-2.12,2.64q-8.67-9.9-16.71-19.49T67.6,621q13.73-8.73,20.17-17a29.06,29.06,0,0,0,6.45-18.41,23.4,23.4,0,0,0-2.5-11,21.43,21.43,0,0,0-7.07-7.9,35,35,0,0,0-10.71-4.79,51.1,51.1,0,0,0-13.41-1.66A54.74,54.74,0,0,0,46.8,562a34.44,34.44,0,0,0-12.27,5.82,31.81,31.81,0,0,0-8.84,10.3q-3.44,6.23-3.44,15.39a35.19,35.19,0,0,0,4.27,16.74,159.87,159.87,0,0,0,10.92,17.37q-8.32,4.36-15.29,8.73a59.31,59.31,0,0,0-11.85,9.57,39.17,39.17,0,0,0-7.6,11.54A36.63,36.63,0,0,0,0,671.92a31.09,31.09,0,0,0,10,22.77,35.88,35.88,0,0,0,12.38,7.39,49.85,49.85,0,0,0,17.16,2.7,79.18,79.18,0,0,0,24.85-4.06A66.36,66.36,0,0,0,86.11,689l10,13.11q4.36-.21,8.63-.32t8.43-.1q5.82,0,11.85.1t13.73.32a95.23,95.23,0,0,1-7.59-7.07c-2.71-2.78-5.41-5.65-8.11-8.64s-5.38-5.92-8-8.84-4.85-5.43-7-8c3.42-3.28,8.45-7.26,11.77-10.65ZM53.45,573.44a15.2,15.2,0,0,1,10.4-3.85A14.75,14.75,0,0,1,74,573.75a14.17,14.17,0,0,1,4.58,11A25.67,25.67,0,0,1,77,593.92,40.78,40.78,0,0,1,72.8,602a43.7,43.7,0,0,1-5.41,6.66A52.19,52.19,0,0,1,62,613.47a115.19,115.19,0,0,1-9-14.87q-3.84-7.59-3.84-14Q49.09,577.29,53.45,573.44ZM70.2,687.62A34.89,34.89,0,0,1,58,689.81a29.77,29.77,0,0,1-12.69-2.61,31.08,31.08,0,0,1-9.57-6.75,28.51,28.51,0,0,1-7.9-19.56A23.45,23.45,0,0,1,32,647.06a50.83,50.83,0,0,1,11.44-11.33q8.94,11.85,18.2,23.19t18.61,22.77A30.75,30.75,0,0,1,70.2,687.62Z"/><path class="cls-1" d="M249.15,579.78a34.41,34.41,0,0,0-9.78-12.06q-4.78-4.17-13.1-6.35t-23.09-2.18q-7.49,0-15.29.52t-15.08.52c-3.46,0-6.58-.11-9.36-.31s-5.34-.45-7.69-.73q.83,13.51,1.25,26.93t.41,30.68v28.29q0,17.26-.41,30.68t-1.25,26.31a65.32,65.32,0,0,1,7.69-.42h18.72a65.49,65.49,0,0,1,7.7.42q-1.05-15.18-1.35-30.68t-.31-31.1h10.6a86.74,86.74,0,0,0,21.43-2.49,48.58,48.58,0,0,0,16.95-7.8,35.36,35.36,0,0,0,11.12-13.83q4-8.53,4-20.39A37.47,37.47,0,0,0,249.15,579.78Zm-32.66,35.36a23.49,23.49,0,0,1-7.49,9.25,25.63,25.63,0,0,1-10.08,4.27,58.1,58.1,0,0,1-10.71,1q0-14.57.1-29t.31-29.43a7.64,7.64,0,0,1,1.87-.21h6.87a24.73,24.73,0,0,1,8.42,1.46,17.81,17.81,0,0,1,7.07,4.68,22.89,22.89,0,0,1,4.79,8.63,43.58,43.58,0,0,1,1.76,13.31Q219.4,609.11,216.49,615.14Z"/><path class="cls-1" d="M299.65,599.33a54.21,54.21,0,0,0-19,3.43,45.68,45.68,0,0,0-16.33,10.4A51.33,51.33,0,0,0,253,630.53q-4.26,10.4-4.26,24.33t4.47,23.51a43.19,43.19,0,0,0,11.75,15.49,44.24,44.24,0,0,0,16.33,8.42,68.68,68.68,0,0,0,18.41,2.5,57.76,57.76,0,0,0,20.59-3.54,42.32,42.32,0,0,0,16.12-10.71,50.2,50.2,0,0,0,10.5-17.36,65.92,65.92,0,0,0,3.74-22.88q0-23.5-13.31-37.23T299.65,599.33Zm.21,96.71a14.93,14.93,0,0,1-9.68-3.11,22.42,22.42,0,0,1-6.24-8.64,49.87,49.87,0,0,1-3.43-13,118.71,118.71,0,0,1-1-16.22q0-23.91,5.51-35.15t15.08-11.23q10.62,0,15.19,10.09t4.57,28.39Q319.82,696,299.86,696Z"/><path class="cls-1" d="M422.61,600a26.82,26.82,0,0,0-18.3,6.76q-7.71,6.76-13.11,21.11l-.41-.41.62-25.38q-3.54.42-7.18.73t-7.17.31q-3.54,0-7.18-.31c-2.42-.21-4.82-.45-7.17-.73q1,11.24,1.35,22.36t.31,23.82v8.32q0,12.69-.31,23.92t-1.35,21.63a48.75,48.75,0,0,1,6.86-.42h17.58a45.33,45.33,0,0,1,6.76.42q-1.05-10.41-1.36-21.63t-.31-23.92v-8.32a21.14,21.14,0,0,1,5.41-14.46q5.4-6.13,14.77-6.13a19.67,19.67,0,0,1,5.93.83,21.93,21.93,0,0,1,4.67,2.08l1.88-1.67a28,28,0,0,1-.21-3.53V615.14q0-4.78.31-8.32a61,61,0,0,1,.94-6.66,10.86,10.86,0,0,1-1.56-.1A12.67,12.67,0,0,0,422.61,600Z"/><path class="cls-1" d="M515.14,684.29q-3.85-6.56-8.22-13.72t-8.32-13.52q-3.94-6.34-6.76-10.92c-1.87-3-3.09-5-3.64-5.83q2.3-2.49,7.28-7.69t10.61-10.92L517,610.56q5.29-5.4,8-8.53-4,.42-6.66.73a43.3,43.3,0,0,1-5,.31,37.32,37.32,0,0,1-4.89-.31c-1.59-.21-3.22-.45-4.89-.73q-8.1,10.41-14.87,18.83t-11.85,14.45q-5.1,6-8.32,9.26c-2.15,2.15-3.51,3.22-4.06,3.22a.84.84,0,0,1-.93-.83,35.66,35.66,0,0,1-.11-3.74q0-20,.11-34.43t.31-25.68q.19-11.24.52-20.18c0-.76.05-1.52.09-2.28a50.64,50.64,0,0,0-6.14-.32H440.76a54.15,54.15,0,0,0-6.22.32c.25,6.42.47,12.81.63,19.13q.4,17.06.41,37.44v13.52q0,20.38-.41,37.43t-1.25,33.91a67,67,0,0,1,7.48-.42h15a67.15,67.15,0,0,1,7.49.42,24.9,24.9,0,0,1-.73-4.79c-.21-2.35-.35-4.89-.42-7.59s-.14-5.37-.2-8-.11-4.85-.11-6.65V663.39a51.89,51.89,0,0,1,.31-7.7c.21-.83.59-1.24,1.15-1.24s1.59,1,3.12,3.12,3.25,4.75,5.2,8,4,6.84,6.13,10.72,4.23,7.59,6.24,11.12,3.81,6.69,5.41,9.47a31,31,0,0,0,3.43,5.2,73.64,73.64,0,0,1,7.8-.42h16.12c2.63,0,5.41.14,8.32.42-.56-1-1.8-3.09-3.74-6.35S517.7,688.66,515.14,684.29Z"/><path class="cls-1" d="M1.25,511.78Q.83,525.21,0,538.09a65.6,65.6,0,0,1,7.7-.41H26.41a65.6,65.6,0,0,1,7.7.41q-.84-12.89-1.25-26.31t-.42-30.68v-8.52h1.88l37.23,65.51c3.19-.28,6.34-.41,9.46-.41H99.83c3,0,6.17.13,9.36.41q-11.43-17.25-22.87-34.84T64.89,468q15.6-3.94,23.92-13.52t8.32-24.75a32.2,32.2,0,0,0-13.52-27.45,36.1,36.1,0,0,0-5.72-3.23,33.92,33.92,0,0,0-7.07-2.18,78.62,78.62,0,0,0-9.67-1.25q-5.62-.42-13.52-.42-10.6,0-17.78.52t-12.79.52q-5.2,0-9.36-.31c-2.78-.21-5.34-.45-7.7-.73q.83,13.53,1.25,26.94t.41,30.68V481.1Q1.66,498.37,1.25,511.78ZM33.07,407.06a111.88,111.88,0,0,1,14.66.83,21.75,21.75,0,0,1,10,3.64,16.5,16.5,0,0,1,5.72,8.22q1.86,5.4,1.87,14.56,0,15-7.28,22.35t-21,7.39a20.8,20.8,0,0,1-2.18-.11c-.77-.06-1.56-.17-2.4-.31Q32.44,435.35,33.07,407.06Z"/><path class="cls-1" d="M166.76,526.24a23,23,0,0,0,7.29,10.81q4.77,3.75,12.47,3.75a31.13,31.13,0,0,0,8.95-1.25q4.16-1.24,10.19-3.75v-5a32.17,32.17,0,0,1-5.51-.41,6.91,6.91,0,0,1-3.85-1.88,9.06,9.06,0,0,1-2.18-4.26,32.31,32.31,0,0,1-.73-7.8q0-11.24.31-22.57t.31-24.64a38.84,38.84,0,0,0-2.81-15.6,26.74,26.74,0,0,0-7.9-10.5,32.74,32.74,0,0,0-12.06-5.93A58.82,58.82,0,0,0,156,435.35a57.22,57.22,0,0,0-20.07,3.74,66.49,66.49,0,0,0-18.82,10.82l2.7,12.47h1.46a15.64,15.64,0,0,1,4.26-4.26,45.3,45.3,0,0,1,6.24-3.64,37.43,37.43,0,0,1,7.17-2.6,30.24,30.24,0,0,1,7.29-.93q9.34,0,14.66,5.3a17.46,17.46,0,0,1,5.3,12.79,12.61,12.61,0,0,1-.73,4.58,7.51,7.51,0,0,1-3.22,3.43,33.53,33.53,0,0,1-7.59,3.12q-5.1,1.56-13.83,3.64a78.3,78.3,0,0,0-12.69,4.05,36,36,0,0,0-9.67,5.93,23.84,23.84,0,0,0-6.24,8.53A29.35,29.35,0,0,0,110,514.17a30.42,30.42,0,0,0,1.67,9.88,23.63,23.63,0,0,0,5.3,8.74,23.93,23.93,0,0,0,9.26,5.93,39.17,39.17,0,0,0,13.52,2.08q9.56,0,15.91-4A39.16,39.16,0,0,0,166.76,526.24Zm-15.8.83a10.44,10.44,0,0,1-8.63-4.06q-3.22-4.05-3.23-11.75,0-7.9,2.6-12.06a19.4,19.4,0,0,1,6.66-6.55,43.23,43.23,0,0,1,8.94-3.95,48.87,48.87,0,0,0,9.26-4.06q0,3.54-.11,8.21t-.1,13.63q0,10.18-4.26,15.39A13.72,13.72,0,0,1,151,527.07Z"/><path class="cls-1" d="M215,504.29q-.42,17.16-1.25,34.63h5q4.58-2.91,9.05-6.24a88.74,88.74,0,0,1,8.84-5.82A33.57,33.57,0,0,0,247.88,537q6.87,3.84,16.85,3.85a53,53,0,0,0,16.43-2.71,38.19,38.19,0,0,0,15.08-9.36,49.79,49.79,0,0,0,11-17.36q4.26-10.71,4.27-26.31a63.14,63.14,0,0,0-2.92-19.45,49,49,0,0,0-8.21-15.7,40.54,40.54,0,0,0-12.69-10.61,34.11,34.11,0,0,0-16.33-3.95,31.11,31.11,0,0,0-16.74,4.57,27.13,27.13,0,0,0-10.92,13.31h-.41q0-20.37.41-37.43T245,381.27q-2.7.42-6.86.73c-2.78.2-5.69.31-8.74.31s-6-.11-8.73-.31-5.07-.45-6.87-.73q.82,17.48,1.25,34.53t.42,37.43v13.52Q215.44,487.14,215,504.29ZM244.66,470a42.62,42.62,0,0,1,4-12.69,16.74,16.74,0,0,1,6.24-7,15.89,15.89,0,0,1,8-2.08q17.88,0,17.88,36.19,0,25.38-5.3,36.5t-14.25,11.13a12.42,12.42,0,0,1-9-3.33,22.48,22.48,0,0,1-5.41-9A58.63,58.63,0,0,1,244,506.06q-.72-7.9-.72-17.05A112.75,112.75,0,0,1,244.66,470Z"/><path class="cls-1" d="M391.56,538.09a38.12,38.12,0,0,0,15.08-9.36,49.65,49.65,0,0,0,11-17.36q4.26-10.71,4.27-26.31A63.14,63.14,0,0,0,419,465.61a49,49,0,0,0-8.22-15.7,40.54,40.54,0,0,0-12.69-10.61,34.07,34.07,0,0,0-16.32-3.95A31.15,31.15,0,0,0,365,439.92a27.13,27.13,0,0,0-10.92,13.31h-.41q0-20.37.41-37.43t1.25-34.53q-2.7.42-6.86.73c-2.78.2-5.69.31-8.74.31s-6-.11-8.73-.31-5.07-.45-6.87-.73q.82,17.48,1.25,34.53t.42,37.43v13.52q0,20.38-.42,37.54t-1.25,34.63h5q4.57-2.91,9-6.24a88.74,88.74,0,0,1,8.84-5.82A33.57,33.57,0,0,0,358.28,537q6.87,3.84,16.85,3.85A53,53,0,0,0,391.56,538.09Zm-29-9.36a22.48,22.48,0,0,1-5.41-9,58.63,58.63,0,0,1-2.71-13.63q-.72-7.9-.72-17.05a113.81,113.81,0,0,1,1.35-19A42.62,42.62,0,0,1,359,457.29a16.74,16.74,0,0,1,6.24-7,15.92,15.92,0,0,1,8-2.08q17.88,0,17.88,36.19,0,25.38-5.3,36.5t-14.25,11.13A12.42,12.42,0,0,1,362.55,528.73Z"/><path class="cls-1" d="M51.21,191.69c7.83,9.51,13.7,22.71,14,34.87.32,14-8.9,26.36-17.94,38.14a106.19,106.19,0,0,0-14,24.79,11.51,11.51,0,1,0-7.82,19.95,11.57,11.57,0,0,0,2.84-.37c-1.43,15.71,4.73,29.43,26,33.1,19.79,3.42,42.93-3.43,63-4.51,16.85-.92,49.56-.17,47.43-.3-7.13-11.55-23.63-6.78-34-11.52C120,321,117.43,313.44,114,303.15c.11.09-2.57-8.71-3.23-11.26a151.1,151.1,0,0,1-4.88-38.79c.8,0,14,28.92,18.68,15.16,1.32-3.86-8.57-16.13-10.06-19.76a38.62,38.62,0,0,1-3.24-18.57c.69-7.69,3.57-14.9,7.09-21.61,2.55-4.87,9-14.27,5-19.11-1.91-2.34-9.42-6.25-12.32-8.54-7.59-6-11.5-4.44-20.46-3.94-13.79.76-22.7-1.12-30.68-12.81-6.79-9.93-10-22-15.44-32.2-3-5.52-10.47-14.32-9-.47,1.71,16.47,9.15,31.63,20.21,43.79-2.18,2.29-24.15-25-25.39-26.27-6.1-6.09-36.82-24.84-26.55-3.15C13.21,165.82,38.55,176.33,51.21,191.69Z"/><path class="cls-1" d="M144.51,164.06s0,.05,0,.07c.72,6.72,5.87,16.21,12,15.15,4.4-.77,5.5-1,6.41,2.5.84,3.2,4.6,5.43,8.84,7.17,6.67,2.72,13.47,1.79,20.52,1.93,7.75.17,15.52-.34,23.27,0,9,.35,17.6,1.28,26.6-.11,7.59-1.18,14.93-2.81,21.53-6.84,5.14-3.12,10-6.92,15.47-9.52-7.17,9.9-14.59,20.1-23.78,28.26-4.23,3.73-9,6.76-12.94,10.81-11.14,11.41-18,26-21.71,41.4a79.15,79.15,0,0,0-2.06,27.29c.53,4.89,1,9.8,0,14.34a.85.85,0,0,1,0,.17c-.05.19-.08.37-.12.56,0,0,0,0,0,.06a4.37,4.37,0,0,1-.12.49c-.11.42-.24.85-.38,1.26-.05.18-.12.37-.18.54-.17.48-.37.95-.58,1.41l-.74,1.44c-.13.24-.28.47-.43.71l-.3.45v0c-.17.46-.36.91-.57,1.36l-1,1.88-.16.29c-.31.48-.6.94-.92,1.39s-.5.65-.76,1-.31.37-.47.55-.25.31-.39.45l-.33.33c-2.88,2.93-5.83,5.5-8.26,8.82-.16.23-.33.46-.49.7l-.35.49c-.19.26-.36.51-.55.76-2,2.77-1.83,2.89-5.05,4.05-4.94,1.78-9.14,3.44-9.14,3.44s-7.59,5.15-7.59,8.29H218c1.66-2.34,3.16-4.75,4.84-7,.26,0,2.88,3.51,3.3,3.77,1.69,1.09,2.21,1.45,4,1.45,1.49,0,3.77-1.29,5.1-1.93l0,0,.88-.34c1.16-.44,1.55-.49,3.21.31l2.09,1h0c.64.24,19.83,7.55,41.18,8.63q2.59.15,5.22.15c23.69,0,29.35-6,60.88-6s48.31,6,71.64,6c22.61,0,35.16-11.3,35.92-12l0,0a38.49,38.49,0,0,0,8.69-10.08c.64-1,4.07-7.16,6.24-9.27a2.84,2.84,0,0,1,2.38-.32.41.41,0,0,0,.31,0l0,.07a27.87,27.87,0,0,0,7.62,7.57c2.76,1.85,5.36,4.05,8.62,4.53,6.4.93,12.36-1.49,15.78-6.6a31.46,31.46,0,0,0,3.65-7.4,13.06,13.06,0,0,0,.82-3.69,7.23,7.23,0,0,0,4.72-2.31c2.46-2.5,4.83-6.48,2.48-7.88-1.57-.93-3,1.09-3.29,1.56a8.33,8.33,0,0,1-3.28,3.4c.38-5.82-.36-12.92-5.48-16.81a9.89,9.89,0,0,0-12.46.53,12.29,12.29,0,0,0-2.89,12.72c2.07,5.47,8.35,9.26,14,9.09-1.28,4.69-4.3,8.64-9.55,9-4.52.29-8.27-3-10.7-6.45-3.23-4.61-4.83-10.2-5.59-15.72v0c0-.58,0-1.22-.11-2-.19-2.39-.27-4.81-.27-7.22,0-8.14,1.06-16.2,1.51-24.31a358.24,358.24,0,0,0-1-47.59c-2.48-31.86-7.88-63.8-17.39-94.36C454.22,95,444.77,71.61,430.52,52.33A146.38,146.38,0,0,0,412,32.11c-6.28-5.78-12.72-11.66-19.75-16.49A86.91,86.91,0,0,0,345.8,0a111.3,111.3,0,0,0-51,11.21,98.61,98.61,0,0,0-18.48,10.9c-4.57,3.58-9,7.4-13.6,10.9-4.26,3.22-9,6.84-14.18,8.27-5.39,1.49-8.27-2.19-10.47-6.72-1.43-3-2.58-6.15-4.53-8.87-2.26-3.14-5.24-4.25-8.79-5.44A12.06,12.06,0,0,1,220.22,18a19.46,19.46,0,0,0-3.74-3.23c-2.61-1.53-3.49-1-3.66,1.85-.22,3.61,1.94,13.05-1.89,16a2.2,2.2,0,0,1-.32.21,1.59,1.59,0,0,1-.34.18.15.15,0,0,1-.09.06l-.06,0a1.4,1.4,0,0,1-.37.14,2.85,2.85,0,0,1-.46.12c-2.73.55-6.1-1.52-8.18-2.76-.82-.49-2.12-1.32-2.89-1.87-.49-.34-1-.69-1.45-1l-1-.73c-1.83-1.38-3.62-2.85-5.41-4.29-.31-.24-.79-.65-1.41-1.14l-.36-.29-.62-.48a42,42,0,0,0-5.24-3.65c-.17-.12-.36-.22-.53-.32a7.73,7.73,0,0,0-.75-.4c-.31-.16-.61-.29-.9-.42s-.41-.15-.62-.23c-2.18-.72-3.8-.29-3.73,2.68.11,4.09,1.59,8.43,2.4,12.44a42.24,42.24,0,0,0,2.89,9.48c3.37,7.12,9.87,12.3,12.36,19.9a21.67,21.67,0,0,1,1,7.89,4.53,4.53,0,0,1,0,.52,26,26,0,0,1-.54,3.52c-2.13,9.67-7.72,18.47-7.76,28.57a.41.41,0,0,1,0-.11c-.09,3.66.37,7.34.37,11,0,.76,0,1.51-.08,2.27,0,.34,0,.68-.07,1-1,10.31-6.8,20-14.9,26.36-5.95,4.69-9.33,8.05-17.73,9.61-2,.37-6.57-.83-9.42-.31-2.53.46-.62,9.71-.24,13.3A1.79,1.79,0,0,0,144.51,164.06Zm359,137.69a9.17,9.17,0,0,1-2.24-.7,22.88,22.88,0,0,1-2.82-1.72c-2.72-1.91-4.28-9.5.19-10.91,3.23-1,5.69,3,6.19,7.07a55.18,55.18,0,0,1,.13,6.34S504.83,301.93,503.52,301.75Z"/><path class="cls-1" d="M525.64,527.54h0c-.31.18-.62.34-.94.49a18.55,18.55,0,0,1-1.87.78c-.31.11-.63.21-.94.29a23.46,23.46,0,0,1-5.82.52,12,12,0,0,1-5.83-1.25,8.19,8.19,0,0,1-3.53-4.78,41.43,41.43,0,0,1-1.77-10.2q-.53-6.66-.52-17.47,0-4.17.1-10.2t.21-12.48q.11-6.45.42-12.69c.2-4.17.44-7.84.72-11l18.31.41h0a21.59,21.59,0,0,1-.62-5.2c0-.4,0-.81,0-1.24v-.05c0-.39.06-.8.11-1.22a.66.66,0,0,1,0-.14c0-.43.1-.86.17-1.31s.18-1.09.29-1.66h0a1.84,1.84,0,0,1-.41.07l-.31,0-.52,0-.47,0c-1.62.08-4.25.14-7.45.19h-1l-1.31,0-4.15.05h-.87l-1.74,0c.05-.73.11-1.72.15-2.43q.31-4.49.73-7.81l-.79-.56-1.29-.89c-3.18,3.27-8.76,5.64-15.5,7.37-10,2.56-25.94,3.81-37,4.23l-1.34,0H444.4c-3.61-.08-7.15-.19-10.41-.33l-1.07-.05c-1.35-.06-2.65-.13-3.87-.21l-1.39-.09-.64-.05q-4-.32-6.87-.73h0c.25,2.67.46,5.35.65,8l0,.37c.08,1.23.16,2.45.23,3.68h6.78l7-.05c.2,3.46.34,6.91.44,10.36q.31,11.13.32,23.81v8.34q0,12.69-.32,23.91t-1.33,21.39h0q2-.15,4.44-.15h20q2.4,0,4.32.15c.89.06,1.7.16,2.44.27h0q-1-10.39-1.35-21.65t-.31-23.91v-8.34q0-12.67.31-23.81c.1-3.44.25-6.87.45-10.31l3.64-.06,9.33-.14H478q0,6.57-.21,14.27T477.26,480q-.3,8-.52,15.6t-.2,13.63q0,31.63,26.42,31.63h0a54.08,54.08,0,0,0,12.28-1.46,57.54,57.54,0,0,0,10.4-3.33v-8.53Z"/><path class="cls-1" d="M449.49,389.2A15.84,15.84,0,0,0,437.84,394a16.17,16.17,0,0,0-3.68,5.5,16.72,16.72,0,0,0-1.11,6.15,16.48,16.48,0,0,0,28.09,11.65,18.3,18.3,0,0,0,1.26-1.4,16.44,16.44,0,0,0-12.91-26.69Z"/></g></g></svg>