<svg xmlns="http://www.w3.org/2000/svg" xmlns:xlink="http://www.w3.org/1999/xlink" width="302.337" height="38.925" viewBox="0 0 302.337 38.925">
  <defs>
    <linearGradient id="linear-gradient" y1="6.558" x2="1" y2="6.558" gradientUnits="objectBoundingBox">
      <stop offset="0" stop-color="#f0218c"/>
      <stop offset="0.1" stop-color="#f12985"/>
      <stop offset="0.25" stop-color="#f33e73"/>
      <stop offset="0.44" stop-color="#f66055"/>
      <stop offset="0.65" stop-color="#fb902b"/>
      <stop offset="0.79" stop-color="#ffb40b"/>
    </linearGradient>
    <linearGradient id="linear-gradient-2" x1="0" y1="0.5" x2="1" y2="0.5" xlink:href="#linear-gradient"/>
    <linearGradient id="linear-gradient-3" y1="0.5" x2="1" y2="0.5" gradientUnits="objectBoundingBox">
      <stop offset="0" stop-color="#5a4bff"/>
      <stop offset="0.12" stop-color="#6249f9"/>
      <stop offset="0.31" stop-color="#7743e9"/>
      <stop offset="0.55" stop-color="#9939cf"/>
      <stop offset="0.81" stop-color="#c92caa"/>
      <stop offset="1" stop-color="#f0218c"/>
    </linearGradient>
  </defs>
  <g id="rs.ai-blk" style="isolation: isolate">
    <g id="Layer_2" data-name="Layer 2" transform="translate(0 0)">
      <g id="LOGO">
        <g id="Layer_5" data-name="Layer 5">
          <path id="Path_14560" data-name="Path 14560" d="M0,42.717H5.194v3.747A14.768,14.768,0,0,1,5.109,48h.085c.978-3.107,3.576-5.577,6.9-5.577a6.169,6.169,0,0,1,.978.085v5.321a9.306,9.306,0,0,0-1.277-.085A6.147,6.147,0,0,0,5.876,52.3a11.628,11.628,0,0,0-.469,3.533v8.6H0Z" transform="translate(0 -34.02)"/>
          <path id="Path_14561" data-name="Path 14561" d="M78.082,41.34c6.26,0,9.622,4.555,9.622,10.3,0,.64-.127,2.087-.127,2.087H72.585A6.173,6.173,0,0,0,79.1,59.468a10.75,10.75,0,0,0,6.26-2.376l2.085,3.873a13.564,13.564,0,0,1-8.727,3.109c-7.2,0-11.666-5.194-11.666-11.367C67.056,46.025,71.611,41.34,78.082,41.34Zm4.173,8.686c-.085-2.937-1.915-4.513-4.3-4.513a5.054,5.054,0,0,0-5.194,4.513Z" transform="translate(-53.772 -33.153)"/>
          <path id="Path_14562" data-name="Path 14562" d="M187.858,49.94h.725v-.3c0-2.854-1.782-3.832-4.173-3.832A11.62,11.62,0,0,0,178.45,47.9l-2.044-3.873a14.655,14.655,0,0,1,8.515-2.683c5.705,0,9.026,3.151,9.026,8.644V63.565h-4.982V61.783a13.773,13.773,0,0,1,.085-1.533h-.085a7.023,7.023,0,0,1-6.6,3.832c-3.875,0-7.367-2.426-7.367-6.769C175,50.41,184.325,49.94,187.858,49.94Zm-4.129,9.921c2.852,0,4.9-3.066,4.9-5.705v-.511h-.937c-2.772,0-7.238.382-7.238,3.406,0,1.45,1.065,2.81,3.279,2.81Z" transform="translate(-140.345 -33.153)"/>
          <path id="Path_14563" data-name="Path 14563" d="M291.694,8.924c4.769,0,6.26,2.772,6.26,2.772h.085S298,11.142,298,10.461V.92H303.4V31.149h-5.109V29.367a10.967,10.967,0,0,1,.085-1.4h-.085a7.542,7.542,0,0,1-6.812,3.7c-5.876,0-9.622-4.64-9.622-11.367C281.86,13.4,285.947,8.924,291.694,8.924Zm1.022,18.181c2.81,0,5.45-2.044,5.45-6.856,0-3.367-1.782-6.684-5.406-6.684-2.97,0-5.45,2.426-5.45,6.733C287.31,24.422,289.524,27.106,292.716,27.106Z" transform="translate(-226.043 -0.738)"/>
          <path id="Path_14564" data-name="Path 14564" d="M404.3,57.061a9.069,9.069,0,0,0,5.917,2.376c1.533,0,2.854-.681,2.854-1.959,0-3.236-10.559-2.81-10.559-9.793,0-4.044,3.618-6.386,8.3-6.386,4.9,0,7.282,2.469,7.282,2.469l-2,4.006a8.242,8.242,0,0,0-5.317-1.869c-1.406,0-2.772.594-2.772,1.959,0,3.066,10.559,2.683,10.559,9.666,0,3.618-3.151,6.513-8.3,6.513a12.146,12.146,0,0,1-8.43-3.192Z" transform="translate(-322.256 -33.121)"/>
          <path id="Path_14565" data-name="Path 14565" d="M498.58,41.851h4.939v1.584a13.445,13.445,0,0,1-.085,1.489h.085A7.773,7.773,0,0,1,510.5,41.34c5.876,0,9.622,4.642,9.622,11.369,0,6.9-4.214,11.367-9.919,11.367a7.493,7.493,0,0,1-6.216-2.98H503.9s.085.766.085,1.873v9.109H498.58Zm10.642,17.67c2.982,0,5.45-2.428,5.45-6.733,0-4.131-2.214-6.812-5.406-6.812-2.81.006-5.454,2.05-5.454,6.86C503.812,56.2,505.648,59.521,509.222,59.521Z" transform="translate(-399.846 -33.153)"/>
          <path id="Path_14566" data-name="Path 14566" d="M623.548,41.34c6.258,0,9.622,4.555,9.622,10.3,0,.64-.129,2.087-.129,2.087H618.055a6.175,6.175,0,0,0,6.515,5.743,10.741,10.741,0,0,0,6.258-2.376l2.087,3.873a13.566,13.566,0,0,1-8.729,3.109c-7.194,0-11.666-5.194-11.666-11.367C612.52,46.025,617.077,41.34,623.548,41.34Zm4.172,8.686c-.085-2.937-1.917-4.513-4.3-4.513a5.054,5.054,0,0,0-5.194,4.513Z" transform="translate(-491.222 -33.153)"/>
          <path id="Path_14567" data-name="Path 14567" d="M733.332,49.94h.717v-.3c0-2.854-1.782-3.832-4.174-3.832a11.618,11.618,0,0,0-5.959,2.085l-2.038-3.873a14.654,14.654,0,0,1,8.515-2.683c5.707,0,9.026,3.151,9.026,8.644V63.565h-4.974V61.783a13.784,13.784,0,0,1,.085-1.533h-.085a7.027,7.027,0,0,1-6.6,3.832c-3.874,0-7.365-2.426-7.365-6.769C720.474,50.41,729.8,49.94,733.332,49.94ZM729.2,59.862c2.852,0,4.9-3.066,4.9-5.705v-.511h-.937c-2.772,0-7.238.382-7.238,3.406C725.93,58.5,726.989,59.862,729.2,59.862Z" transform="translate(-577.803 -33.153)"/>
          <path id="Path_14568" data-name="Path 14568" d="M834.83.92h5.406V17.1h2.683l5.236-7.664h6l-6.856,9.7v.085l7.707,11.921H848.8l-5.743-9.494h-2.816v9.494H834.83Z" transform="translate(-669.508 -0.738)"/>
          <path id="Path_14569" data-name="Path 14569" d="M945.4,41.34c6.258,0,9.622,4.555,9.622,10.3,0,.64-.129,2.087-.129,2.087H939.905a6.175,6.175,0,0,0,6.515,5.743,10.742,10.742,0,0,0,6.258-2.376l2.087,3.873a13.566,13.566,0,0,1-8.729,3.109c-7.194,0-11.666-5.194-11.666-11.367C934.37,46.025,938.927,41.34,945.4,41.34Zm4.172,8.686c-.085-2.937-1.917-4.513-4.3-4.513a5.054,5.054,0,0,0-5.194,4.513Z" transform="translate(-749.337 -33.153)"/>
          <path id="Path_14570" data-name="Path 14570" d="M1051.54,42.717h5.194v3.747a14.781,14.781,0,0,1-.085,1.533h.085c.99-3.107,3.576-5.577,6.9-5.577a6.209,6.209,0,0,1,.99.085v5.321a9.345,9.345,0,0,0-1.277-.085,6.149,6.149,0,0,0-5.919,4.555,11.636,11.636,0,0,0-.468,3.533v8.6h-5.408Z" transform="translate(-843.303 -34.02)"/>
          <path id="Path_14571" data-name="Path 14571" d="M1168.028,49.94h.725v-.3c0-2.854-1.782-3.832-4.172-3.832a11.619,11.619,0,0,0-5.961,2.085l-2.044-3.873a14.655,14.655,0,0,1,8.515-2.683c5.705,0,9.026,3.151,9.026,8.644V63.565h-4.982V61.783a13.74,13.74,0,0,1,.085-1.533h-.085a7.023,7.023,0,0,1-6.6,3.832c-3.875,0-7.367-2.426-7.367-6.769C1155.17,50.41,1164.5,49.94,1168.028,49.94Zm-4.129,9.921c2.852,0,4.9-3.066,4.9-5.705v-.511h-.937c-2.772,0-7.238.382-7.238,3.406C1160.62,58.5,1161.685,59.862,1163.9,59.862Z" transform="translate(-926.412 -33.153)"/>
          <path id="Path_14572" data-name="Path 14572" d="M1269.55,43.92h5.408V65.634h-5.408Z" transform="translate(-1018.141 -35.223)"/>
          <path id="Path_14573" data-name="Path 14573" d="M1375.056,78.8,1353.94,66.42v5.824l21.116,12.379Z" transform="translate(-1085.819 -53.267)" fill="url(#linear-gradient)"/>
          <path id="Path_14574" data-name="Path 14574" d="M1353.94,81.09l7.281-1.456-2.913-2.184Z" transform="translate(-1085.819 -62.113)" fill="#4e4e4e" style="mix-blend-mode: difference;isolation: isolate"/>
          <path id="Path_14575" data-name="Path 14575" d="M1375.056,9.736,1353.94,22.113V16.289L1375.056,3.91Z" transform="translate(-1085.819 -3.136)" fill="url(#linear-gradient-2)"/>
          <circle id="Ellipse_106" data-name="Ellipse 106" cx="5.093" cy="5.093" r="5.093" transform="translate(292.15 10.969)" fill="url(#linear-gradient-3)"/>
          <circle id="Ellipse_107" data-name="Ellipse 107" cx="2.703" cy="2.703" r="2.703" transform="translate(251.409)"/>
          <circle id="Ellipse_108" data-name="Ellipse 108" cx="2.703" cy="2.703" r="2.703" transform="translate(221.352 25.005)"/>
        </g>
      </g>
    </g>
  </g>
</svg>
