<?xml version="1.0" encoding="UTF-8" standalone="no"?>
<!DOCTYPE svg PUBLIC "-//W3C//DTD SVG 1.1//EN" "http://www.w3.org/Graphics/SVG/1.1/DTD/svg11.dtd">
<svg width="100%" height="100%" viewBox="0 0 1000 150" version="1.1" xmlns="http://www.w3.org/2000/svg" xmlns:xlink="http://www.w3.org/1999/xlink" xml:space="preserve" xmlns:serif="http://www.serif.com/" style="fill-rule:evenodd;clip-rule:evenodd;stroke-linejoin:round;stroke-miterlimit:2;">
    <g transform="matrix(1,0,0,1,-300,-375)">
        <g transform="matrix(1.03288,0,0,1.66668,-7903.11,-437.125)">
            <g transform="matrix(3.29958,0,0,2.04481,6131.93,-1976.16)">
                <g transform="matrix(33.5934,0,0,33.5934,632.174,1238.9)">
                    <path d="M0.418,0.01C0.347,0.01 0.284,-0.005 0.227,-0.037C0.17,-0.068 0.125,-0.11 0.093,-0.165C0.06,-0.22 0.044,-0.281 0.044,-0.35C0.044,-0.419 0.06,-0.48 0.093,-0.535C0.126,-0.59 0.171,-0.632 0.228,-0.664C0.285,-0.695 0.348,-0.71 0.419,-0.71C0.476,-0.71 0.529,-0.7 0.576,-0.68C0.623,-0.66 0.663,-0.631 0.696,-0.593L0.612,-0.514C0.561,-0.569 0.499,-0.596 0.425,-0.596C0.377,-0.596 0.334,-0.586 0.296,-0.565C0.258,-0.544 0.228,-0.514 0.207,-0.477C0.186,-0.44 0.175,-0.397 0.175,-0.35C0.175,-0.303 0.186,-0.26 0.207,-0.223C0.228,-0.186 0.258,-0.157 0.296,-0.136C0.334,-0.115 0.377,-0.104 0.425,-0.104C0.499,-0.104 0.561,-0.132 0.612,-0.187L0.696,-0.107C0.663,-0.069 0.623,-0.04 0.576,-0.02C0.528,0 0.475,0.01 0.418,0.01Z" style="fill-rule:nonzero;"/>
                </g>
                <g transform="matrix(33.5934,0,0,33.5934,655.521,1238.9)">
                    <path d="M0.322,0.007C0.268,0.007 0.219,-0.005 0.176,-0.028C0.133,-0.051 0.099,-0.084 0.075,-0.126C0.05,-0.167 0.038,-0.214 0.038,-0.267C0.038,-0.32 0.05,-0.367 0.075,-0.408C0.099,-0.449 0.133,-0.482 0.176,-0.505C0.219,-0.528 0.268,-0.54 0.322,-0.54C0.377,-0.54 0.426,-0.528 0.469,-0.505C0.512,-0.482 0.546,-0.449 0.571,-0.408C0.595,-0.367 0.607,-0.32 0.607,-0.267C0.607,-0.214 0.595,-0.167 0.571,-0.126C0.546,-0.084 0.512,-0.051 0.469,-0.028C0.426,-0.005 0.377,0.007 0.322,0.007ZM0.322,-0.1C0.368,-0.1 0.406,-0.115 0.436,-0.146C0.466,-0.177 0.481,-0.217 0.481,-0.267C0.481,-0.317 0.466,-0.357 0.436,-0.388C0.406,-0.419 0.368,-0.434 0.322,-0.434C0.276,-0.434 0.238,-0.419 0.209,-0.388C0.179,-0.357 0.164,-0.317 0.164,-0.267C0.164,-0.217 0.179,-0.177 0.209,-0.146C0.238,-0.115 0.276,-0.1 0.322,-0.1Z" style="fill-rule:nonzero;"/>
                </g>
                <g transform="matrix(33.5934,0,0,33.5934,676.786,1238.9)">
                    <path d="M0.385,-0.54C0.452,-0.54 0.506,-0.52 0.547,-0.481C0.588,-0.442 0.608,-0.383 0.608,-0.306L0.608,0L0.483,0L0.483,-0.29C0.483,-0.337 0.472,-0.372 0.45,-0.396C0.428,-0.419 0.397,-0.431 0.356,-0.431C0.31,-0.431 0.274,-0.417 0.247,-0.39C0.22,-0.362 0.207,-0.322 0.207,-0.27L0.207,0L0.082,0L0.082,-0.534L0.201,-0.534L0.201,-0.465C0.222,-0.49 0.248,-0.508 0.279,-0.521C0.31,-0.534 0.346,-0.54 0.385,-0.54Z" style="fill-rule:nonzero;"/>
                </g>
                <g transform="matrix(33.5934,0,0,33.5934,699.058,1238.9)">
                    <path d="M0.582,-0.534L0.353,0L0.224,0L-0.005,-0.534L0.125,-0.534L0.291,-0.138L0.462,-0.534L0.582,-0.534Z" style="fill-rule:nonzero;"/>
                </g>
                <g transform="matrix(33.5934,0,0,33.5934,717.568,1238.9)">
                    <path d="M0.322,0.007C0.268,0.007 0.219,-0.005 0.176,-0.028C0.133,-0.051 0.099,-0.084 0.075,-0.126C0.05,-0.167 0.038,-0.214 0.038,-0.267C0.038,-0.32 0.05,-0.367 0.075,-0.408C0.099,-0.449 0.133,-0.482 0.176,-0.505C0.219,-0.528 0.268,-0.54 0.322,-0.54C0.377,-0.54 0.426,-0.528 0.469,-0.505C0.512,-0.482 0.546,-0.449 0.571,-0.408C0.595,-0.367 0.607,-0.32 0.607,-0.267C0.607,-0.214 0.595,-0.167 0.571,-0.126C0.546,-0.084 0.512,-0.051 0.469,-0.028C0.426,-0.005 0.377,0.007 0.322,0.007ZM0.322,-0.1C0.368,-0.1 0.406,-0.115 0.436,-0.146C0.466,-0.177 0.481,-0.217 0.481,-0.267C0.481,-0.317 0.466,-0.357 0.436,-0.388C0.406,-0.419 0.368,-0.434 0.322,-0.434C0.276,-0.434 0.238,-0.419 0.209,-0.388C0.179,-0.357 0.164,-0.317 0.164,-0.267C0.164,-0.217 0.179,-0.177 0.209,-0.146C0.238,-0.115 0.276,-0.1 0.322,-0.1Z" style="fill-rule:nonzero;"/>
                </g>
                <g transform="matrix(33.5934,0,0,33.5934,738.329,1238.9)">
                    <path d="M0.915,-0.534L0.718,0L0.598,0L0.46,-0.368L0.32,0L0.2,0L0.004,-0.534L0.122,-0.534L0.263,-0.14L0.41,-0.534L0.515,-0.534L0.659,-0.138L0.804,-0.534L0.915,-0.534Z" style="fill-rule:nonzero;"/>
                </g>
                <g transform="matrix(33.5934,0,0,33.5934,768.294,1238.9)">
                    <path d="M0.322,0.007C0.268,0.007 0.219,-0.005 0.176,-0.028C0.133,-0.051 0.099,-0.084 0.075,-0.126C0.05,-0.167 0.038,-0.214 0.038,-0.267C0.038,-0.32 0.05,-0.367 0.075,-0.408C0.099,-0.449 0.133,-0.482 0.176,-0.505C0.219,-0.528 0.268,-0.54 0.322,-0.54C0.377,-0.54 0.426,-0.528 0.469,-0.505C0.512,-0.482 0.546,-0.449 0.571,-0.408C0.595,-0.367 0.607,-0.32 0.607,-0.267C0.607,-0.214 0.595,-0.167 0.571,-0.126C0.546,-0.084 0.512,-0.051 0.469,-0.028C0.426,-0.005 0.377,0.007 0.322,0.007ZM0.322,-0.1C0.368,-0.1 0.406,-0.115 0.436,-0.146C0.466,-0.177 0.481,-0.217 0.481,-0.267C0.481,-0.317 0.466,-0.357 0.436,-0.388C0.406,-0.419 0.368,-0.434 0.322,-0.434C0.276,-0.434 0.238,-0.419 0.209,-0.388C0.179,-0.357 0.164,-0.317 0.164,-0.267C0.164,-0.217 0.179,-0.177 0.209,-0.146C0.238,-0.115 0.276,-0.1 0.322,-0.1Z" style="fill-rule:nonzero;"/>
                </g>
                <g transform="matrix(33.5934,0,0,33.5934,789.559,1238.9)">
                    <path d="M0.201,-0.456C0.237,-0.512 0.3,-0.54 0.391,-0.54L0.391,-0.421C0.38,-0.423 0.371,-0.424 0.362,-0.424C0.313,-0.424 0.275,-0.41 0.248,-0.382C0.221,-0.353 0.207,-0.312 0.207,-0.259L0.207,0L0.082,0L0.082,-0.534L0.201,-0.534L0.201,-0.456Z" style="fill-rule:nonzero;"/>
                </g>
                <g transform="matrix(33.5934,0,0,33.5934,803.265,1238.9)">
                    <path d="M0.3,-0.229L0.207,-0.141L0.207,0L0.082,0L0.082,-0.742L0.207,-0.742L0.207,-0.294L0.466,-0.534L0.616,-0.534L0.393,-0.31L0.637,0L0.485,0L0.3,-0.229Z" style="fill-rule:nonzero;"/>
                </g>
                <g transform="matrix(33.5934,0,0,33.5934,825.571,1238.9)">
                    <path d="M0.247,0.007C0.204,0.007 0.161,0.001 0.12,-0.01C0.079,-0.021 0.046,-0.036 0.021,-0.053L0.069,-0.148C0.093,-0.132 0.122,-0.119 0.156,-0.11C0.189,-0.1 0.222,-0.095 0.255,-0.095C0.33,-0.095 0.367,-0.115 0.367,-0.154C0.367,-0.173 0.358,-0.186 0.339,-0.193C0.32,-0.2 0.289,-0.207 0.247,-0.214C0.203,-0.221 0.167,-0.228 0.14,-0.237C0.112,-0.246 0.088,-0.261 0.068,-0.283C0.047,-0.304 0.037,-0.334 0.037,-0.373C0.037,-0.424 0.058,-0.464 0.101,-0.495C0.143,-0.525 0.2,-0.54 0.272,-0.54C0.309,-0.54 0.345,-0.536 0.382,-0.528C0.419,-0.519 0.449,-0.508 0.472,-0.494L0.424,-0.399C0.379,-0.426 0.328,-0.439 0.271,-0.439C0.234,-0.439 0.206,-0.434 0.188,-0.423C0.169,-0.412 0.159,-0.397 0.159,-0.379C0.159,-0.359 0.169,-0.345 0.19,-0.337C0.21,-0.328 0.241,-0.32 0.284,-0.313C0.327,-0.306 0.362,-0.299 0.389,-0.29C0.416,-0.281 0.44,-0.267 0.46,-0.246C0.479,-0.225 0.489,-0.196 0.489,-0.158C0.489,-0.108 0.467,-0.068 0.424,-0.038C0.381,-0.008 0.322,0.007 0.247,0.007Z" style="fill-rule:nonzero;"/>
                </g>
            </g>
            <g transform="matrix(1,0,0,1,196.785,-4.75233)">
                <g transform="matrix(0.893024,0,0,0.707287,-5006.87,0.433662)">
                    <path d="M14446.3,707.541C14446.3,700.638 14439.1,695.034 14430.3,695.034C14421.4,695.034 14414.3,700.638 14414.3,707.541L14414.3,809.773C14414.3,816.676 14421.4,822.28 14430.3,822.28C14439.1,822.28 14446.3,816.676 14446.3,809.773L14446.3,707.541ZM14437.7,707.541L14437.7,809.773C14437.7,812.996 14434.4,815.613 14430.3,815.613C14426.1,815.613 14422.8,812.996 14422.8,809.773C14422.8,809.773 14422.8,707.541 14422.8,707.541C14422.8,704.318 14426.1,701.701 14430.3,701.701C14434.4,701.701 14437.7,704.318 14437.7,707.541Z" style="fill:rgb(0,118,242);"/>
                </g>
                <g transform="matrix(0.893024,0,0,0.534122,-5046.93,137.385)">
                    <path d="M14446.3,709.678C14446.3,700.53 14439.1,693.102 14430.3,693.102C14421.4,693.102 14414.3,700.53 14414.3,709.678C14414.3,709.678 14414.3,806.788 14414.3,806.788C14414.3,815.937 14421.4,823.364 14430.3,823.364C14439.1,823.364 14446.3,815.937 14446.3,806.788C14446.3,806.788 14446.3,709.678 14446.3,709.678ZM14437.7,709.678L14437.7,806.788C14437.7,811.06 14434.4,814.529 14430.3,814.529C14426.1,814.529 14422.8,811.06 14422.8,806.788L14422.8,709.678C14422.8,705.406 14426.1,701.938 14430.3,701.938C14434.4,701.938 14437.7,705.406 14437.7,709.678Z" style="fill:rgb(0,118,242);"/>
                </g>
                <g transform="matrix(0.893024,0,0,0.450488,-5087,189.638)">
                    <path d="M14446.3,711.936C14446.3,701.089 14439.1,692.282 14430.3,692.282C14421.4,692.282 14414.3,701.089 14414.3,711.936C14414.3,711.936 14414.3,804.531 14414.3,804.531C14414.3,815.378 14421.4,824.185 14430.3,824.185C14439.1,824.185 14446.3,815.378 14446.3,804.531C14446.3,804.531 14446.3,711.936 14446.3,711.936ZM14437.7,711.936L14437.7,804.531C14437.7,809.596 14434.4,813.708 14430.3,813.708C14426.1,813.708 14422.8,809.596 14422.8,804.531L14422.8,711.936C14422.8,706.871 14426.1,702.758 14430.3,702.758C14434.4,702.758 14437.7,706.871 14437.7,711.936Z" style="fill:rgb(0,118,242);"/>
                </g>
                <g transform="matrix(0.893024,0,0,0.119754,-5127.06,448.372)">
                    <path d="M14446.3,751.748C14446.3,710.944 14439.1,677.816 14430.3,677.816C14421.4,677.816 14414.3,710.944 14414.3,751.748C14414.3,751.748 14414.3,764.719 14414.3,764.719C14414.3,805.523 14421.4,838.651 14430.3,838.651C14439.1,838.651 14446.3,805.523 14446.3,764.719C14446.3,764.719 14446.3,751.748 14446.3,751.748ZM14437.7,751.748L14437.7,764.719C14437.7,783.773 14434.4,799.242 14430.3,799.242C14426.1,799.242 14422.8,783.773 14422.8,764.719L14422.8,751.748C14422.8,732.694 14426.1,717.225 14430.3,717.225C14434.4,717.225 14437.7,732.694 14437.7,751.748Z" style="fill:rgb(0,118,242);"/>
                </g>
                <g transform="matrix(0.893024,0,0,0.242896,-4966.8,358.39)">
                    <path d="M14446.3,724.256C14446.3,704.138 14439.1,687.805 14430.3,687.805C14421.4,687.805 14414.3,704.138 14414.3,724.256L14414.3,792.211C14414.3,812.328 14421.4,828.661 14430.3,828.661C14439.1,828.661 14446.3,812.328 14446.3,792.211C14446.3,792.211 14446.3,724.256 14446.3,724.256ZM14437.7,724.256L14437.7,792.211C14437.7,801.605 14434.4,809.232 14430.3,809.232C14426.1,809.232 14422.8,801.605 14422.8,792.211C14422.8,792.211 14422.8,724.256 14422.8,724.256C14422.8,714.862 14426.1,707.235 14430.3,707.235C14434.4,707.235 14437.7,714.862 14437.7,724.256Z" style="fill:rgb(0,118,242);"/>
                </g>
                <g transform="matrix(0.893024,0,0,0.117058,-4926.74,450.416)">
                    <path d="M14446.3,752.997C14446.3,711.253 14439.1,677.362 14430.3,677.362C14421.4,677.362 14414.3,711.253 14414.3,752.997C14414.3,752.997 14414.3,763.47 14414.3,763.47C14414.3,805.214 14421.4,839.105 14430.3,839.105C14439.1,839.105 14446.3,805.214 14446.3,763.47L14446.3,752.997ZM14437.7,752.997L14437.7,763.47C14437.7,782.963 14434.4,798.788 14430.3,798.788C14426.1,798.788 14422.8,782.963 14422.8,763.47L14422.8,752.997C14422.8,733.504 14426.1,717.679 14430.3,717.679C14434.4,717.679 14437.7,733.504 14437.7,752.997Z" style="fill:rgb(0,118,242);"/>
                </g>
            </g>
        </g>
    </g>
</svg>
