<?xml version="1.0" encoding="UTF-8"?>
<svg width="155px" height="36px" viewBox="0 0 155 36" version="1.1" xmlns="http://www.w3.org/2000/svg" xmlns:xlink="http://www.w3.org/1999/xlink">
    <!-- Generator: Sketch 61.2 (89653) - https://sketch.com -->
    <title>Group 2</title>
    <desc>Created with Sketch.</desc>
    <g id="Page-1" stroke="none" stroke-width="1" fill="none" fill-rule="evenodd">
        <g id="Group-2">
            <path d="M12.6147331,30 L19.8507331,11.334 L15.4227331,11.334 C15.0627331,11.334 14.7507331,11.427 14.4867331,11.613 C14.2227331,11.799 14.0427331,12.03 13.9467331,12.306 L13.9467331,12.306 L11.2467331,20.676 C11.0307331,21.36 10.8267331,22.026 10.6347331,22.674 C10.4427331,23.322 10.2807331,23.97 10.1487331,24.618 C10.0167331,23.97 9.85773309,23.322 9.67173309,22.674 C9.48573309,22.026 9.29073309,21.36 9.08673309,20.676 L9.08673309,20.676 L6.49473309,12.306 C6.39873309,12.03 6.21573309,11.799 5.94573309,11.613 C5.67573309,11.427 5.34273309,11.334 4.94673309,11.334 L4.94673309,11.334 L0.302733091,11.334 L7.53873309,30 L12.6147331,30 Z M30.2005498,30.288 C31.6165498,30.288 32.9065498,30.063 34.0705498,29.613 C35.2345498,29.163 36.2335498,28.521 37.0675498,27.687 C37.9015498,26.853 38.5495498,25.839 39.0115498,24.645 C39.4735498,23.451 39.7045498,22.11 39.7045498,20.622 C39.7045498,19.146 39.4735498,17.817 39.0115498,16.635 C38.5495498,15.453 37.9015498,14.448 37.0675498,13.62 C36.2335498,12.792 35.2345498,12.156 34.0705498,11.712 C32.9065498,11.268 31.6165498,11.046 30.2005498,11.046 C28.7725498,11.046 27.4735498,11.268 26.3035498,11.712 C25.1335498,12.156 24.1255498,12.792 23.2795498,13.62 C22.4335498,14.448 21.7795498,15.453 21.3175498,16.635 C20.8555498,17.817 20.6245498,19.146 20.6245498,20.622 C20.6245498,22.11 20.8555498,23.451 21.3175498,24.645 C21.7795498,25.839 22.4335498,26.853 23.2795498,27.687 C24.1255498,28.521 25.1335498,29.163 26.3035498,29.613 C27.4735498,30.063 28.7725498,30.288 30.2005498,30.288 Z M30.2005498,26.148 C28.8805498,26.148 27.9145498,25.695 27.3025498,24.789 C26.6905498,23.883 26.3845498,22.506 26.3845498,20.658 C26.3845498,18.81 26.6905498,17.436 27.3025498,16.536 C27.9145498,15.636 28.8805498,15.186 30.2005498,15.186 C31.4845498,15.186 32.4295498,15.636 33.0355498,16.536 C33.6415498,17.436 33.9445498,18.81 33.9445498,20.658 C33.9445498,22.506 33.6415498,23.883 33.0355498,24.789 C32.4295498,25.695 31.4845498,26.148 30.2005498,26.148 Z M46.1663665,9.462 C46.6343665,9.462 47.0753665,9.375 47.4893665,9.201 C47.9033665,9.027 48.2663665,8.793 48.5783665,8.499 C48.8903665,8.205 49.1363665,7.863 49.3163665,7.473 C49.4963665,7.083 49.5863665,6.666 49.5863665,6.222 C49.5863665,5.766 49.4963665,5.34 49.3163665,4.944 C49.1363665,4.548 48.8903665,4.2 48.5783665,3.9 C48.2663665,3.6 47.9033665,3.366 47.4893665,3.198 C47.0753665,3.03 46.6343665,2.946 46.1663665,2.946 C45.7103665,2.946 45.2843665,3.03 44.8883665,3.198 C44.4923665,3.366 44.1413665,3.6 43.8353665,3.9 C43.5293665,4.2 43.2893665,4.548 43.1153665,4.944 C42.9413665,5.34 42.8543665,5.766 42.8543665,6.222 C42.8543665,6.666 42.9413665,7.083 43.1153665,7.473 C43.2893665,7.863 43.5293665,8.205 43.8353665,8.499 C44.1413665,8.793 44.4923665,9.027 44.8883665,9.201 C45.2843665,9.375 45.7103665,9.462 46.1663665,9.462 Z M48.9383665,30 L48.9383665,11.334 L43.3583665,11.334 L43.3583665,30 L48.9383665,30 Z M61.1961833,30.288 C61.8321833,30.288 62.4861833,30.243 63.1581833,30.153 C63.8301833,30.063 64.4991833,29.901 65.1651833,29.667 C65.8311833,29.433 66.4821833,29.109 67.1181833,28.695 C67.7541833,28.281 68.3601833,27.744 68.9361833,27.084 L68.9361833,27.084 L67.3161833,25.086 C67.0881833,24.762 66.7521833,24.6 66.3081833,24.6 C65.9721833,24.6 65.6931833,24.684 65.4711833,24.852 C65.2491833,25.02 65.0061833,25.203 64.7421833,25.401 C64.4781833,25.599 64.1571833,25.779 63.7791833,25.941 C63.4011833,26.103 62.8881833,26.184 62.2401833,26.184 C61.0281833,26.184 60.0771833,25.704 59.3871833,24.744 C58.6971833,23.784 58.3521833,22.41 58.3521833,20.622 C58.3521833,19.77 58.4301833,19.005 58.5861833,18.327 C58.7421833,17.649 58.9821833,17.076 59.3061833,16.608 C59.6301833,16.14 60.0411833,15.78 60.5391833,15.528 C61.0371833,15.276 61.6281833,15.15 62.3121833,15.15 C62.8641833,15.15 63.3261833,15.216 63.6981833,15.348 C64.0701833,15.48 64.3941833,15.627 64.6701833,15.789 C64.9461833,15.951 65.1951833,16.098 65.4171833,16.23 C65.6391833,16.362 65.8881833,16.428 66.1641833,16.428 C66.4521833,16.428 66.6741833,16.368 66.8301833,16.248 C66.9861833,16.128 67.1481833,15.966 67.3161833,15.762 L67.3161833,15.762 L68.7921833,13.8 C67.9041833,12.9 66.9081833,12.216 65.8041833,11.748 C64.7001833,11.28 63.4161833,11.046 61.9521833,11.046 C60.4281833,11.046 59.0871833,11.292 57.9291833,11.784 C56.7711833,12.276 55.7991833,12.951 55.0131833,13.809 C54.2271833,14.667 53.6331833,15.681 53.2311833,16.851 C52.8291833,18.021 52.6281833,19.278 52.6281833,20.622 C52.6281833,22.158 52.8591833,23.526 53.3211833,24.726 C53.7831833,25.926 54.4071833,26.937 55.1931833,27.759 C55.9791833,28.581 56.8911833,29.208 57.9291833,29.64 C58.9671833,30.072 60.0561833,30.288 61.1961833,30.288 Z M80.006,30.288 C80.642,30.288 81.311,30.243 82.013,30.153 C82.715,30.063 83.417,29.901 84.119,29.667 C84.821,29.433 85.505,29.109 86.171,28.695 C86.837,28.281 87.458,27.744 88.034,27.084 L88.034,27.084 L86.414,25.086 C86.186,24.762 85.85,24.6 85.406,24.6 C85.07,24.6 84.749,24.678 84.443,24.834 C84.137,24.99 83.801,25.164 83.435,25.356 C83.069,25.548 82.652,25.722 82.184,25.878 C81.716,26.034 81.158,26.112 80.51,26.112 C79.298,26.112 78.308,25.761 77.54,25.059 C76.772,24.357 76.298,23.226 76.118,21.666 L76.118,21.666 L86.882,21.666 C87.134,21.666 87.341,21.636 87.503,21.576 C87.665,21.516 87.794,21.408 87.89,21.252 C87.986,21.096 88.052,20.886 88.088,20.622 C88.124,20.358 88.142,20.016 88.142,19.596 C88.142,18.252 87.935,17.049 87.521,15.987 C87.107,14.925 86.531,14.028 85.793,13.296 C85.055,12.564 84.173,12.006 83.147,11.622 C82.121,11.238 80.99,11.046 79.754,11.046 C78.326,11.046 77.045,11.292 75.911,11.784 C74.777,12.276 73.811,12.942 73.013,13.782 C72.215,14.622 71.603,15.6 71.177,16.716 C70.751,17.832 70.538,19.014 70.538,20.262 C70.538,21.918 70.787,23.37 71.285,24.618 C71.783,25.866 72.461,26.91 73.319,27.75 C74.177,28.59 75.179,29.223 76.325,29.649 C77.471,30.075 78.698,30.288 80.006,30.288 Z M83.138,18.426 L76.172,18.426 C76.364,17.286 76.76,16.413 77.36,15.807 C77.96,15.201 78.794,14.898 79.862,14.898 C80.462,14.898 80.972,15 81.392,15.204 C81.812,15.408 82.151,15.675 82.409,16.005 C82.667,16.335 82.853,16.71 82.967,17.13 C83.081,17.55 83.138,17.982 83.138,18.426 L83.138,18.426 Z M98.1678167,30 L98.1678167,15.186 L102.019817,15.186 L102.019817,11.37 L97.9878167,11.37 L97.9878167,10.722 C97.9878167,9.522 98.2848167,8.607 98.8788167,7.977 C99.4728167,7.347 100.339817,7.032 101.479817,7.032 C101.839817,7.032 102.304817,7.047 102.874817,7.077 C103.444817,7.107 104.035817,7.134 104.647817,7.158 L104.647817,7.158 L104.647817,30 L110.191817,30 L110.191817,3.414 L107.059817,3.414 C105.991817,3.414 104.938817,3.378 103.900817,3.306 C102.862817,3.234 101.755817,3.198 100.579817,3.198 C99.1878167,3.198 97.9878167,3.411 96.9798167,3.837 C95.9718167,4.263 95.1438167,4.827 94.4958167,5.529 C93.8478167,6.231 93.3678167,7.035 93.0558167,7.941 C92.7438167,8.847 92.5878167,9.774 92.5878167,10.722 L92.5878167,10.722 L92.5878167,11.37 L89.9598167,11.37 L89.9598167,13.566 C89.9598167,13.962 90.0888167,14.262 90.3468167,14.466 C90.6048167,14.67 90.9438167,14.82 91.3638167,14.916 L91.3638167,14.916 L92.5878167,15.168 L92.5878167,30 L98.1678167,30 Z M118.129633,9.462 C118.597633,9.462 119.038633,9.375 119.452633,9.201 C119.866633,9.027 120.229633,8.793 120.541633,8.499 C120.853633,8.205 121.099633,7.863 121.279633,7.473 C121.459633,7.083 121.549633,6.666 121.549633,6.222 C121.549633,5.766 121.459633,5.34 121.279633,4.944 C121.099633,4.548 120.853633,4.2 120.541633,3.9 C120.229633,3.6 119.866633,3.366 119.452633,3.198 C119.038633,3.03 118.597633,2.946 118.129633,2.946 C117.673633,2.946 117.247633,3.03 116.851633,3.198 C116.455633,3.366 116.104633,3.6 115.798633,3.9 C115.492633,4.2 115.252633,4.548 115.078633,4.944 C114.904633,5.34 114.817633,5.766 114.817633,6.222 C114.817633,6.666 114.904633,7.083 115.078633,7.473 C115.252633,7.863 115.492633,8.205 115.798633,8.499 C116.104633,8.793 116.455633,9.027 116.851633,9.201 C117.247633,9.375 117.673633,9.462 118.129633,9.462 Z M120.901633,30 L120.901633,11.334 L115.321633,11.334 L115.321633,30 L120.901633,30 Z M131.39545,35.922 L131.39545,28.758 C131.93545,29.226 132.53545,29.598 133.19545,29.874 C133.85545,30.15 134.67145,30.288 135.64345,30.288 C136.83145,30.288 137.91445,30.042 138.89245,29.55 C139.87045,29.058 140.71045,28.374 141.41245,27.498 C142.11445,26.622 142.66045,25.59 143.05045,24.402 C143.44045,23.214 143.63545,21.918 143.63545,20.514 C143.63545,19.014 143.46445,17.673 143.12245,16.491 C142.78045,15.309 142.30945,14.31 141.70945,13.494 C141.10945,12.678 140.39545,12.054 139.56745,11.622 C138.73945,11.19 137.83945,10.974 136.86745,10.974 C136.21945,10.974 135.62245,11.04 135.07645,11.172 C134.53045,11.304 134.02045,11.487 133.54645,11.721 C133.07245,11.955 132.62845,12.234 132.21445,12.558 C131.80045,12.882 131.41345,13.242 131.05345,13.638 L131.05345,13.638 L130.63945,12.27 C130.54345,11.958 130.37845,11.724 130.14445,11.568 C129.91045,11.412 129.61945,11.334 129.27145,11.334 L129.27145,11.334 L125.81545,11.334 L125.81545,35.922 L131.39545,35.922 Z M134.31145,26.184 C133.77145,26.184 133.25545,26.091 132.76345,25.905 C132.27145,25.719 131.81545,25.392 131.39545,24.924 L131.39545,24.924 L131.39545,17.004 C131.63545,16.716 131.87545,16.461 132.11545,16.239 C132.35545,16.017 132.61645,15.834 132.89845,15.69 C133.18045,15.546 133.48645,15.435 133.81645,15.357 C134.14645,15.279 134.51545,15.24 134.92345,15.24 C135.36745,15.24 135.76945,15.33 136.12945,15.51 C136.48945,15.69 136.79845,15.987 137.05645,16.401 C137.31445,16.815 137.51545,17.358 137.65945,18.03 C137.80345,18.702 137.87545,19.53 137.87545,20.514 C137.87545,21.546 137.78545,22.422 137.60545,23.142 C137.42545,23.862 137.17645,24.447 136.85845,24.897 C136.54045,25.347 136.16545,25.674 135.73345,25.878 C135.30145,26.082 134.82745,26.184 134.31145,26.184 Z" id="voicefip" fill="#DA627D" fill-rule="nonzero"></path>
            <circle id="Oval" fill="#F17E3A" cx="149" cy="6" r="6"></circle>
        </g>
    </g>
</svg>