<svg id="Layer_1" data-name="Layer 1" xmlns="http://www.w3.org/2000/svg" viewBox="0 0 844 240"><defs><style>.cls-1{fill:#171022;}</style></defs><path class="cls-1" d="M748.1039,48.2594c17.2669,0,34.5949,5.58,41.995,21.9a10.4517,10.4517,0,0,0,9.506,6.3h28.037a10.3289,10.3289,0,0,0,10.108-12.54C834.08,47.7194,815.0069,6.5,754.4209,6.5a120.5673,120.5673,0,0,0-40.851,6.84l-39.709,46.3794,21.418-37.5a10.3753,10.3753,0,0,0-9.024-15.6h-22.562a10.4118,10.4118,0,0,0-9.025,5.22l-78.996,136.739V16.94a10.334,10.334,0,0,0-10.349-10.32h-26.954a10.63,10.63,0,0,0-9.0241,5.1l-71.4159,123.239-7.942,33.959-.12-151.9781a10.3338,10.3338,0,0,0-10.348-10.32h-25.691a10.6323,10.6323,0,0,0-9.025,5.1l-79.357,136.739V16.94a10.3338,10.3338,0,0,0-10.348-10.32h-26.894a10.5571,10.5571,0,0,0-9.025,5.1l-79.117,136.618V16.94a10.3331,10.3331,0,0,0-10.348-10.32H20.29a10.44,10.44,0,0,0-10.2281,8.52L6.151,38.06a10.4344,10.4344,0,0,0,10.2281,12.18H60.7206L30.0365,224.7778H68.6624a10.44,10.44,0,0,0,10.228-8.52L108.07,50.2394h34.956a10.4159,10.4159,0,0,0,10.048-7.74l6.979-26.76.12,198.658a10.334,10.334,0,0,0,10.349,10.32h26.231a10.631,10.631,0,0,0,9.025-5.1l79.839-137.9387V214.3978a10.3338,10.3338,0,0,0,10.348,10.32h26.292a10.631,10.631,0,0,0,9.025-5.1l28.759-49.74-1.264,8.52a10.02,10.02,0,0,0,9.928,11.46h41.393l-.12,24.54a10.3331,10.3331,0,0,0,10.348,10.32h26.352a10.6323,10.6323,0,0,0,9.025-5.1l80.079-137.9387V214.3978a10.334,10.334,0,0,0,10.349,10.32h26.171a10.4842,10.4842,0,0,0,9.025-5.22l43.86-75.899c-.18,48.119,27.556,87.779,85.916,89.819,72.258,2.52,122.2549-53.22,122.2549-110.039,0-6.54-3.7909-12.06-10.2279-12.06h-89.766a10.5379,10.5379,0,0,0-10.228,8.52l-4.693,26.4h72.378c-11.251,28.499-33.572,45.179-68.5881,45.179-33.7519,0-50.3579-21.3-50.3579-51.839C671.9349,96.5589,701.4159,48.2594,748.1039,48.2594Zm-338.066,53.0394v53.699h-41.273l48.132-83.1587Z"/></svg>