
        <svg xmlns="http://www.w3.org/2000/svg" xmlns:xlink="http://www.w3.org/1999/xlink" version="1.1" width="3272.727272727273" 
        height="2147.2720348957973" viewBox="0 0 3272.727272727273 2147.2720348957973">
			<rect fill="#000000" width="3272.727272727273" height="2147.2720348957973"/>
			<g transform="scale(13.636363636363637) translate(10, 10)">
				<defs id="SvgjsDefs1071"><linearGradient id="SvgjsLinearGradient1076"><stop id="SvgjsStop1077" stop-color="#8f5e25" offset="0"></stop><stop id="SvgjsStop1078" stop-color="#fbf4a1" offset="0.5"></stop><stop id="SvgjsStop1079" stop-color="#8f5e25" offset="1"></stop></linearGradient><linearGradient id="SvgjsLinearGradient1080"><stop id="SvgjsStop1081" stop-color="#8f5e25" offset="0"></stop><stop id="SvgjsStop1082" stop-color="#fbf4a1" offset="0.5"></stop><stop id="SvgjsStop1083" stop-color="#8f5e25" offset="1"></stop></linearGradient></defs><g id="SvgjsG1072" featureKey="symbolFeature-0" transform="matrix(0.8809942007064819,0,0,0.8809942007064819,65.8625706091944,-3.788963239767099)" fill="url(#SvgjsLinearGradient1076)"><path xmlns="http://www.w3.org/2000/svg" d="M55,64.6c0.9-0.3,1.6-0.4,2.3-0.5c0.3-0.5,0.5-1,0.8-1.5c-0.5-0.4-0.9-0.8-1.4-1.2C56.1,62.5,55.6,63.6,55,64.6z"></path><path xmlns="http://www.w3.org/2000/svg" d="M44.2,72V54.2c2.8,0.1,5.5,0.5,8.1,1.2c-0.3-0.7-0.7-1.3-0.9-2c-2.3-0.5-4.7-0.9-7.2-0.9V40.4h6c0.1-0.6,0.3-1.2,0.5-1.7  h-6.5V24.9c5-0.1,9.7-1.3,14-3.3c0.7,2.1,1.3,4.4,1.8,6.8c0.5-0.2,1.1-0.5,1.6-0.7c-0.5-2.4-1.1-4.7-1.8-6.9c2.6-1.4,5-3.1,7.1-5  c3.8,3.7,6.6,8.3,8.3,13.5c0.8,0.5,1.5,1,2.2,1.6c-1.6-6.3-4.8-11.9-9.2-16.3c-0.4-0.4-0.9-0.8-1.3-1.2c-6.1-5.5-14-8.9-22.8-9.1  c-0.3,0-0.6,0-0.9,0c-0.3,0-0.6,0-0.9,0C33.7,4.6,25.8,8,19.7,13.4c-0.4,0.4-0.9,0.8-1.3,1.2C12.2,20.8,8.3,29.3,8.1,38.7  c0,0.3,0,0.6,0,0.9c0,0.3,0,0.6,0,0.9c0.2,9,3.8,17.1,9.5,23.2c0.4,0.4,0.8,0.8,1.2,1.2c6.1,5.9,14.3,9.6,23.4,9.9  C42.9,73.8,43.5,72.9,44.2,72z M65.6,14.6c-2,1.8-4.1,3.3-6.4,4.6C57,13.7,54,9.4,50.5,6.8C56.2,8.1,61.4,10.8,65.6,14.6z M44.2,6.1  C49.6,6.6,54.5,12,57.6,20c-4.1,1.9-8.6,3.1-13.4,3.2V6.1z M42.5,73c-5.8-0.6-10.9-6.6-14-15.3c4.2-2.1,9-3.3,14-3.5V73z M42.5,52.5  c-5.2,0.1-10.1,1.4-14.5,3.5c-1.4-4.7-2.3-10-2.4-15.6h16.9V52.5z M42.5,38.7H25.6c0.1-6.2,1.1-12.1,2.9-17.1c4.3,2,9,3.2,14,3.3  V38.7z M42.5,23.2C37.7,23,33.1,21.9,29,20C32.1,12,37,6.6,42.5,6.1V23.2z M36.1,6.8c-3.5,2.5-6.5,6.9-8.7,12.4  c-2.3-1.3-4.5-2.8-6.4-4.6C25.2,10.8,30.4,8.1,36.1,6.8z M19.7,15.8c2.2,2,4.5,3.7,7.1,5c-1.8,5.2-2.9,11.3-3,17.9h-14  C10.1,29.8,13.8,21.7,19.7,15.8z M9.8,40.4h14c0.1,6,1,11.5,2.5,16.4c-2.8,1.5-5.3,3.4-7.5,5.6C13.4,56.6,10,48.9,9.8,40.4z   M20,63.6c2.1-2,4.4-3.7,6.9-5.1c2.2,6.2,5.4,11,9.2,13.8C29.9,70.9,24.4,67.9,20,63.6z"></path><path xmlns="http://www.w3.org/2000/svg" d="M90.7,77.5c-2.6-4.9-5.6-8.1-9.6-10c-0.8-0.4-1.6-0.7-2.4-1c-1.2-0.4-2.1-0.6-2.9-0.7c-0.2,0-0.3,0-0.5,0  c-2.2,0-3.3,1.5-4.5,4.2c-0.5,1.1-0.9,2.3-1.4,3.6c0,0,0,0.1,0,0.1c-0.2-0.5-0.4-1-0.4-1.4c0-0.5,0-1,0-1.6c0-0.1,0-0.2,0.1-0.3  c0.2-0.5,0.4-1.2,0.3-1.8c0-0.4-0.3-1.1-1.4-1.4c-0.2-0.1-0.5-0.1-0.7-0.1l-0.3,0c-0.1,0-0.2,0-0.3,0s-0.3,0-0.5,0l-0.2,0  c-0.3,0-0.5,0-0.7,0.1c-1.1,0.3-1.3,1-1.4,1.4c-0.1,0.6,0.1,1.3,0.3,1.8c0,0.1,0,0.2,0.1,0.3c0.1,0.5,0.1,1,0,1.5  c-0.1,0.5-0.2,1-0.4,1.5c0-0.1,0-0.1-0.1-0.2c-0.5-1.3-0.9-2.5-1.4-3.6c-0.1-0.3-0.2-0.5-0.3-0.7c-0.3-0.6-0.5-1.1-0.8-1.5  c-0.9-1.3-1.8-2-3.3-2c-0.2,0-0.3,0-0.5,0c-0.4,0-0.9,0.1-1.4,0.3c-0.4,0.1-0.9,0.3-1.5,0.4c-0.4,0.1-0.8,0.3-1.3,0.5  c-0.4,0.2-0.7,0.3-1.1,0.5c-2.4,1.2-4.5,2.9-6.4,5.2c-0.5,0.6-1,1.3-1.5,2.1c-0.6,0.9-1.1,1.8-1.6,2.7c-1.9,3.6-1.4,6.1,1.9,8.4  c1.2,0.9,11.8,8.4,22.3,8.4c9.3,0,18.4-5.9,21.9-8.4C92.1,83.5,92.7,81.1,90.7,77.5z"></path><path xmlns="http://www.w3.org/2000/svg" d="M52.5,51.8c0.3,0.7,0.6,1.5,0.9,2.2c0.4,0.8,0.8,1.5,1.2,2.2c0.8,1.2,1.7,2.4,2.7,3.4c0.4,0.5,0.9,0.9,1.4,1.3  c2.1,1.8,4.6,2.9,7.4,3c0.2,0,0.3,0,0.5,0c0.7,0,1.4-0.1,2.1-0.2c5.8-1.1,10.1-6.7,12-12c1.2,0,2.2-1,2.2-2.2c0-0.8-0.5-1.6-1.2-1.9  c0.1-0.9,0.2-1.8,0.2-2.6c0-4.3-1.5-8.2-4-11.1c-0.7-0.8-1.4-1.5-2.1-2.1c-2.6-2.1-5.7-3.3-9.2-3.3c-1.7,0-3.3,0.3-4.8,0.8  c-0.6,0.2-1.1,0.4-1.7,0.7c-3.5,1.7-6.3,4.8-7.8,8.6c-0.2,0.6-0.4,1.1-0.6,1.7c-0.4,1.5-0.6,3-0.6,4.6c0,0.8,0.1,1.7,0.2,2.6  c-0.7,0.4-1.2,1.1-1.2,1.9C50.4,50.8,51.3,51.8,52.5,51.8z"></path></g><g id="SvgjsG1073" featureKey="nameFeature-0" transform="matrix(1.2998223304748535,0,0,1.2998223304748535,-5.83904544300584,84.87458745874588)" fill="url(#SvgjsLinearGradient1080)"><path d="M17.8 40.16 c-0.16 0.16 -0.72 0.16 -0.88 -0.04 c-0.04 -0.08 0 -0.12 0.04 -0.16 c0.08 -0.08 0.24 -0.08 0.2 -0.24 s-0.2 -0.08 -0.28 -0.08 s-0.16 0.04 -0.24 0.04 c-0.12 0 -0.2 0.04 -0.28 -0.12 c-0.04 -0.12 -0.2 -0.28 -0.32 -0.28 c-0.2 -0.04 -0.04 -0.08 -0.04 -0.12 s0.08 -0.08 0 -0.12 c-0.04 -0.04 -0.08 0 -0.12 0.04 c0 0.04 -0.04 0.08 -0.12 0.12 s-0.12 0.12 -0.04 0.2 c0.04 0.04 0.12 0.16 0.24 0.08 c0 -0.04 0.08 -0.08 0.08 -0.04 c0.08 0.12 -0.04 0.04 -0.08 0.08 c-0.04 0.08 -0.16 0.08 -0.2 0.08 c-0.24 -0.04 -0.24 0.2 -0.4 0.28 c-0.12 0 -0.2 0.08 -0.28 0.08 c-0.4 0 -0.8 0.12 -1.16 0.08 c-0.2 0 -0.32 -0.08 -0.48 -0.12 c-0.2 -0.04 -0.44 -0.04 -0.6 -0.24 c-0.04 -0.08 -0.08 -0.12 0.04 -0.16 c0.04 0 0.08 -0.04 0.08 -0.08 s0.08 -0.04 0.04 -0.08 c0 -0.04 -0.08 -0.04 -0.12 -0.04 c-0.08 0 -0.16 0.04 -0.16 0.12 c-0.08 0.2 -0.16 0.28 -0.4 0.24 c-0.08 -0.04 -0.12 -0.08 -0.04 -0.12 c0.12 -0.12 0.12 -0.2 0.04 -0.32 c-0.04 -0.08 -0.04 -0.2 -0.08 -0.28 c0 -0.08 0 -0.16 -0.04 -0.2 c-0.24 -0.12 -0.16 -0.32 -0.16 -0.48 c0 -0.2 -0.12 -0.36 -0.12 -0.56 c0 -0.24 -0.12 -0.44 -0.12 -0.68 c0 -0.12 -0.04 -0.2 0.12 -0.2 c0.08 0 0.32 -0.28 0.28 -0.36 c0 0 0 -0.04 -0.04 -0.04 c-0.16 0 -0.2 -0.16 -0.2 -0.28 c-0.04 -0.24 -0.08 -0.44 -0.16 -0.64 c-0.04 -0.2 -0.08 -0.4 -0.24 -0.56 c-0.08 -0.12 -0.04 -0.28 -0.16 -0.4 l0 0 c0.24 -0.2 0 -0.32 -0.04 -0.48 c0 -0.08 -0.04 -0.16 -0.12 -0.08 c-0.04 0.04 -0.08 0.04 -0.12 0.04 c-0.04 -0.04 0 -0.08 0.04 -0.08 c0.08 -0.2 0.08 -0.4 0 -0.56 c-0.08 -0.12 0 -0.32 -0.2 -0.32 c0.12 -0.16 -0.08 -0.24 -0.08 -0.36 c0 -0.04 0 -0.08 -0.04 -0.08 c0.04 -0.12 -0.28 -0.24 0 -0.32 c0.08 0 0.12 -0.08 0.04 -0.12 c0 -0.04 0 -0.12 -0.04 -0.12 c-0.08 0 -0.08 0.08 -0.08 0.12 c0 0.12 -0.16 0.08 -0.2 0.12 c-0.04 -0.08 -0.24 0 -0.2 -0.16 c0.04 -0.08 0.04 -0.12 -0.04 -0.2 c-0.04 -0.04 0.04 -0.08 0.12 -0.08 c0.04 0 0.08 0.04 0.12 0.04 c0.08 0.04 0.16 0 0.2 0 c-0.04 -0.08 -0.12 -0.04 -0.16 -0.08 l-0.08 0 c0 -0.2 -0.08 -0.24 -0.28 -0.2 c-0.04 0.04 -0.04 -0.12 -0.04 -0.2 c0 -0.04 0.04 -0.12 -0.08 -0.12 c0 0 -0.08 -0.08 -0.08 -0.12 c0 -0.2 -0.12 -0.36 -0.16 -0.52 c-0.08 -0.28 -0.08 -0.6 -0.24 -0.84 c-0.08 -0.12 -0.08 -0.2 -0.08 -0.28 c0.04 -0.28 -0.24 -0.52 -0.16 -0.8 c0.04 -0.04 0.04 -0.08 0 -0.08 c-0.16 0 -0.12 -0.12 -0.12 -0.2 c0.04 -0.12 0 -0.2 -0.08 -0.28 c-0.08 -0.16 -0.12 -0.28 -0.08 -0.48 l0 -0.04 c-0.2 -0.04 -0.08 -0.24 -0.16 -0.36 c-0.04 -0.08 -0.16 -0.24 0.08 -0.32 c0 0 0 -0.24 -0.08 -0.28 c-0.12 -0.08 -0.04 -0.24 -0.2 -0.32 c-0.04 0 0 0 0.04 -0.04 c0.08 -0.04 0.12 -0.12 0.08 -0.2 c-0.16 -0.12 -0.16 -0.2 -0.12 -0.4 c0 -0.08 -0.12 -0.12 -0.2 -0.16 c-0.04 0 -0.08 0.04 -0.08 0 c-0.04 -0.04 0 -0.08 0 -0.08 c0.16 -0.08 0.16 -0.16 0 -0.24 c-0.04 0 -0.08 -0.04 -0.04 -0.08 c0 -0.04 0.04 -0.04 0.08 -0.04 c0.08 -0.04 0.28 -0.04 0.08 -0.2 c-0.04 -0.04 0.04 -0.2 0 -0.28 c0 -0.04 -0.04 -0.04 -0.08 -0.04 c-0.04 -0.04 0 0.04 0 0.04 c-0.04 0.08 -0.04 0.12 -0.12 0.04 c-0.04 -0.04 0.04 -0.2 -0.12 -0.08 c-0.04 -0.08 0 -0.08 0.04 -0.12 c0 -0.04 0.04 -0.08 0 -0.12 s-0.08 0 -0.08 0.04 l-0.08 0 c-0.04 -0.04 0 -0.08 0 -0.08 c0.2 -0.12 0.24 -0.24 0.04 -0.4 c-0.04 -0.04 0 -0.12 0.04 -0.16 c0 -0.12 -0.12 -0.28 -0.28 -0.32 c-0.08 -0.04 -0.12 -0.12 -0.08 -0.24 c0.04 -0.08 0.12 -0.2 -0.08 -0.28 c-0.04 -0.04 -0.04 -0.08 0.04 -0.16 c0.04 0 0.08 -0.04 0.04 -0.12 c0 -0.04 -0.08 -0.08 -0.12 -0.04 c-0.08 0.04 -0.08 -0.04 -0.08 -0.08 c0.04 -0.12 -0.08 -0.2 0.04 -0.28 c0.04 -0.04 0 -0.12 0 -0.16 c-0.2 -0.2 -0.2 -0.44 -0.24 -0.68 c0 -0.16 0 -0.16 -0.12 -0.08 l-0.04 0 c-0.04 -0.04 -0.04 -0.08 0 -0.12 c0.08 -0.24 0.08 -0.24 -0.12 -0.36 c-0.16 -0.08 -0.12 -0.24 -0.16 -0.4 c0 0 0.04 -0.04 0 -0.08 s-0.12 0 -0.16 -0.08 c0 -0.08 0.12 0 0.12 -0.04 l0 -0.08 c0 -0.08 -0.04 -0.08 -0.08 -0.04 c-0.08 0.04 -0.08 -0.04 -0.12 -0.08 s0 -0.08 0.04 -0.08 c0.08 -0.08 0.08 -0.12 0.04 -0.2 c-0.16 -0.16 -0.04 -0.4 -0.2 -0.52 c-0.04 -0.04 0 -0.12 -0.08 -0.12 c-0.04 0.04 -0.04 0 -0.04 -0.04 c0.12 -0.08 0.04 -0.12 0.04 -0.24 c-0.04 -0.08 -0.04 -0.2 -0.16 -0.16 c-0.04 0 -0.08 -0.04 -0.04 -0.08 c0.16 -0.2 0.08 -0.36 -0.04 -0.56 c0 -0.04 -0.04 -0.04 -0.08 -0.04 c-0.2 0.04 -0.16 -0.12 -0.12 -0.2 c0.04 -0.12 0 -0.24 -0.08 -0.4 c-0.04 -0.04 -0.04 -0.16 -0.04 -0.24 c0.04 -0.16 -0.08 -0.28 -0.16 -0.36 c-0.12 -0.08 -0.08 -0.08 -0.04 -0.12 c0.08 -0.04 0.16 0.04 0.16 -0.08 c-0.04 -0.08 -0.08 -0.2 -0.16 -0.2 c-0.28 -0.04 -0.28 -0.24 -0.32 -0.4 c0 -0.16 -0.08 -0.24 -0.2 -0.32 c-0.04 0 -0.08 -0.04 -0.08 -0.08 c0.08 -0.24 -0.24 -0.24 -0.24 -0.48 c0 -0.2 -0.12 -0.4 -0.16 -0.6 c-0.04 -0.16 -0.2 -0.28 -0.28 -0.44 c0 -0.04 -0.12 -0.08 -0.04 -0.16 c0.04 -0.04 0.12 -0.04 0.16 0 c0.04 0 0.08 0.04 0.12 0.04 c0.12 0.04 0.2 0.04 0.28 0 c0.08 -0.08 0.12 -0.2 0.24 -0.28 c0 -0.04 0.04 -0.08 0.08 -0.08 c0.2 0.04 0.36 0.08 0.52 -0.04 c0.04 -0.04 0.04 -0.04 0.08 0 c0.04 0 0 0.04 0 0.08 c-0.08 0.08 0 0.08 0.04 0.08 c0.08 0 0.16 -0.04 0.2 -0.04 c0.08 -0.04 0.12 -0.08 0 -0.12 c-0.04 0 -0.08 0 -0.04 -0.04 c0 -0.04 0.04 -0.04 0.04 -0.08 c0.16 0.16 0.28 -0.04 0.44 0.04 c0.04 0 0.08 0 0.08 0.04 s-0.04 0.04 -0.08 0.04 s-0.08 -0.04 -0.08 0.04 c0 0 0.04 0.04 0.08 0.04 c0.08 0 0.16 -0.04 0.2 -0.08 c0.12 -0.2 0.32 -0.2 0.52 -0.24 c0.48 -0.08 1 -0.12 1.48 -0.16 c0.12 0 0.24 -0.04 0.32 0.12 c0 0.08 0.12 0.04 0.2 0.08 c0.12 0 0.2 0.04 0.2 0.16 c0 0.04 0 0.08 0.04 0.12 c0.24 0.24 0.2 0.36 -0.12 0.44 c-0.12 0.04 -0.16 0.08 -0.08 0.2 c0.24 0.48 0.36 1 0.6 1.48 c0.16 0.36 0.2 0.76 0.32 1.12 c0.2 0.6 0.36 1.2 0.56 1.76 c0.16 0.44 0.28 0.88 0.36 1.32 c0.04 0.24 0.08 0.48 0.16 0.72 c0.2 0.76 0.4 1.56 0.72 2.28 c0.44 0.96 0.68 2.04 1 3.04 c0.12 0.32 0.24 0.6 0.32 0.92 c0.04 0.16 0.16 0.32 0.04 0.52 c-0.04 0.04 -0.04 0.16 0.08 0.16 c0.16 0.04 0.16 0.16 0.12 0.28 c-0.04 0.16 -0.04 0.24 0.12 0.32 c0.04 0 0.08 0.04 0 0.08 c0 0.04 -0.04 0.08 0 0.08 c0.16 0.12 0.24 0.24 0.2 0.44 c0 0.08 0.08 0.08 0.08 0.16 c0.08 0.24 0.12 0.48 0.28 0.72 c0.08 0.12 0.12 0.28 0.2 0.44 c0.08 0.2 0.08 0.44 0.24 0.64 c0.04 0.04 0 0.08 0.04 0.12 c0.04 0.08 -0.16 0.24 0.08 0.2 l0 0.04 c0.12 0.44 0.4 0.8 0.48 1.24 c0 0.08 0.12 0.2 -0.08 0.12 c-0.08 -0.04 -0.08 0.04 -0.04 0.08 c0.16 0.08 0.16 0.28 0.24 0.4 c0.04 0.08 0.08 0.2 0.12 0.28 c0.12 0.16 -0.12 0.12 -0.08 0.16 s0.16 0 0.2 0.08 c0 0.08 0 0.16 0.04 0.16 c0.08 0 0.12 -0.08 0.12 -0.16 c0.08 -0.28 0.16 -0.52 0.24 -0.8 c0.16 -0.6 0.4 -1.16 0.64 -1.68 c0.16 -0.32 0.24 -0.6 0.32 -0.92 c0.12 -0.36 0.24 -0.68 0.4 -1.04 c0.2 -0.36 0.24 -0.84 0.44 -1.2 s0.2 -0.76 0.32 -1.12 c0.08 -0.2 0.12 -0.4 0.2 -0.64 c0.12 -0.36 0.2 -0.72 0.32 -1.08 c0 -0.08 0 -0.16 0.08 -0.2 c0 -0.04 0.04 -0.04 0.04 -0.08 c-0.08 -0.28 0.04 -0.52 0.12 -0.8 c0.04 -0.2 0.08 -0.36 0.16 -0.52 c0.12 -0.16 0.12 -0.36 0.28 -0.52 c0.04 -0.04 0 -0.16 0.12 -0.08 c0.04 0.04 0.08 0 0.04 -0.04 c-0.04 -0.08 -0.08 -0.12 0.04 -0.16 l0 -0.04 c-0.12 -0.24 -0.08 -0.24 0.04 -0.44 c0.04 -0.08 0.08 -0.2 0.08 -0.28 c0 -0.12 0.04 -0.28 0.12 -0.36 c0.08 -0.04 0.08 -0.12 0.08 -0.16 c0 -0.12 -0.04 -0.24 0.16 -0.24 c0 0 0.04 -0.04 0.04 -0.08 c-0.24 -0.2 0.04 -0.28 0.12 -0.4 c0.12 -0.2 0.32 -0.36 0.2 -0.68 c-0.04 -0.12 0.08 -0.28 0.16 -0.44 c0.04 -0.04 0.04 0 0.08 0.04 s0.08 0 0.04 -0.04 c-0.08 -0.2 0.08 -0.36 0.16 -0.52 c0.04 -0.12 0.08 -0.2 0.04 -0.32 l0 0 c0.32 0 0.04 -0.16 0.04 -0.16 c-0.04 -0.16 0.04 -0.32 0.2 -0.36 l0.08 0 c-0.04 -0.2 0.16 -0.32 0.12 -0.52 c-0.08 -0.28 0.04 -0.56 0.08 -0.8 c0 -0.12 0.08 -0.24 0.08 -0.36 c-0.04 -0.28 0.08 -0.48 0.2 -0.72 c0.08 -0.2 0.08 -0.44 0.16 -0.68 s0.32 -0.4 0.4 -0.68 c0.04 -0.08 0.12 0 0.2 0 s0.16 0 0.16 -0.12 c0.04 -0.12 -0.04 -0.12 -0.12 -0.16 c-0.16 -0.08 -0.32 -0.24 -0.52 -0.32 c-0.08 -0.04 -0.04 -0.16 -0.12 -0.24 c-0.08 -0.12 0.08 -0.16 0.08 -0.24 c0.08 -0.12 0.12 -0.12 0.24 -0.08 c0 0 0.04 0.04 0.04 0 c0.08 -0.16 0.28 -0.04 0.4 -0.12 c0.08 -0.04 0.16 -0.04 0.2 0 c0.24 0.08 0.44 0.04 0.68 0.12 c0.04 0.04 0.04 0 0.08 0 c0.28 -0.08 0.56 -0.24 0.84 0.04 l0.08 0 c0.2 0 0.36 0 0.52 -0.08 s0.28 0.04 0.44 0.04 c0.2 0.04 0.44 -0.04 0.6 0.16 c0 0.04 0.04 0 0.08 0 c0.16 -0.08 0.28 0 0.36 0.16 c0 0.04 0 0.12 0.04 0.12 c0.24 0.08 0.2 0.28 0.2 0.48 c-0.08 0.28 -0.04 0.6 -0.24 0.84 c-0.04 0.04 0 0.08 0 0.08 c0 0.16 -0.04 0.28 -0.12 0.4 c-0.08 0.16 -0.08 0.32 -0.16 0.48 c-0.08 0.2 -0.08 0.48 -0.32 0.64 c-0.08 0 -0.08 0.04 -0.04 0.12 c0.08 0.16 -0.08 0.32 0 0.48 c0.04 0 0 0.04 0 0.08 c-0.12 0.08 -0.08 0.24 -0.12 0.32 c-0.16 0.36 -0.2 0.72 -0.28 1.04 c-0.12 0.36 -0.32 0.68 -0.4 1.08 c-0.04 0.2 -0.08 0.44 -0.2 0.6 c-0.08 0.12 0.04 0.36 -0.2 0.44 c-0.08 0 0.08 0.16 0.04 0.24 c-0.04 0.16 -0.04 0.36 -0.16 0.4 c-0.12 0.12 -0.12 0.24 -0.12 0.36 c0 0.16 -0.08 0.24 -0.24 0.24 c-0.08 0 -0.16 0.04 -0.16 0.08 c0.04 0.08 0.08 0 0.12 0 c0.08 0 0.08 0.12 0.16 0.08 c0.04 0 0.04 0.08 0 0.08 c-0.08 0.04 -0.08 0.16 -0.08 0.2 c-0.12 0.12 -0.04 0.24 -0.08 0.32 c0 0.28 -0.16 0.44 -0.24 0.68 c-0.04 0.08 -0.08 0.12 -0.04 0.2 c0.04 0.16 0 0.24 -0.2 0.28 c-0.04 0 -0.04 0 -0.08 0.04 c0 0.04 0.04 0.04 0.08 0.08 c0 0 0.12 0.04 0.08 0.04 c-0.12 0.04 -0.04 0.2 -0.16 0.2 c0 0 -0.08 -0.04 -0.04 0 c0.12 0.2 -0.08 0.36 -0.12 0.48 c-0.16 0.32 -0.28 0.68 -0.4 1 c-0.16 0.4 -0.28 0.8 -0.4 1.2 c-0.2 0.68 -0.4 1.36 -0.64 2 c-0.16 0.44 -0.24 0.92 -0.36 1.36 c-0.2 0.68 -0.36 1.36 -0.6 2 c-0.12 0.36 -0.24 0.68 -0.36 1.04 c-0.16 0.44 -0.24 0.92 -0.36 1.36 c-0.08 0.28 -0.2 0.56 -0.24 0.84 c0 0.44 -0.16 0.84 -0.2 1.28 c0 0.2 -0.16 0.36 -0.12 0.6 c0 0 -0.04 0.04 -0.08 0.04 c-0.16 -0.04 -0.2 0.16 -0.28 0.24 c-0.04 0 -0.04 0 -0.04 0.04 c0.08 0.28 -0.08 0.52 -0.16 0.8 c-0.12 0.2 -0.24 0.4 -0.36 0.56 c-0.04 0.12 0 0.16 0.04 0.16 c0.12 0.04 0.2 0.12 0.36 0.12 c0.12 0 0.16 0.12 0.24 0.2 c0.04 0.08 0 0.12 -0.12 0.16 c-0.04 0 0.04 0.12 -0.04 0.2 c-0.08 0.04 -0.12 0.12 -0.2 0.12 c-0.2 0 -0.36 -0.08 -0.52 0.04 c-0.04 0.04 -0.24 -0.08 -0.28 -0.2 c-0.08 -0.16 -0.4 -0.2 -0.52 -0.12 c0 0.04 -0.04 0.08 -0.04 0.12 c0.04 0.04 0.08 0 0.12 0 c0.08 -0.04 0.16 -0.04 0.16 0.08 c0 0.04 0.04 0.08 0 0.08 c-0.04 0.04 0 -0.04 -0.04 -0.04 c-0.12 0 -0.2 0.04 -0.32 0.12 z M13.36 38.92 c0.04 -0.04 0.08 -0.08 0.12 -0.08 c0.04 -0.04 0.04 -0.12 0.12 -0.04 s0.12 0 0.12 -0.04 c0.04 -0.08 0 -0.12 -0.08 -0.12 c-0.08 -0.04 -0.16 -0.04 -0.12 -0.16 c0 -0.04 0 -0.08 -0.04 -0.08 c-0.04 -0.04 -0.08 0 -0.08 0.04 c-0.16 0.12 -0.04 0.28 -0.12 0.44 c0 0 0.04 0.04 0.08 0.04 z M11.04 28.36 c0.04 -0.04 0.08 -0.08 0.08 -0.12 s-0.04 -0.08 -0.04 -0.12 c0 -0.2 -0.16 -0.16 -0.24 -0.24 c-0.08 0.08 0.04 0.16 0.04 0.24 c0 0.04 -0.04 0.16 0.04 0.2 c0.04 0 0.04 0.08 0.12 0.04 z M11.24 28.32 c0.04 0 0.12 -0.04 0.12 -0.12 c0 -0.04 -0.04 -0.12 -0.12 -0.16 c-0.08 0 -0.04 0.08 -0.04 0.12 c0 0.08 -0.04 0.16 0.04 0.16 z M12.28 28.28 c0.04 -0.04 0.16 0 0.16 -0.04 c0 -0.12 -0.04 -0.16 -0.12 -0.16 c-0.04 0.04 -0.08 0.08 -0.08 0.16 c0 0.04 0 0.08 0.04 0.04 z M10.16 26.48 c0 0.04 0.08 0 0.08 0 c0.08 -0.12 0.08 -0.2 0 -0.28 c-0.04 -0.04 -0.16 -0.04 -0.04 -0.12 c0.04 0 0.04 -0.08 0 -0.08 c-0.08 -0.04 -0.08 -0.08 -0.04 -0.16 c0.04 -0.04 0.04 -0.08 0 -0.12 c0 -0.28 -0.32 -0.36 -0.4 -0.6 c0 -0.04 -0.04 -0.12 -0.12 0 c0 0.04 -0.08 0.08 -0.04 0.12 c0.04 0.12 0.08 -0.04 0.12 -0.04 s0.04 0.04 0.04 0.08 c-0.08 0.08 -0.04 0.16 -0.12 0.24 c-0.04 0.04 -0.04 0.12 0 0.12 c0.16 0 0.16 0.08 0.12 0.16 c0 0.08 0.04 0.12 0.08 0.12 c0.04 0.04 0.08 0.08 0.04 0.12 c-0.16 0.08 -0.04 0.16 0 0.24 c0.08 0.08 0.28 0.04 0.28 0.2 z M10.68 26.64 c0.08 -0.04 -0.04 -0.04 -0.04 -0.08 c0 -0.08 -0.04 -0.2 -0.08 -0.28 c-0.12 -0.16 0 -0.16 0.12 -0.12 c0.08 0.04 0.08 -0.04 0.08 -0.12 l-0.04 -0.08 c-0.08 0.12 -0.28 0.04 -0.28 0.2 c-0.04 0.16 0.04 0.32 0.12 0.44 c0.04 0.04 0.12 0.08 0.12 0.04 z M10.48 26 c0.08 -0.04 0.2 -0.04 0.12 -0.16 c0 -0.04 -0.08 -0.04 -0.04 -0.08 l0.08 0 c0.04 0.04 0.12 0.08 0.12 0 c0 -0.12 -0.08 -0.2 -0.12 -0.28 c0 -0.04 -0.04 -0.04 -0.08 -0.04 s-0.04 0.04 -0.04 0.08 c0.04 0.12 -0.04 0.16 -0.12 0.2 c-0.04 0.04 -0.12 0.08 -0.08 0.12 c0.08 0.04 0.04 0.16 0.16 0.16 z M10.04 24.119999999999997 c0.16 -0.04 0.04 -0.12 0.04 -0.16 c-0.04 -0.04 -0.04 -0.08 0 -0.04 c0.08 0.04 0.12 -0.04 0.16 -0.08 s0.16 -0.12 0.2 -0.12 c0.12 0.04 0.2 0.08 0.2 -0.08 c0 -0.08 0.08 -0.12 0 -0.16 s-0.16 -0.08 -0.2 0.08 c-0.04 0.12 -0.12 0.24 -0.24 0.12 c-0.08 -0.04 -0.12 0 -0.16 0.04 c-0.08 0.04 -0.08 0.04 -0.08 -0.08 c0.04 -0.08 -0.04 -0.16 -0.08 -0.16 c-0.08 0.12 -0.16 0.12 -0.24 0 c-0.04 -0.04 -0.16 -0.04 -0.04 -0.12 c0.04 -0.04 0.04 -0.08 0 -0.12 c0 -0.04 -0.04 0 -0.08 0.04 c-0.08 0.04 -0.12 0.12 -0.16 0.2 c-0.04 -0.04 -0.12 0 -0.12 0.04 c0.08 0.12 -0.04 0.24 0 0.36 c0.04 0.04 0.04 0.12 0.12 0.08 c0.08 0 0.12 -0.04 0.08 -0.12 c0 -0.12 -0.04 -0.24 -0.08 -0.36 c0.12 0 0.16 0.04 0.16 0.16 s0.04 0.16 0.16 0.12 c0.12 -0.08 0.12 0 0.08 0.08 l0 0.2 c0.04 0.2 0.16 0.12 0.28 0.08 z M10.36 23.32 c0.08 0 0.16 -0.04 0.24 -0.04 c0.12 0 0.04 -0.12 0.08 -0.16 c-0.04 -0.08 0.04 -0.12 -0.04 -0.16 c-0.08 0 -0.12 0.04 -0.08 0.12 c0 0.04 -0.04 0.04 -0.08 0.08 s-0.08 0.08 -0.12 0.16 z M9.28 22.68 c0 0 0.04 -0.04 0.04 -0.08 l0 -0.08 c-0.04 -0.04 -0.04 -0.12 0 -0.16 c0.04 0 0.08 0.04 0.12 0.08 c0 0.04 0 0.08 0.12 0.04 c0.08 -0.04 0.08 -0.08 0.04 -0.16 c0 -0.04 -0.04 -0.08 0 -0.08 l0.08 0 c0.16 0.16 0.16 0 0.2 -0.08 c0 -0.04 -0.04 -0.12 0 -0.12 c0.08 -0.04 0.08 0.04 0.12 0.08 s0.08 0.12 0.12 0.12 c0.12 -0.04 0 -0.12 0.04 -0.2 l0.04 -0.04 c0 -0.08 0.04 -0.2 -0.08 -0.24 s-0.16 0.04 -0.2 0.12 c-0.04 0.12 -0.08 0.12 -0.2 0.04 c-0.04 -0.08 -0.08 -0.04 -0.12 0 c-0.08 0.16 -0.08 0.2 -0.24 0.08 c0 -0.04 -0.04 -0.04 -0.08 -0.04 c-0.28 0 -0.32 -0.04 -0.36 -0.32 c-0.04 -0.08 -0.04 -0.08 -0.08 -0.08 c-0.12 -0.04 -0.24 -0.16 -0.24 -0.24 c-0.04 -0.04 -0.04 -0.08 0.04 -0.12 c0.08 0 0.16 -0.08 0.24 -0.12 c0.12 -0.04 0.12 -0.04 0.12 0.04 c0 0.04 0.04 0.08 0.08 0.08 c0.08 0 0.04 -0.08 0.04 -0.12 c-0.04 -0.08 -0.08 -0.12 -0.12 -0.2 c0 -0.04 -0.04 -0.04 -0.04 -0.08 c0.04 -0.04 0.08 -0.04 0.12 0 c0.08 0.04 0.08 -0.04 0.08 -0.08 c-0.04 -0.12 -0.08 -0.2 -0.2 -0.16 s-0.12 -0.04 -0.12 -0.12 c0.04 -0.08 0.2 -0.12 0.16 -0.16 c-0.04 -0.12 -0.08 0.08 -0.2 0.04 c-0.12 -0.08 -0.24 -0.16 -0.24 -0.28 c0 -0.08 -0.08 -0.12 -0.16 -0.12 c-0.08 0.04 0 0.12 0 0.16 c0.04 0.12 0.12 0.24 -0.04 0.36 c-0.08 0.04 -0.04 0.12 -0.04 0.2 c0.04 0.16 0.16 0.32 0.16 0.48 c0 0.28 0.04 0.52 0.32 0.68 c0 0 0.04 0.08 0 0.08 c-0.04 0.04 -0.04 0.04 -0.08 0 c0 -0.04 0 -0.08 -0.04 -0.08 c-0.04 0.04 -0.04 0.08 -0.04 0.12 c0.04 0.12 0.08 0.24 0.16 0.32 c0 0.08 0.08 0.16 0.2 0.08 c0.16 -0.08 0.16 0.04 0.2 0.12 c0.04 0.04 0.04 0.12 0.04 0.16 s0 0.08 0.04 0.08 z M9.8 20.76 c0.04 0 0 -0.08 0.04 -0.16 c0 -0.08 -0.08 -0.16 -0.12 -0.28 c0 -0.04 -0.08 -0.04 -0.12 -0.04 l-0.04 0.04 c-0.04 0.08 0 0.08 0.04 0.12 c0.08 0.04 0.16 0.08 0 0.12 c-0.04 0.04 -0.04 0.12 0 0.12 c0.04 0.08 0.12 0.08 0.2 0.08 z M8.36 19.64 c0.08 0 0.04 -0.08 0.04 -0.12 s0 -0.08 0.04 -0.04 c0.04 0 0.08 -0.04 0.12 0 c0.08 0.04 0.16 0.08 0.24 0.04 c0 -0.04 0.08 -0.04 0.04 -0.04 c-0.2 -0.12 -0.08 -0.2 0 -0.32 c-0.16 -0.04 -0.08 -0.24 -0.28 -0.28 c-0.16 -0.08 -0.32 -0.24 -0.52 -0.32 c-0.08 -0.04 -0.08 -0.04 -0.16 0 c-0.12 0.08 -0.16 0.16 -0.08 0.32 c0.08 0.08 0.08 0.2 0.12 0.28 c0 0.12 0.04 0.2 0.16 0.16 c0.08 0 0.12 0.04 0.12 0.12 c0 0.04 0.04 0.08 0.08 0.12 c0 0.04 0.04 0.08 0.08 0.08 z M9.36 19.56 c0.16 0 0.24 -0.08 0.16 -0.12 c-0.12 -0.16 -0.16 -0.4 -0.2 -0.56 c-0.08 -0.16 -0.12 -0.28 -0.24 -0.36 c-0.04 0 -0.08 -0.08 -0.12 0.04 c-0.04 0.08 -0.04 0.2 -0.16 0.28 c-0.04 0.04 0 0.08 0 0.12 c0.04 0.12 0.08 0.04 0.08 0 c0.04 0 0.08 0.04 0.08 0.08 c0.04 0.08 0.12 0.16 0.12 0.28 c0.04 0.12 0.2 0.16 0.28 0.24 z M21.24 21.84 c0.08 -0.04 0.08 -0.16 0.12 -0.24 c0.04 0 0.04 -0.08 -0.04 -0.08 s-0.04 0.08 -0.08 0.16 c0 0.04 -0.04 0.08 -0.04 0.12 c-0.04 0.04 0 0.04 0.04 0.04 z M49.735 39.48 c-1.16 0.08 -2.32 0.04 -3.44 -0.2 c-0.44 -0.12 -0.92 -0.2 -1.36 -0.4 c-0.28 -0.08 -0.6 -0.12 -0.88 -0.2 c-0.44 -0.12 -0.8 -0.28 -1.04 -0.68 c-0.04 -0.04 -0.12 -0.08 -0.16 -0.12 c-0.08 -0.04 -0.16 -0.08 -0.16 -0.2 c0 -0.16 -0.16 -0.2 -0.24 -0.2 c-0.12 -0.04 -0.24 -0.08 -0.28 -0.2 c-0.08 -0.08 -0.2 -0.16 -0.32 -0.2 c-0.52 -0.16 -0.92 -0.52 -1.24 -0.96 c-0.28 -0.36 -0.56 -0.68 -0.84 -1.04 c-0.04 -0.04 -0.08 -0.08 -0.12 -0.16 c-0.16 -0.28 -0.36 -0.56 -0.52 -0.84 c-0.16 -0.32 -0.44 -0.6 -0.6 -0.92 c-0.12 -0.28 -0.32 -0.52 -0.48 -0.8 c-0.24 -0.36 -0.44 -0.72 -0.6 -1.12 l-0.24 -0.6 c-0.32 -0.84 -0.52 -1.76 -0.6 -2.64 c0 -0.28 -0.04 -0.6 -0.04 -0.88 c0 -0.12 0 -0.28 0.08 -0.4 c0 -0.04 0.04 -0.12 0 -0.16 c-0.16 -0.2 -0.04 -0.48 -0.04 -0.68 c0.08 -0.36 0.04 -0.68 0.12 -1.04 c0.12 -0.36 0.16 -0.72 0.24 -1.08 c0.04 -0.24 0.08 -0.48 0.16 -0.72 c0.12 -0.24 0.08 -0.6 0.4 -0.8 c0.04 -0.04 0 -0.12 0 -0.2 c0.16 -0.44 0.44 -0.84 0.64 -1.28 c0.28 -0.6 0.76 -1.04 1.12 -1.56 c0.24 -0.36 0.6 -0.64 0.92 -0.92 c0.12 -0.12 0.2 -0.32 0.28 -0.44 c0.24 -0.24 0.48 -0.48 0.68 -0.72 c0.28 -0.36 0.68 -0.64 1 -0.96 c0.08 -0.08 0.2 -0.16 0.32 -0.2 c0.2 -0.08 0.4 -0.2 0.52 -0.36 c0.24 -0.36 0.68 -0.44 0.96 -0.68 c0.16 -0.16 0.32 -0.32 0.48 -0.44 c0.08 -0.04 0.12 -0.08 0.16 -0.08 c0.08 0.04 0.12 0 0.16 -0.08 c0.12 -0.16 0.36 -0.2 0.52 -0.16 c0.28 0.04 0.48 -0.04 0.6 -0.24 c0.08 -0.08 0.16 -0.12 0.24 -0.08 c0.28 0.08 0.48 -0.08 0.68 -0.24 c0 0 0 -0.04 0.04 -0.04 l0 0.04 c0 0.08 0.04 0.16 0 0.2 c-0.08 0.12 -0.04 0.2 0.08 0.24 c0.08 0.04 0.12 0.12 0 0.16 c-0.16 0.04 -0.24 0.16 -0.36 0.28 c-0.04 0.08 -0.08 0.16 -0.2 0.16 c-0.04 0 -0.04 0.04 -0.04 0.08 s0.04 0.04 0.08 0.04 c0.16 0 0.36 -0.04 0.52 0 c0.04 0 0.12 -0.04 0.12 0.04 c0.04 0.04 -0.04 0.08 -0.12 0.12 c-0.16 0.08 -0.28 0.16 -0.44 0.24 c-0.08 0.04 -0.12 0.04 -0.08 0.12 s0.08 0.04 0.12 0 s0.12 -0.04 0.16 0 c0.04 0.08 -0.04 0.12 -0.08 0.16 c0 0.04 -0.12 0.04 -0.08 0.08 s0.08 0 0.12 -0.04 c0.2 -0.16 0.48 -0.16 0.64 -0.36 c0.04 0 0.16 -0.04 0.16 0.12 c0 0.08 0 0.12 0.12 0.08 s0.24 -0.04 0.36 -0.04 c0.16 0 0.4 0.08 0.52 -0.16 c0.04 -0.08 0.12 0 0.2 -0.04 c0 0.04 0 0.12 -0.04 0.16 c-0.04 0.12 -0.16 0.2 -0.2 0.28 c-0.04 0.04 -0.12 0 -0.08 0.08 c0.04 0.04 0.08 0.04 0.12 0 c0.12 -0.12 0.28 -0.24 0.48 -0.2 c0.04 0 0.04 -0.04 0.04 -0.08 c0 -0.08 0.04 -0.12 0.12 -0.12 c0.08 -0.04 0.2 0 0.16 -0.16 c0 -0.04 0.08 0 0.12 0 s0.12 0.12 0.16 -0.04 l0.08 0 c0.16 0.08 0.36 0 0.52 0.04 c0.08 0 0.16 0 0.2 -0.04 c0.04 -0.08 0.08 -0.04 0.08 0.04 c0 0.04 0 0.08 0.08 0.08 c0.04 0 0.12 -0.04 0.12 -0.12 s0 -0.08 0.08 -0.08 c0.04 0 0.16 -0.04 0.16 0.08 s0.08 0.12 0.16 0.08 c0.12 0 0.24 -0.08 0.36 0 c0.08 0.04 0.08 -0.08 0.08 -0.12 c0.04 0 0.04 -0.08 0.08 -0.08 s0.04 0.08 0.04 0.08 c0 0.08 0 0.12 0.08 0.08 c0.04 0 0.08 -0.08 0.04 -0.12 c-0.08 -0.08 -0.08 -0.16 0.04 -0.2 l0.04 0 c-0.12 -0.16 0.08 -0.28 0.04 -0.4 c0 -0.12 -0.12 -0.12 -0.2 -0.12 c0 -0.04 0 -0.04 -0.04 -0.04 c0.04 0 0.04 -0.04 0.04 -0.04 c0.16 0 0.08 -0.04 0.04 -0.08 c0 -0.04 -0.04 -0.08 -0.04 -0.08 c-0.08 -0.04 -0.12 -0.08 -0.08 -0.16 c0 -0.04 0.08 -0.08 0.16 -0.08 c0 0 0.08 0 0.12 0.04 c0.04 0.08 -0.04 0.04 -0.08 0.08 c-0.04 0 -0.08 0.04 -0.04 0.08 c0 0.04 0.04 0.08 0.08 0.04 c0.12 -0.04 0.28 -0.08 0.36 -0.2 c0.04 0 0 -0.04 -0.04 -0.04 c-0.12 -0.04 0 -0.24 -0.12 -0.28 c0 0 0 -0.04 0.04 -0.04 l0.04 0.04 c0.08 0.12 0.28 0.16 0.28 0.32 c0 0.04 0 0.04 0.04 0.04 c0 -0.04 0.04 -0.04 0.04 -0.08 c0.04 -0.04 0 -0.08 0.08 -0.08 l0 0.08 c0.04 0.04 -0.08 0.12 0 0.12 c0.04 0 0.16 0.08 0.16 -0.08 c0 0 0.04 -0.04 0.08 0 c0.08 0.16 0.28 0.12 0.4 0.2 c0.12 0.12 0.32 0.16 0.48 0.2 c0.2 0.08 0.4 0.2 0.48 0.32 c0.12 0.28 0.44 0.24 0.64 0.44 c0.12 0.08 0.28 0.12 0.44 0.24 c0.16 0.08 0.32 0.24 0.48 0.32 c0.2 0.12 0.4 0.2 0.6 0.4 c0.04 0.04 0.16 0.12 -0.04 0.16 c-0.08 0.04 -0.04 0.08 0 0.12 c0.04 0.08 0.12 0.12 0.2 0.12 c0 0 0.04 0.04 0.08 0 c0 -0.04 -0.04 -0.04 -0.04 -0.04 c-0.04 -0.04 -0.12 -0.08 -0.08 -0.12 c0.08 -0.04 0.12 -0.12 0.2 -0.04 c0.08 0.12 0.24 0.16 0.32 0.28 c0 0.04 0.04 0.04 0.04 0.04 c0.2 -0.08 0.32 0 0.44 0.16 c0.04 0.08 0 0.28 0.2 0.16 c0.04 0 0.04 0.04 0.04 0.04 c0 0.04 0 0.08 -0.04 0.08 c-0.08 0.04 -0.12 0.24 -0.08 0.36 c0.04 0 0.08 0.04 0.08 0 c0.08 -0.04 0.04 -0.12 0.04 -0.16 c0 -0.08 -0.16 -0.04 -0.04 -0.12 c0.08 -0.08 0.16 0 0.2 0.04 c0.04 0.08 0.08 0.12 0.16 0.12 c0 0 0.16 0 0.08 0.08 c-0.08 0.04 -0.04 0.08 0 0.08 c0.32 -0.08 0.36 0.2 0.52 0.36 l0.28 0.28 s0.16 0.12 0.24 0.16 c0.04 0.08 0.16 0.2 -0.04 0.2 c-0.04 0.04 -0.08 0.04 -0.08 0.08 c0.04 0.08 0.08 0.08 0.12 0.04 c0.04 -0.08 0.12 -0.08 0.16 -0.04 c0.04 0.08 -0.04 0.12 -0.08 0.12 c0 0.04 -0.12 0.04 -0.04 0.12 c0 0 0.08 0.04 0.16 -0.04 c0 -0.04 0.04 -0.08 0.08 -0.08 c0.04 0.04 0.04 0.08 0.04 0.16 c0 0.04 0 0.12 0.08 0.16 c0.04 0 0.08 0.04 0.08 0.04 c-0.16 0.16 0.04 0.16 0.12 0.24 c0.12 0.16 0.32 0.28 0.16 0.52 c0 0.04 0.04 0.08 0.04 0.08 c0.24 0 0.2 0.16 0.24 0.28 s0 0.2 -0.12 0.28 c-0.04 0 -0.12 -0.12 -0.16 -0.04 c-0.08 0.12 -0.12 0.08 -0.16 0 c-0.04 -0.04 -0.04 -0.08 -0.12 -0.04 c-0.04 0 -0.04 0.04 -0.04 0.08 c0 0.08 0.08 0.04 0.12 0.08 l0.28 0 c-0.04 0.2 -0.16 0.12 -0.24 0.08 c-0.04 0 -0.08 0 -0.12 0.04 c0 0.04 0.04 0.04 0.08 0.04 c0.16 0.04 0.08 0.12 0.04 0.2 c0 0.04 -0.08 0.04 -0.04 0.12 s0.12 0 0.16 0 c0.08 0 -0.04 -0.08 0 -0.12 s0 -0.16 0.08 -0.16 s0.08 0.08 0.08 0.16 c0 0.04 0 0.12 0.04 0.16 s0.08 0.08 0.16 0.08 c0.04 -0.04 0.04 -0.08 0.04 -0.12 c-0.04 -0.2 -0.16 -0.36 -0.28 -0.48 l0.08 -0.08 c0.04 0.08 0.12 0.16 0.24 0.08 c0.08 0 0.12 0.08 0.16 0.16 c0.12 0.28 0.16 0.56 0.16 0.84 c-0.16 0 -0.2 -0.12 -0.2 -0.24 c0 -0.04 0.04 -0.08 0 -0.08 c-0.04 -0.04 -0.08 0 -0.08 0.04 c-0.04 0.08 0 0.16 -0.12 0.12 c-0.08 0 -0.16 0 -0.16 -0.16 c0 -0.04 -0.04 -0.08 -0.12 -0.04 c-0.12 0.04 -0.08 0.12 0 0.2 c0.08 0.04 0.16 0.08 0.08 0.24 c-0.04 0.08 0.16 0.12 0.12 0.24 c0.04 0 0.08 -0.04 0.08 -0.04 l0 -0.16 c0.04 -0.04 -0.04 -0.12 0.04 -0.16 c0.08 0 0.12 0 0.16 0.08 c0.08 0.04 0.16 0 0.2 -0.04 l0.04 0.04 c-0.08 0.2 0.12 0.32 0.08 0.52 c0 0.12 0.08 0.2 0.08 0.28 c0 0.12 0 0.2 -0.16 0.16 l-0.12 0 s-0.04 0 -0.08 0.04 l0.04 0.04 c0.12 0.04 0.16 0.12 0.2 0.16 c0.08 0.08 0.2 0.16 0.04 0.24 c-0.04 0.04 0 0.08 0.04 0.08 c0.24 0 0.32 0.16 0.44 0.32 c0.04 0.04 0 0.08 0 0.12 c-0.04 0.08 -0.04 0.16 0.04 0.2 c0.08 0.08 0.08 0.12 -0.04 0.16 c-0.04 0.04 -0.04 0.12 0 0.12 c0.12 0 -0.04 0.24 0.16 0.16 c0.08 0 0.16 0 0.2 0.08 s0.04 0.2 0.08 0.32 c0 0.04 -0.08 0 -0.12 -0.04 c-0.08 0 -0.08 -0.04 -0.08 -0.08 c-0.04 -0.08 0.12 -0.12 0 -0.16 c-0.08 -0.04 -0.12 0 -0.12 0.08 c-0.04 0.08 -0.08 0.16 0 0.2 l0.24 0.12 c0.04 0.04 0.08 0.08 0.08 0.12 s-0.08 0.04 -0.12 0.04 c-0.08 0 0 -0.04 -0.04 -0.08 c0 -0.08 -0.08 -0.08 -0.12 -0.08 c-0.08 0 -0.08 0.04 -0.08 0.08 c0 0.16 -0.16 0.32 0.04 0.48 l0 0.04 c-0.04 0.04 -0.16 0.08 -0.04 0.12 c0.08 0 0.16 0.04 0.2 -0.08 c0 -0.08 0.04 -0.2 0.04 -0.28 c-0.04 -0.08 0 -0.08 0.04 -0.12 c0.12 0 0.08 0.08 0.08 0.08 c0.04 0.12 0.04 0.12 -0.04 0.16 s-0.04 0.08 -0.04 0.12 c0.04 0.04 0.08 0.08 0.12 0.04 c0.16 -0.12 0.16 0.04 0.16 0.12 c0 0.12 -0.04 0.28 -0.04 0.44 c-0.04 0.08 -0.04 0.08 -0.12 0.08 s-0.16 0 -0.12 -0.12 l0 -0.12 c0 -0.08 0 -0.16 -0.08 -0.12 c-0.04 0 -0.12 0 -0.12 0.08 c0 0.04 -0.04 0.12 0.04 0.12 c0.04 0 0.08 0.04 0.08 0.08 c0 0.12 0.04 0.16 0.16 0.16 c0.04 0 0.08 0 0.08 0.04 c0 0.08 0 0.08 -0.04 0.12 c-0.24 0.04 -0.08 0.16 -0.04 0.2 c0.12 0.12 0.16 0.48 0.08 0.6 c-0.04 0.04 -0.12 0.08 -0.16 0 s-0.08 -0.04 -0.12 0 c-0.08 0.04 0.04 0.12 0 0.16 s0 0.08 0.08 0.08 c0.24 -0.08 0.2 0.12 0.12 0.2 c-0.08 0.16 -0.04 0.28 -0.04 0.4 c-0.04 0.24 -0.04 0.52 -0.24 0.68 c-0.04 0 -0.04 0.04 0 0.04 c0.16 0 0.04 0.12 0.04 0.16 c0 0.08 -0.08 0.08 -0.16 0.08 c-0.04 0.04 -0.08 0 -0.12 0.04 c0 0.04 0.08 0.04 0.12 0.04 c0.12 0.08 0.08 0.2 0.08 0.28 c-0.16 0.52 -0.28 1.04 -0.48 1.56 c-0.32 0.92 -0.72 1.76 -1.2 2.64 c-0.36 0.64 -0.72 1.28 -1.2 1.88 c-0.52 0.64 -1.12 1.24 -1.8 1.72 s-1.4 0.92 -2.16 1.36 c-0.68 0.36 -1.4 0.64 -2.12 0.88 c-0.64 0.24 -1.28 0.36 -1.96 0.48 c-0.2 0.04 -0.4 0 -0.6 0.04 z M47.575 37.28 c0.04 0 0 -0.04 0 -0.04 c-0.12 -0.04 -0.24 -0.12 -0.36 -0.08 c-0.04 0.04 -0.12 0.08 -0.16 0.08 c0.04 0.08 0.12 0 0.16 0 c0.08 0.04 0.16 0.08 0.24 0.04 c0.04 0 0.08 0.08 0.12 0 z M44.815 34.64 c0 0 0.04 -0.04 0.04 -0.08 c-0.08 -0.04 -0.16 -0.08 -0.24 -0.08 c-0.04 0 -0.04 0.04 -0.04 0.08 c0.04 0.08 0.16 0 0.24 0.08 z M47.455 37 c0.08 0.04 0.16 0.08 0.16 -0.04 c-0.04 -0.08 0.04 -0.2 -0.08 -0.2 c-0.16 0.04 -0.28 -0.04 -0.44 -0.08 c-0.08 -0.04 -0.12 0 -0.16 0.04 c-0.04 0.08 -0.08 0.16 0 0.2 c0.04 0.04 0.08 0.12 0.16 0.04 c0.12 -0.08 0.24 -0.04 0.36 0.04 z M47.175000000000004 36.64 c0.12 -0.04 0.2 -0.08 0.36 -0.12 c-0.08 -0.08 -0.16 -0.16 -0.2 -0.12 c-0.08 0 -0.16 0.08 -0.2 0.16 c-0.04 0.04 0 0.08 0.04 0.08 z M46.815 35.519999999999996 c0.12 0.24 0.24 0.2 0.36 0 c0.04 -0.04 0.08 -0.04 0.04 -0.12 c-0.04 -0.04 -0.04 0.04 -0.08 0.04 c-0.08 0.04 -0.2 0.16 -0.28 0 c-0.04 -0.08 -0.12 0 -0.12 0.08 l0 0 l0.08 0 z M48.015 36.68 c0.08 -0.04 0.16 -0.08 0.16 -0.16 c0 -0.12 -0.04 -0.04 -0.12 -0.04 c-0.04 -0.04 -0.08 0 -0.08 0.12 c0 0.04 0 0.08 0.04 0.08 z M47.775000000000006 35.88 c-0.04 0 -0.16 0 -0.12 -0.12 c0 -0.08 0.04 -0.16 -0.08 -0.04 c-0.04 0.08 -0.04 0.04 -0.08 0 c0 -0.12 -0.08 -0.08 -0.12 -0.08 c-0.08 0 -0.12 0.04 -0.16 -0.04 c0 -0.04 0.08 -0.04 0.12 -0.08 c0.24 -0.04 0.48 0.08 0.48 0.24 c0 0.04 0.08 0.12 -0.04 0.12 z M47.015 34.88 c-0.12 0 -0.24 -0.04 -0.4 -0.04 c-0.04 -0.04 -0.12 -0.04 -0.2 0 c-0.04 0 -0.08 0.08 -0.12 0 c0 -0.08 0.04 -0.12 0.12 -0.16 c0.16 -0.04 0.28 0.04 0.44 0.04 c0.04 0.04 0.12 0.04 0.16 0.04 c0.08 0 0.16 -0.04 0.16 0.08 c0 0.08 -0.08 0.04 -0.16 0.04 z M48.095 35.72 c-0.04 -0.04 0 -0.08 0.04 -0.12 c0 -0.04 0 -0.08 -0.04 -0.08 c-0.12 -0.08 -0.08 -0.12 -0.04 -0.2 c0.08 -0.12 0.04 -0.12 -0.08 -0.12 c-0.2 0 -0.4 0.08 -0.6 0 c0 -0.04 -0.04 -0.04 -0.04 -0.08 l0.04 0 c0.12 0 0.24 -0.04 0.32 0 c0.04 0.04 0.08 -0.04 0.04 -0.12 c0 -0.04 -0.08 -0.08 -0.04 -0.12 c0.04 -0.08 0.08 0 0.16 0 l0.12 0 l0.08 0.08 c0 0.04 -0.04 0.04 -0.08 0.04 c-0.04 0.04 -0.08 0.04 -0.08 0.08 s0.08 0.04 0.12 0.04 l0.12 0 c0.08 0 0.12 0.08 0.08 0.12 c-0.24 0.2 0.04 0.24 0.08 0.36 c-0.04 0 -0.08 0.04 -0.12 0.08 c0 0 -0.04 0.04 -0.08 0.04 z M48.335 36.16 c-0.08 -0.08 0 -0.12 0.04 -0.16 c0.08 -0.12 0.04 -0.32 -0.08 -0.4 l0 0 c0.12 -0.04 0.2 -0.04 0.32 0 c0.12 0.08 0.24 0.12 0.4 0.08 c0.04 0 0.08 0 0.08 0.04 c0 0.08 -0.04 0.08 -0.08 0.04 l-0.24 0 c-0.12 0 -0.28 -0.04 -0.16 0.16 c0 0.04 -0.12 0.2 -0.2 0.2 c-0.04 0 0.04 0.2 -0.08 0.04 z M49.095 36.6 c-0.08 -0.08 -0.08 -0.12 0 -0.2 c0.12 -0.08 0 -0.08 -0.04 -0.12 c-0.08 0 -0.16 0 -0.16 -0.04 c0 -0.08 0.12 -0.08 0.16 -0.08 l0.04 0 l0.12 0 c0.08 0 0.16 -0.08 0.28 -0.04 c-0.04 0.08 -0.16 0.08 -0.2 0.16 s0.04 0.16 -0.08 0.24 c-0.04 0.04 -0.04 0.16 -0.12 0.08 z M48.735 35.56 c0 -0.04 0.08 -0.04 0.08 -0.08 c0 -0.08 0.12 -0.16 -0.04 -0.16 c-0.04 0 -0.08 0 -0.08 -0.08 c0 -0.04 0.12 -0.04 0.12 -0.12 c0.04 -0.08 0.08 -0.08 0.12 0 c0.04 0.04 0.08 -0.04 0.12 -0.04 c0.04 0.04 0.12 0.04 0.12 0.08 c0.04 0.04 -0.04 0.04 -0.04 0.08 c-0.04 0 -0.04 0.04 0 0.08 c0.04 0.08 -0.04 0.12 -0.12 0.12 c-0.04 0 -0.12 0 -0.16 0.04 c0 0.08 -0.08 0.08 -0.12 0.08 z M50.295 35.519999999999996 c-0.04 0 -0.08 0 -0.08 -0.04 c0.04 -0.16 -0.08 -0.12 -0.16 -0.08 c-0.04 0 -0.08 0.04 -0.08 -0.04 c0 -0.16 0.08 -0.16 0.16 -0.24 c0.04 -0.08 0.12 0 0.12 0.04 c0.08 0.12 0.12 0.08 0.2 0.04 c0.04 -0.04 0.04 -0.12 0.12 -0.08 c0.04 0.04 0.04 0.12 0.04 0.16 c-0.08 0.16 -0.24 0.12 -0.32 0.24 z M51.495000000000005 35.2 c-0.24 0 -0.36 -0.16 -0.32 -0.36 c0.04 -0.08 0 -0.08 -0.04 -0.08 s-0.12 0 -0.12 -0.04 c0 -0.08 0.08 -0.04 0.12 -0.04 c0.16 -0.04 0.28 -0.04 0.4 -0.12 c0.04 0 0.12 -0.04 0.12 0.04 c0.04 0.08 0 0.12 -0.04 0.16 c-0.04 0 -0.08 0.04 -0.04 0.08 c0 0 0.04 0.04 0.08 0.04 c0.08 -0.04 0.12 0.04 0.12 0.12 s-0.04 0.16 -0.16 0.16 c-0.04 0 -0.08 0.04 -0.12 0.04 z M52.935 35.2 c0.08 0 0.08 -0.08 0.12 -0.12 c-0.04 -0.08 -0.04 -0.12 -0.12 -0.08 c-0.08 0 -0.16 0.04 -0.16 0.12 c0 0.04 0.08 0.12 0.16 0.08 z M53.455 35.12 c0.04 0 0.08 0 0.12 -0.04 s-0.04 -0.08 -0.08 -0.12 c0.04 -0.08 0.16 0.04 0.16 -0.04 c0 -0.04 -0.04 -0.16 -0.12 -0.16 s-0.12 0 -0.16 0.08 c0 0.08 0.08 0.12 0.12 0.12 c-0.08 0.2 -0.12 0.04 -0.16 0 c-0.08 -0.08 -0.12 -0.04 -0.2 -0.04 c-0.04 0.04 -0.04 0.08 -0.04 0.12 c0.04 0.04 0.08 0.08 0.16 0.08 l0.2 0 z M41.815 22.16 c0.12 0 0.2 -0.16 0.32 -0.2 c0.04 0 0 -0.12 0.04 -0.16 l-0.04 0 c0.04 0 0.04 -0.04 0.04 -0.04 c0 -0.04 0.04 -0.12 -0.04 -0.12 c-0.08 -0.04 -0.12 0 -0.16 0.08 c-0.04 0.04 0 0.08 0.08 0.08 c0.04 0 0.04 0.04 0.04 0.08 c0 0.08 -0.04 0.04 -0.08 0.08 c-0.08 0 -0.12 -0.04 -0.2 -0.04 c-0.04 0 -0.12 0.04 -0.12 0.12 c0.04 0.04 0.08 0.16 0.12 0.12 z M42.375 21.64 c0.04 0 0.04 -0.08 0.08 -0.12 c-0.12 0 0 -0.16 -0.08 -0.12 c-0.12 0.08 -0.24 0.04 -0.32 0 c-0.04 -0.04 -0.08 -0.04 -0.12 0 c0 0.04 0.08 0.04 0.08 0.08 c0.08 0.08 0.2 0.04 0.28 0.12 c0.04 0 0 0.08 0.08 0.04 z M42.575 21.24 c0 -0.04 0.04 -0.12 0 -0.16 c-0.08 -0.04 -0.12 -0.08 -0.12 -0.16 c0.12 0.04 0.24 0 0.28 0.12 c0 0.04 0.08 0.08 0.12 0.04 c0.08 -0.08 0 -0.12 -0.04 -0.16 s-0.08 -0.08 -0.04 -0.16 c0.04 -0.2 -0.2 -0.16 -0.24 -0.28 c-0.04 0 -0.04 0.04 -0.04 0.04 c0.08 0.12 -0.08 0.28 -0.04 0.4 c-0.08 0 -0.2 0.04 -0.24 0.12 c-0.04 0.04 -0.12 0 -0.12 0.08 c0.04 0.04 0.08 0.08 0.16 0.04 c0.08 -0.08 0.24 0 0.28 0.08 c0 0.08 0.04 0.04 0.04 0 z M48.615 37.32 c0.08 0 0.04 -0.08 0.04 -0.12 c0 0 0.04 -0.04 0.08 -0.04 c0.16 0 0.04 -0.12 0.08 -0.2 c0.04 -0.12 -0.08 -0.04 -0.12 -0.08 c-0.04 -0.08 -0.24 -0.08 -0.2 -0.12 c0.08 -0.12 0.08 -0.24 0.16 -0.28 c0.04 -0.04 0.04 -0.16 0.12 -0.12 s0.04 0.12 0.04 0.2 c-0.04 0.04 -0.08 0.12 -0.04 0.12 c0.04 0.04 0.04 -0.04 0.08 -0.04 c0.08 -0.04 0.12 0 0.16 0.04 c0 0.2 0.16 0.16 0.28 0.2 c0.04 0 0.08 -0.04 0.08 0.04 s0.04 0.12 0.08 0.08 c0.08 -0.04 0 -0.08 0 -0.12 c-0.08 -0.16 -0.04 -0.32 0.12 -0.32 c0.16 -0.04 0.28 -0.12 0.36 -0.28 c0.04 -0.04 0.12 -0.04 0.16 -0.08 s0.16 0.04 0.16 -0.04 s-0.12 -0.08 -0.16 -0.08 c-0.04 0.04 -0.08 0.04 -0.08 -0.04 l0 -0.08 c0.2 -0.08 0.08 -0.2 0.08 -0.32 c0 -0.04 -0.04 -0.08 0 -0.08 c0 -0.04 0.04 0.04 0.08 0.08 l0 0.12 c0 0.08 0.04 0.12 0.16 0.08 c0.04 0 0.08 -0.08 0.12 0.04 c0.04 0.08 0.04 0.16 -0.04 0.2 c-0.04 0 -0.08 0.04 -0.04 0.08 c0.12 0.04 0.12 0.16 0.2 0.24 c0 0 0.08 0.12 0.16 0.08 s0 -0.08 0 -0.16 c0 -0.12 0.08 -0.2 0.24 -0.16 l0.2 0 c0.08 -0.04 0 -0.12 0 -0.16 c0 -0.08 0 -0.12 0.04 -0.16 c0.08 -0.08 0.16 -0.2 0.28 -0.24 c0.2 -0.04 0.24 -0.16 0.12 -0.28 c-0.04 0 -0.12 0 -0.12 -0.08 c0.04 0 0.12 0 0.16 0.04 c0.08 0.04 0.2 0.08 0.12 0.2 c-0.04 0.04 0 0.08 0.04 0.16 c0.08 0.08 0.12 0.2 0 0.32 c0 0 -0.04 0.04 0.04 0.04 c0.16 0.04 0.36 -0.12 0.44 -0.32 c0 0 0 -0.04 0.04 -0.04 c0.2 0.08 0.08 -0.08 0.12 -0.16 l0 -0.04 l0.04 0.04 l0 0.16 c0.12 -0.12 0.24 0.04 0.32 -0.08 c0.08 -0.16 0.16 -0.16 0.2 0 c0.04 0.04 0.04 0.08 0.08 0.08 s0.08 -0.04 0.08 -0.04 c-0.08 -0.08 -0.12 -0.28 -0.16 -0.28 c-0.16 0.04 -0.24 -0.04 -0.36 -0.12 c-0.2 -0.2 -0.32 0 -0.44 0.08 c-0.08 0.08 -0.08 0.08 -0.16 0 c-0.04 -0.12 0 -0.16 0.08 -0.2 s0.16 -0.04 0.28 -0.08 c0.04 -0.04 0.04 -0.04 0.04 -0.12 c0 -0.04 -0.04 -0.08 -0.08 -0.08 c-0.08 -0.04 -0.08 0.04 -0.08 0.08 c-0.04 0.12 -0.16 0.08 -0.2 0.08 c-0.08 -0.04 -0.08 -0.12 -0.04 -0.2 c0.08 -0.08 0.08 -0.2 -0.08 -0.16 c-0.04 0 -0.08 0 -0.08 -0.04 s0.04 -0.04 0.08 -0.08 c0.2 -0.04 0.36 -0.08 0.52 -0.2 c0.04 -0.04 0.08 -0.04 0.12 0 s-0.04 0.04 -0.04 0.08 c-0.04 0.04 -0.12 0.12 -0.04 0.16 s0.08 0.12 0.12 0.2 c0.04 0.16 0.08 0.12 0.2 0.08 c0.16 -0.08 0.04 -0.32 0.24 -0.36 c0 -0.04 0 -0.04 -0.04 -0.08 c-0.08 -0.12 0.04 -0.2 0.04 -0.28 c0.08 -0.12 0.16 0 0.2 0 c0.04 0.04 0.08 0.08 0.08 0.04 c0.04 -0.04 0 -0.08 -0.04 -0.08 c-0.12 -0.08 -0.12 -0.08 0 -0.2 c0.08 -0.08 0.12 -0.08 0.24 -0.12 c0.2 0 0.44 -0.12 0.52 -0.4 l0 -0.08 c0.2 -0.12 0.4 -0.28 0.6 -0.44 c0.36 -0.36 0.68 -0.68 1 -1.08 c0.08 -0.08 0.2 -0.12 0.2 -0.28 c0 -0.12 0.04 -0.16 0.16 -0.2 c0.04 0 0.12 -0.04 0.12 -0.12 c0.04 -0.12 0.16 -0.24 0.24 -0.32 c0.52 -0.52 0.8 -1.24 1.12 -1.88 c0.16 -0.32 0.28 -0.72 0.4 -1.08 c0.12 -0.52 0.28 -1 0.36 -1.52 c0.04 -0.32 -0.04 -0.4 -0.36 -0.44 c-0.04 0 -0.08 0.04 -0.08 0 c0 -0.08 0 -0.16 0.04 -0.24 c0.04 -0.16 -0.12 0 -0.12 -0.12 c-0.04 -0.28 -0.2 -0.52 -0.4 -0.72 c-0.32 -0.36 -0.68 -0.72 -0.8 -1.24 c-0.04 0 -0.04 -0.04 -0.08 -0.08 c-0.12 -0.12 -0.2 -0.32 -0.28 -0.48 c-0.04 -0.08 -0.08 -0.2 -0.16 -0.28 c-0.12 -0.16 -0.2 -0.36 -0.4 -0.52 c0 0 -0.12 -0.08 0 -0.16 c0 0 0.08 0.04 0.04 -0.04 c0 0 -0.04 0 -0.04 -0.04 c-0.08 0 -0.2 0.04 -0.24 -0.08 c-0.12 -0.2 -0.32 -0.36 -0.48 -0.56 c-0.04 -0.04 -0.12 -0.08 -0.12 -0.2 c0 -0.04 -0.04 -0.08 -0.08 -0.08 c-0.04 0.04 0 0.08 0 0.08 c0.04 0.04 0.04 0.08 0 0.12 c-0.04 0 -0.04 -0.04 -0.08 -0.08 c-0.08 -0.08 -0.04 -0.2 -0.16 -0.2 s-0.08 -0.08 -0.12 -0.16 c0 -0.04 0.04 -0.08 0.04 -0.12 s0.04 -0.08 -0.04 -0.08 c-0.04 0 0 0.08 -0.08 0.04 l-0.36 -0.24 c-0.16 -0.08 -0.24 -0.16 -0.24 -0.36 c0 0 -0.04 0 -0.08 -0.04 c-0.12 -0.2 -0.36 -0.24 -0.48 -0.44 s-0.28 -0.36 -0.48 -0.44 c-0.04 0 -0.08 -0.04 -0.04 -0.08 s0.04 0 0.08 0 c0.04 0.04 0.12 0.04 0.12 -0.04 c0.04 -0.04 -0.04 -0.08 -0.08 -0.08 s-0.12 -0.04 -0.16 0 c-0.16 0.12 -0.24 -0.04 -0.32 -0.12 c-0.04 0 -0.04 -0.08 -0.12 -0.08 c-0.16 0 -0.28 -0.12 -0.36 -0.28 c-0.04 -0.04 -0.04 -0.04 -0.12 0 c-0.16 0.08 -0.16 0.04 -0.2 -0.12 c0 -0.08 -0.08 -0.16 -0.16 -0.16 c-0.12 0 0 0.08 0 0.12 s-0.04 0.04 -0.08 0.04 c-0.04 -0.04 -0.12 -0.08 -0.12 -0.12 c-0.04 -0.2 -0.16 -0.16 -0.24 -0.12 c-0.24 0.12 -0.32 -0.12 -0.52 -0.12 c0 -0.2 -0.2 -0.28 -0.28 -0.4 c-0.08 -0.08 -0.28 -0.12 -0.32 -0.04 c-0.08 0.08 -0.12 0.12 -0.2 0.04 c-0.04 -0.08 -0.12 -0.08 -0.16 -0.04 c-0.04 0.08 0.04 0.08 0.08 0.12 c0 0.08 0.04 0.04 0.08 0.04 c0.2 0.08 0.4 0.04 0.6 0.16 c0.04 0 0.08 -0.04 0.08 0 c0 0.08 -0.04 0.12 -0.04 0.16 c-0.04 0 -0.08 -0.04 -0.08 -0.04 c-0.04 -0.08 -0.12 -0.08 -0.16 -0.04 c-0.12 0.12 -0.24 0.04 -0.28 0 c-0.12 -0.16 -0.24 -0.04 -0.36 -0.08 c-0.24 -0.08 -0.56 0.04 -0.8 -0.2 c-0.04 -0.04 -0.16 -0.04 -0.16 0.04 c-0.04 0.04 -0.12 0.12 -0.04 0.16 c0.12 0.04 0.08 0.08 0.08 0.16 c0 0 0 0.04 0.04 0.08 c0.04 0 0.04 0 0.08 -0.04 c0.08 -0.08 0.28 -0.08 0.36 0.04 c0.04 0 0.04 0.04 0.04 0.08 l-0.08 0 c-0.2 -0.08 -0.4 0 -0.6 0.04 c-0.24 0.04 -0.52 0.12 -0.76 0.16 c-0.36 0.04 -0.72 0.16 -1.12 0.2 c-0.12 0 -0.24 0.04 -0.32 0.16 c-0.28 0.4 -0.64 0.68 -0.96 1.04 c-0.04 0.04 -0.08 0.12 -0.16 0.04 c-0.04 -0.04 0.04 -0.08 0.04 -0.12 c0.08 -0.08 0.12 -0.2 0.24 -0.28 c-0.12 0 -0.24 0 -0.4 -0.04 c0 0 -0.04 0 -0.08 0.04 c0 0 0 0.08 0.04 0.08 c0.08 0.04 0.08 0.08 0 0.12 c-0.12 0.04 -0.2 0.04 -0.28 0.16 c-0.04 0.04 -0.12 0 -0.16 -0.04 s0.04 -0.08 0.04 -0.12 c0.08 -0.04 0.24 -0.04 0.2 -0.2 c-0.04 -0.08 -0.04 -0.12 0 -0.2 c0 -0.04 -0.04 -0.08 -0.08 -0.08 c0 0 -0.08 0 -0.08 0.04 c0 0.12 0 0.12 -0.08 0.12 c-0.12 -0.04 -0.2 -0.04 -0.08 0.08 c0.04 0.08 -0.04 0.12 -0.08 0.16 c-0.16 0.16 -0.32 0.32 -0.44 0.48 c-0.08 0.08 -0.08 0.28 -0.24 0.08 l-0.04 0 c-0.04 0.16 -0.08 0.24 -0.24 0.32 c0 0 0.08 0.12 0.08 0.16 c0 0.12 -0.16 -0.04 -0.12 0.04 c0 0.16 -0.08 0.16 -0.2 0.2 c-0.04 0.04 -0.04 0.08 0 0.12 c0.12 0.08 0.12 0.12 0.04 0.2 s0 0.2 -0.16 0.2 c0 0 -0.04 0.04 0 0.04 c0.16 0.16 -0.04 0.28 -0.08 0.4 c-0.04 0.16 -0.12 0.2 -0.28 0.08 l-0.08 0 c0 0.04 0.04 0.08 0.04 0.08 c0.12 0.04 0.12 0.08 0.04 0.2 c-0.16 0.08 -0.32 0.16 -0.32 0.4 c-0.04 0.08 -0.08 -0.04 -0.08 -0.04 c-0.08 -0.08 -0.12 -0.08 -0.08 -0.04 c0.08 0.12 -0.2 0.2 -0.04 0.36 c0.08 0.04 -0.08 0 -0.12 0 c-0.12 0.04 0.12 0.16 -0.04 0.16 c-0.08 0 -0.16 -0.08 -0.24 0 c0.08 0 0.16 0.04 0.24 0.08 c0.04 0 0.08 0.04 0.12 0.04 s0.08 0 0.04 0.04 c-0.16 0.08 -0.12 0.28 -0.2 0.36 c-0.16 0.08 -0.12 0.16 -0.12 0.28 c0 0.08 -0.04 0.12 -0.04 0.2 c-0.04 0.16 -0.16 0.32 -0.16 0.48 c0.08 0.32 -0.08 0.6 -0.12 0.88 c-0.04 0.12 -0.04 0.16 0 0.24 c0.08 0.08 0.08 0.16 -0.04 0.16 c-0.16 0 -0.08 0.08 -0.04 0.12 c0.08 0.08 0.08 0.16 0.08 0.28 c0 0.2 -0.12 0.36 -0.12 0.52 c0.04 0.4 0 0.8 0.04 1.2 c0.12 0.64 0.2 1.28 0.36 1.92 c0.08 0.32 0.16 0.68 0.28 1.04 c0.12 0.32 0.28 0.6 0.56 0.84 c0.12 0.16 0.24 0.28 0.36 0.48 c0.08 0.08 0.12 0.2 0.2 0.28 c0.4 0.32 0.68 0.68 1.16 0.88 c0.08 0.04 0.12 0.08 0.16 0.16 c0.04 0 0.04 0.08 0.04 0.12 c-0.08 0.04 -0.08 0 -0.12 -0.04 c-0.04 0 -0.04 -0.04 -0.08 -0.04 c-0.04 -0.04 -0.08 -0.08 -0.12 -0.04 c-0.04 0.08 -0.12 0.04 -0.12 0.12 s0.08 0.08 0.12 0.12 l0.2 0 c0.12 0.04 0.16 0.12 0.16 0.24 c0 0.04 0 0.16 0.04 0.16 c0.08 -0.04 0.16 0.12 0.2 0.04 s0.12 -0.2 0.04 -0.28 c-0.04 -0.04 -0.12 -0.04 -0.08 -0.12 c0.04 0 0.12 -0.04 0.16 0.04 c0.04 0.04 0.16 0.12 0.04 0.2 c-0.04 0.04 -0.04 0.04 0.04 0.08 c0.2 0.08 0.36 0.16 0.56 0.24 c0.08 0.04 0.12 0.08 0.2 0.04 c0.08 -0.08 0.12 0.04 0.16 0.08 s0 0.04 -0.04 0.08 s-0.12 0.04 -0.08 0.08 c0 0.08 0.04 0 0.12 0 c0.04 0 0.12 0 0.12 0.04 c0.04 0.08 -0.08 0.04 -0.08 0.08 c-0.2 0.04 -0.36 0.08 -0.56 0.04 c-0.04 -0.04 -0.12 -0.08 -0.16 0 c0 0.08 0.08 0.08 0.12 0.08 c0.08 0 0.04 0.04 0.04 0.08 c0.04 0.08 0.44 0.24 0.52 0.2 c0.16 -0.16 0.28 -0.08 0.44 0.04 c-0.08 0 -0.16 0.08 -0.12 0.08 c0.04 0.12 0.04 0.28 0.16 0.32 c0.08 0 0.12 0.12 0.16 0.04 s-0.04 -0.08 -0.12 -0.12 c-0.04 0 -0.04 -0.04 0 -0.08 c0.08 -0.04 0.04 -0.04 0 -0.08 c0 -0.04 -0.04 -0.12 -0.08 -0.16 c0.08 0 0.16 0 0.2 0.04 c0.12 0 0.2 0.08 0.16 0.2 c-0.04 0.16 0.08 0.16 0.2 0.16 l0 0 c0 0.08 0.12 0.2 0 0.24 c-0.16 0.08 -0.08 0.2 -0.04 0.28 c0 0.08 0.12 0.04 0.16 0.04 c0.12 -0.04 0.24 0 0.32 0.08 s0.12 0.04 0.16 0 s0.08 -0.24 0.12 0 c0 0.04 0.04 0.04 0.04 0 c0.12 -0.12 0.24 0 0.32 0.04 c0.12 0.04 0.12 0 0.16 -0.12 c0.04 -0.04 0 -0.16 0 -0.2 c0.08 -0.04 0.12 0.12 0.2 0.08 c0.04 -0.04 0.08 -0.08 0.08 -0.04 c0.04 0.04 0 0.12 -0.04 0.12 c-0.16 0.04 -0.08 0.12 -0.04 0.2 s0.12 0.12 0.2 0.12 c0.04 0 0.12 0 0.12 0.04 c0 0.08 -0.04 0.04 -0.08 0.04 s-0.08 0 -0.04 0.04 c0.12 0.2 -0.04 0.16 -0.16 0.2 c-0.08 0.04 -0.12 0.12 -0.12 0.2 c0.04 0.08 0.12 0.12 0.2 0.12 l0.2 0 c0.08 0.04 0.12 0.08 0.04 0.12 c-0.04 0.04 -0.12 0.04 -0.08 0.12 c0.04 0.04 0.08 0.08 0.16 0.08 z M44.335 20.24 c-0.08 0 -0.16 -0.08 -0.24 -0.12 s0.04 -0.04 0.08 -0.08 c0.04 -0.12 0.12 -0.2 0.24 -0.12 c0.08 0.04 0.12 -0.04 0.12 -0.08 c0 -0.08 0.04 -0.12 0.12 -0.16 c0.04 0 0.08 -0.04 0.08 0 c0.04 0.04 0 0.04 -0.04 0.08 c-0.08 0.04 -0.08 0.08 0.04 0.08 c0.04 0 0.08 0.08 0.04 0.12 c-0.12 0.12 -0.28 0.24 -0.44 0.28 z M44.255 15.879999999999999 c0.04 0 0.12 -0.04 0.16 -0.08 c0.04 0 0.08 -0.08 0.16 -0.08 c0.2 -0.04 0.28 -0.16 0.28 -0.36 c0 0 0.04 -0.04 0 -0.08 c-0.04 0 -0.08 0 -0.08 0.04 c-0.12 0.04 -0.24 0.08 -0.32 0.16 s-0.2 0.12 -0.2 0.28 c0.08 0.04 -0.04 0.12 0 0.12 z M47.335 17.88 c0.04 0 0.12 -0.04 0.2 -0.04 c0.12 0.04 0.2 -0.04 0.28 0 c0.08 0 0.08 -0.08 0.08 -0.12 c0 -0.08 -0.04 -0.08 -0.08 -0.08 c-0.12 -0.04 -0.08 0.04 -0.08 0.08 c0 0.08 -0.08 0 -0.12 0.04 c-0.2 -0.16 -0.44 -0.16 -0.68 -0.16 c-0.04 0 -0.12 0.04 -0.12 0.08 c0 0.08 0.08 0.08 0.12 0.08 s0.12 0.04 0.16 0 c0.08 -0.08 0.12 0 0.12 0.04 c-0.04 0.12 0 0.12 0.12 0.08 z M45.855000000000004 14.96 c0.08 0.04 0.12 -0.04 0.12 -0.04 c-0.04 -0.08 -0.12 -0.16 -0.2 -0.16 c-0.12 -0.04 0.04 0.08 0 0.16 c-0.08 0.08 0.08 0 0.08 0.04 z M49.255 18.24 c-0.04 0.04 -0.12 0.04 -0.16 0 s-0.08 -0.04 -0.08 -0.12 s0.08 0 0.12 -0.04 l0.08 0 c0.04 -0.04 0.08 -0.08 0.16 0 c0.04 0.04 0 0.12 0 0.16 c0 0.08 -0.08 0 -0.12 0 z M47.255 15.760000000000002 c0.04 0.04 0.32 -0.24 0.32 -0.28 c-0.04 0 -0.04 0 -0.04 -0.04 c-0.08 0 -0.32 0.24 -0.32 0.28 s0.04 0.04 0.04 0.04 z M47.855000000000004 15.719999999999999 c0.16 0 0.36 -0.08 0.44 -0.24 c0.04 -0.04 0.08 -0.04 0.08 -0.12 c-0.04 -0.04 -0.12 0 -0.16 0 c-0.16 0 -0.32 0.2 -0.52 0.08 l0 0.04 c-0.08 0.08 0.08 0.12 0.04 0.2 c0 0.04 0.04 0.08 0.12 0.04 z M60.735 26.92 l0.04 -0.04 c-0.04 -0.12 0.04 -0.2 0.04 -0.32 c0 -0.04 -0.04 -0.12 -0.08 -0.08 c-0.08 0 -0.12 0.04 -0.2 0.08 c0.12 0.08 0.16 0.2 0.2 0.32 l0 0.04 z M60.615 26.16 c0.12 0 0.24 -0.16 0.16 -0.28 c0 -0.04 0 -0.16 -0.08 -0.12 c-0.08 0 -0.04 0.08 0 0.16 c0 0.08 0 0.12 -0.12 0.12 c-0.04 0 -0.04 0 -0.04 0.04 c0 0.08 0.04 0.08 0.08 0.08 z M49.855000000000004 14.64 c-0.08 0 -0.12 0 -0.12 -0.04 c-0.04 -0.08 -0.04 -0.12 -0.12 -0.16 c-0.04 0 -0.04 -0.08 0 -0.12 c0 -0.04 0.04 -0.04 0.08 -0.04 c0.08 0.04 0.16 0.04 0.24 0.08 c0.12 0.04 0.24 0.12 0.24 -0.08 c0 -0.04 0 -0.08 0.04 -0.04 l0 0.32 c-0.04 0 -0.04 0.04 -0.08 0.04 c-0.04 -0.04 -0.08 -0.12 -0.2 -0.12 c-0.04 0 -0.08 -0.04 -0.12 0 c-0.08 0.04 0 0.08 0.04 0.08 c0.04 0.04 0 0.08 0 0.08 z M50.735 14.68 c-0.04 -0.04 -0.12 0.04 -0.16 0 s-0.08 -0.04 -0.08 -0.08 c0.04 -0.08 0.08 -0.04 0.08 0 c0.08 0 0.12 0 0.16 -0.08 c0.04 -0.04 0.04 -0.12 0.04 -0.08 c0.04 0.08 0.04 0.16 0.04 0.24 c0 0 -0.04 0.08 -0.08 0 z M51.415000000000006 14.760000000000002 c-0.08 0.16 -0.12 0.12 -0.12 -0.04 c0 -0.04 -0.04 -0.08 -0.08 -0.04 c-0.16 0.08 -0.24 0.04 -0.28 -0.12 c-0.04 -0.08 0 -0.16 -0.04 -0.24 l0 -0.04 c0.04 -0.04 0.08 0 0.08 0.04 c0.04 0.12 0.16 0.12 0.24 0.12 c0.12 0 0.2 0.04 0.28 0.08 c0.04 0.04 0.12 0.04 0.08 0.08 c0 0.08 0 0.12 -0.08 0.16 c-0.04 0 -0.08 -0.04 -0.08 0 z M52.05500000000001 15.280000000000001 c0.08 -0.08 0.04 -0.2 0.08 -0.32 c0.04 -0.04 0 -0.04 -0.04 -0.04 c-0.12 0 -0.16 0.08 -0.16 0.16 s0.08 0.12 0.12 0.2 z M60.295 22.16 c0.04 0 0.04 0 0.04 -0.04 c0.04 -0.04 -0.12 -0.04 0 -0.08 c0.04 -0.04 0.08 0.04 0.08 0.04 c0.04 0.04 0.08 0.08 0.08 0.04 c0.04 -0.04 0.04 -0.04 0 -0.08 c-0.04 -0.08 -0.08 -0.08 -0.16 -0.08 c-0.04 0 -0.08 0 -0.12 0.04 s-0.04 0.08 0 0.12 c0 0.04 0.04 0.04 0.08 0.04 z M52.735 14.399999999999999 c0.04 -0.04 0.08 -0.12 0 -0.16 c0 -0.04 -0.08 -0.04 -0.08 -0.08 c0.04 -0.04 0.08 0 0.12 0 c0.08 0.04 0.16 0.04 0.16 -0.04 c0 -0.04 -0.08 0 -0.12 -0.04 l-0.08 0 c-0.08 0 -0.16 0 -0.2 0.08 c0 0.08 0.04 0.12 0.12 0.16 c0.04 0.04 0.04 0.12 0.08 0.08 z M53.575 14.760000000000002 c0.04 0.04 0.12 -0.04 0.16 -0.08 c0.04 0 0.04 -0.08 0.12 -0.04 c0 0 0.08 0.04 0.08 -0.04 c0 -0.04 -0.04 -0.04 -0.08 -0.04 s-0.12 0 -0.2 -0.04 c-0.04 0 -0.08 0.08 -0.12 0.12 c0 0.04 0 0.12 0.04 0.12 z M58.255 17.96 c0.04 0 0.08 -0.04 0.04 -0.08 c0 -0.04 0 -0.08 -0.04 -0.08 c-0.08 0.08 -0.16 0.08 -0.24 0 c-0.04 0 -0.08 0.04 -0.04 0.04 c0.08 0.08 0.16 0.12 0.28 0.12 z M57.375 17.12 c0.04 0.04 0.04 0 0 0 c-0.04 -0.08 0.04 -0.24 -0.12 -0.24 c-0.08 0 0 0.08 -0.04 0.08 c0 0.16 0.08 0.16 0.16 0.16 z M72.07000000000001 40.04 c-0.2 0 -0.4 -0.08 -0.6 0 c-0.04 0 -0.08 0 -0.08 -0.08 c-0.08 -0.28 -0.28 -0.52 -0.24 -0.84 c0 -0.12 -0.08 -0.24 -0.08 -0.36 c0 -0.52 -0.04 -1.04 -0.04 -1.56 c-0.04 -0.76 -0.08 -1.52 -0.04 -2.32 c0 -0.48 0.04 -0.92 0.04 -1.4 c0 -0.88 0.04 -1.8 0 -2.68 c-0.04 -0.68 -0.04 -1.36 0 -2.04 c0.04 -0.88 0.08 -1.72 0.12 -2.6 c0.04 -0.32 0.08 -0.64 0.08 -0.96 c0 -0.44 0.08 -0.88 0.08 -1.36 c0.04 -0.4 0 -0.84 0.04 -1.28 c0.04 -0.4 0.04 -0.84 0.12 -1.24 c0.04 -0.28 0 -0.6 0.04 -0.88 c0.04 -0.56 0.08 -1.08 0.12 -1.64 c0.04 -0.52 0 -1.04 0.04 -1.56 c0 -0.28 0.04 -0.56 0.04 -0.8 c-0.04 -0.12 -0.04 -0.28 -0.04 -0.4 c-0.04 -0.04 0 -0.12 0.04 -0.16 c0.16 -0.08 0.04 -0.2 0.08 -0.32 c0 -0.12 -0.2 -0.28 0 -0.4 c-0.04 -0.2 0.12 -0.32 0.12 -0.48 l0 -0.04 c-0.24 -0.04 -0.08 -0.24 -0.12 -0.36 c0 -0.08 -0.04 -0.16 -0.04 -0.24 c-0.04 -0.16 0 -0.36 0.08 -0.48 c0.08 -0.16 0.04 -0.36 0.16 -0.48 c0.04 -0.04 -0.04 -0.12 -0.12 -0.08 s-0.16 0.08 -0.24 0.08 c0.08 -0.04 0.12 -0.12 0.2 -0.12 c0.16 -0.12 0.32 -0.2 0.32 -0.4 c0 -0.08 0.04 -0.12 0.08 -0.08 c0.08 0.04 0.16 -0.12 0.2 0.04 c0.04 0.04 0.12 0.12 0.08 0.16 c0 0.24 0.12 0.16 0.24 0.12 c0.2 -0.08 0.44 -0.08 0.68 -0.04 c0.2 0.04 0.4 0.08 0.56 0.12 c0.12 0 0.36 -0.2 0.36 -0.28 c0.04 -0.16 0.12 -0.16 0.2 -0.08 c0.16 0.28 0.4 0.16 0.56 0.08 c0.2 -0.04 0.4 -0.04 0.56 0 c0.2 0.04 0.36 -0.08 0.52 0.04 c0.16 0.08 0.32 0.28 0.32 0.44 c-0.04 0.4 -0.08 0.44 -0.44 0.52 c-0.16 0.04 -0.28 0.04 -0.24 0.28 c0.08 0.96 0.08 1.92 0.08 2.88 c0 0.68 -0.04 1.4 -0.08 2.12 c-0.04 0.44 0 0.84 0.04 1.28 c0.08 0.36 0.08 0.72 0.08 1.08 c0.04 0.6 0.04 1.24 0.08 1.84 c0 0.76 0 1.56 -0.04 2.36 c-0.04 0.64 -0.12 1.32 -0.16 1.96 c0 0.6 -0.08 1.16 -0.08 1.76 c-0.04 0.36 0 0.76 0 1.12 c0 0.48 0 0.96 -0.04 1.4 c-0.04 0.92 -0.08 1.8 -0.04 2.72 c0.04 0.64 0.04 1.28 0 1.96 c-0.04 0.48 -0.08 0.96 -0.16 1.44 c-0.04 0.32 0 0.68 0 1 c-0.04 0.16 0.16 0.28 0.24 0.4 c0 0.04 0.12 0.04 0.16 0 c0.08 -0.04 0.16 -0.04 0.2 0 c0.16 0.04 0.12 0.08 0.04 0.2 c-0.12 0.16 -0.36 0.24 -0.56 0.28 c-0.4 0.16 -0.88 0.28 -1.28 0.24 c-0.32 -0.04 -0.56 0.16 -0.84 0.04 c-0.48 0.24 -0.96 0.08 -1.4 0.08 z M99.245 39.88 c-0.08 0.04 -0.24 0.04 -0.24 -0.08 c0 -0.08 -0.04 -0.08 -0.08 -0.04 c-0.2 0.2 -0.32 0 -0.6 0 c-0.04 0 -0.04 -0.04 -0.08 0 c-0.28 0.28 -0.68 0.08 -1 0.08 c-0.12 0 -0.28 -0.16 -0.36 -0.12 c-0.2 0.08 -0.32 0 -0.48 0 c-0.12 0 -0.28 0 -0.36 -0.16 c-0.04 -0.08 -0.12 -0.08 -0.16 -0.08 c-0.28 0 -0.52 -0.08 -0.76 -0.16 c-0.48 -0.16 -0.96 -0.36 -1.36 -0.56 c-0.32 -0.16 -0.64 -0.36 -0.96 -0.56 c-0.24 -0.16 -0.52 -0.24 -0.8 -0.32 c-0.36 -0.12 -0.68 -0.36 -0.96 -0.56 c-0.44 -0.32 -0.72 -0.8 -1.08 -1.16 c-0.12 -0.12 -0.28 -0.24 -0.4 -0.4 c-0.24 -0.28 -0.48 -0.56 -0.72 -0.88 c-0.08 -0.12 -0.12 -0.28 -0.16 -0.4 c-0.12 -0.36 -0.36 -0.6 -0.52 -0.88 c-0.24 -0.4 -0.52 -0.8 -0.6 -1.28 c-0.04 -0.24 -0.2 -0.44 -0.32 -0.68 c-0.2 -0.4 -0.36 -0.84 -0.44 -1.28 c-0.12 -0.64 -0.32 -1.28 -0.44 -1.92 c-0.08 -0.48 -0.2 -0.96 -0.2 -1.44 c0 -0.4 -0.08 -0.84 -0.04 -1.24 c0.04 -0.36 0 -0.72 0.08 -1.08 c0.04 -0.2 0.08 -0.4 0.12 -0.64 c0.04 -0.16 0.04 -0.36 0.08 -0.52 c0.12 -0.52 0.2 -1 0.32 -1.48 c0.04 -0.16 0.16 -0.24 0.28 -0.36 c0.04 -0.04 0.12 -0.04 0.12 0 s0 0.08 -0.04 0.12 s-0.08 0.24 -0.04 0.16 s0.24 0.04 0.24 -0.12 c0 -0.08 0.04 -0.16 0.04 -0.24 c0 -0.4 0.24 -0.6 0.6 -0.4 c0.08 0.04 0.12 0.08 0.2 0 s0 -0.16 0 -0.24 s-0.08 -0.08 -0.12 -0.08 c-0.08 0 -0.12 0.04 -0.12 -0.04 s0.08 -0.04 0.12 -0.04 l0.12 0 s0.12 0 0.08 -0.08 c-0.04 -0.12 0.08 -0.16 0.16 -0.28 c0.04 -0.08 0.08 -0.16 0.08 -0.24 s-0.32 -0.08 -0.36 -0.08 c-0.08 0 -0.12 0.08 -0.08 0.16 c0.12 0.2 0 0.44 -0.16 0.44 c-0.04 0 -0.08 0.04 -0.08 0 c0 -0.08 0.04 -0.16 -0.04 -0.12 c-0.12 0.08 -0.32 0.04 -0.32 0.16 c0 0.08 0 0.12 0.08 0.2 c0.04 0.04 0.08 0.04 0.08 0.08 l-0.08 0 c-0.08 0 -0.2 0.08 -0.2 0.08 c-0.08 -0.12 0 -0.24 0 -0.32 s0.04 -0.32 0.24 -0.24 c0.08 0.04 0.24 0 0.24 -0.12 c0 -0.08 -0.08 -0.08 -0.12 -0.08 s-0.12 0.04 -0.12 0 s0.04 -0.08 0.08 -0.08 c0.12 0 0.12 -0.12 0.16 -0.2 c0.04 -0.12 0.2 0 0.2 -0.12 c0 -0.08 -0.2 -0.08 -0.16 -0.2 c0.04 -0.08 0.12 -0.16 0.12 -0.24 c0 -0.12 0.12 -0.04 0.2 -0.04 c0.12 0 0.24 -0.08 0.24 -0.24 c0 -0.04 0.04 -0.08 0.08 -0.08 c0.08 0 0.04 0.08 0.04 0.12 l0 0.04 c-0.16 0.2 0.04 0.24 0.16 0.32 c0.08 0.04 0 -0.12 0.12 -0.08 c0.16 0.04 0.16 -0.16 0.28 -0.2 s0.24 -0.08 0.08 -0.24 c-0.04 -0.04 -0.04 -0.12 0 -0.12 s0.08 -0.04 0.08 -0.04 c0.08 0 -0.04 -0.12 0.04 -0.12 c0.04 0 0.08 0.12 0.08 0.16 l0.04 0.04 c0.04 0 0.04 -0.04 0.04 -0.08 c0 -0.08 -0.08 -0.16 -0.08 -0.24 c0 -0.04 0.04 -0.12 0.04 -0.12 c0.08 -0.04 0.04 0 0.08 0.04 s0.04 0.04 0.08 0 s0.08 -0.04 0.08 0 c0 0.08 0.08 0.08 0.16 0 c0.12 -0.12 0.28 -0.24 0.08 -0.44 c-0.04 -0.04 -0.04 -0.08 0.04 -0.08 c0.16 0 0.12 -0.04 0.28 -0.2 c0.04 -0.04 0.08 -0.08 0.12 -0.08 c0.28 0 0.24 -0.12 0.36 -0.2 c0.08 -0.04 0.08 -0.12 0.16 -0.12 c0.04 0 0 0.04 0 -0.16 c0 -0.04 -0.04 -0.04 -0.04 -0.08 l0.08 0 c0.08 0 0.16 0.08 0.2 -0.04 c0 0 0 -0.04 0.04 -0.04 c0.24 0 0.36 -0.08 0.52 -0.24 c0.04 -0.04 0.2 -0.08 0.24 -0.08 c0.2 0 0.28 -0.08 0.4 -0.16 s-0.08 -0.32 0.08 -0.32 c0.12 0 0.32 -0.2 0.12 -0.2 c-0.04 0 -0.04 -0.04 0 -0.08 c0.16 -0.16 0.16 -0.16 -0.08 -0.28 c-0.08 -0.04 -0.24 -0.2 -0.24 -0.08 l0 0.04 c0 0.04 0.08 -0.12 0.08 -0.12 c0.12 0 0.08 -0.04 0.08 -0.12 s0 -0.12 0.12 -0.12 c0.08 0 0.12 -0.04 0.12 0.08 l0 0.12 c0 0 0 0.04 0.04 0.04 s0.08 0 0.08 -0.04 c0 -0.12 0.08 -0.24 0.24 -0.24 c0.12 0 0.04 -0.08 0.04 -0.24 c0 -0.04 -0.04 -0.04 -0.04 -0.04 c-0.08 -0.08 0 -0.08 0 -0.16 c0 -0.04 0.04 -0.12 0.08 -0.08 s0.12 0.04 0.12 0.16 c0 0.08 -0.04 0.16 0 0.2 s0.04 0.08 0.08 0.08 c0.08 0 0.12 -0.08 0.08 -0.12 c-0.12 -0.12 0.2 -0.16 0 -0.2 c-0.16 -0.04 -0.12 -0.2 -0.24 -0.24 l0.04 -0.04 s0.04 -0.04 0.08 0 c0.16 0.16 0.2 0.04 0.2 -0.04 c0 -0.2 0.24 -0.24 0.36 -0.24 c0.08 0 0 0.08 0 0.12 s-0.04 0.08 0.04 0.08 c0.04 0 0 -0.12 0.08 -0.04 c0.04 0.04 0.04 0.08 0 0.12 s-0.04 0.04 -0.04 0.08 s0.04 0.04 0.08 0 s0.16 0 0.12 -0.08 c-0.08 -0.12 0 -0.04 0.04 -0.08 s0.08 -0.04 0.08 -0.04 c0.04 0 0.08 0 0.08 -0.04 s-0.04 -0.04 -0.08 -0.04 l-0.08 0 c-0.08 0 -0.08 -0.12 -0.04 -0.16 s0.08 -0.04 0.12 0 c0.08 0.08 0.16 0.16 0.16 -0.12 c0 -0.04 0.08 -0.08 0.12 -0.08 c0.44 0 0.88 -0.32 1.32 -0.4 c0.28 -0.04 0.52 -0.04 0.8 -0.16 c0.36 -0.16 0.76 -0.12 1.16 -0.16 c0.28 -0.04 0.64 0.08 0.84 -0.12 c0.04 -0.04 0.12 -0.08 0.12 0.04 c0 0.04 0.04 0.08 0.08 0.04 c0.28 -0.28 0.72 -0.16 1.08 -0.16 c0.08 0 0.16 -0.04 0.24 -0.04 c0.44 0 0.92 0.08 1.36 0.08 c0.32 0 0.64 0.16 0.96 0.16 c0.04 0 0.04 0.08 0.08 0.08 s0.08 0.04 0.12 0.04 c0.12 0 0.2 0.04 0.36 0.04 c0.04 0 0.16 0.04 0.24 0.04 c0.36 0 0.68 0.36 1.04 0.28 c0.44 -0.08 0.8 0.12 1.04 0.44 c0.2 0.24 0.4 0.52 0.68 0.52 c0.08 0 0.12 0.04 0 0.12 s-0.12 0.24 0 0.36 c0.2 0.2 0.36 0.32 0.56 0.44 c0.4 0.24 0.8 0.48 1.12 0.76 c0.2 0.16 0.4 0.36 0.6 0.52 c0.16 0.12 0.12 0.32 0.12 0.44 c0 0.04 -0.04 0.12 0 0.16 c0.16 0.16 0.04 0.32 -0.08 0.44 c-0.16 0.16 -0.32 0.32 -0.48 0.52 c-0.2 0.24 -0.36 0.4 -0.56 0.6 c-0.04 0.04 -0.04 0.04 -0.04 0.12 s0 0.12 -0.12 0.12 c-0.04 0 -0.12 0.04 -0.12 0.12 c0 0.4 -0.36 0.68 -0.52 1 c-0.04 0.08 -0.12 0.12 -0.12 0.16 c0 0.32 -0.24 0.56 -0.48 0.68 c-0.08 0.04 -0.16 0.08 -0.24 0.04 c-0.2 -0.08 -0.4 -0.04 -0.64 -0.12 c-0.12 -0.04 -0.12 -0.12 -0.12 -0.24 s-0.04 -0.24 -0.12 -0.36 c-0.2 -0.32 -0.4 -0.68 -0.68 -0.96 c-0.08 -0.08 -0.16 -0.12 -0.24 -0.16 c-0.56 -0.28 -1.08 -0.56 -1.64 -0.88 l-0.6 -0.36 c-0.52 -0.32 -1.12 -0.36 -1.68 -0.4 c-0.64 -0.04 -1.28 0.04 -1.92 0.08 c-0.72 0.04 -1.4 0.2 -2.08 0.4 c-0.52 0.16 -1.08 0.28 -1.6 0.48 c-0.2 0.08 -0.48 0.16 -0.56 0.44 c-0.04 0.16 -0.12 0.36 -0.24 0.44 c-0.4 0.28 -0.44 0.84 -0.92 1 c-0.12 0.04 0 0.08 0 0.12 c0 0.12 0.04 0.2 -0.12 0.16 s-0.12 0.08 -0.08 0.12 c0.12 0.12 0 0.12 -0.04 0.16 c-0.08 0.08 -0.16 0.16 -0.16 0.32 c0 0.08 -0.08 0.08 -0.08 0.12 s-0.04 0.04 -0.04 0.04 l0 -0.04 c0 -0.04 0.08 -0.12 0 -0.12 c-0.04 0 -0.16 0.04 -0.16 0.12 l0 0.12 c0 0.08 0.04 0.08 -0.04 0.12 s-0.16 0.12 -0.16 0.16 c0 0.2 -0.16 0.16 -0.32 0.16 c-0.04 0 0 -0.08 -0.08 0 c-0.04 0.04 0 0.04 0.04 0.08 c0.12 0.12 0.16 0.12 0 0.2 c-0.08 0.04 -0.12 0.04 -0.08 0.16 c0.04 0.08 0 0.16 -0.04 0.2 c-0.16 0.16 -0.2 0.28 -0.28 0.44 s-0.08 0.4 -0.16 0.6 c-0.16 0.36 -0.04 0.8 -0.12 1.2 l0 0.04 c0.16 0.44 0 0.88 0.12 1.36 c0.08 0.36 0.28 0.72 0.28 1.12 c0 0.04 0.12 0.04 -0.04 0.2 c-0.04 0.04 0 0.12 0 0.12 c0.24 0 0.12 0.2 0.2 0.32 c0.16 0.24 0.32 0.48 0.32 0.76 c0 0.04 -0.16 0.2 -0.04 0.24 c0.16 0.04 0.12 0.2 0.16 0.28 c0.12 0.2 0.24 0.36 0.36 0.6 c0.08 0.16 0.24 0.28 0.24 0.44 c0 0.04 0 0.08 0.04 0.12 c0.16 0.16 0.28 0.28 0.36 0.4 c0.2 0.28 0.36 0.48 0.6 0.72 c0.12 0.12 0.16 0.28 0.32 0.44 c0.04 0.04 0.04 0.08 0 0.12 c-0.08 0.08 0 0.08 0.08 0.08 s0.28 0 0.12 0.16 c-0.04 0.04 0.04 0.04 0.08 0 c0.16 -0.16 0.24 0.04 0.36 0.12 c0.16 0.12 0.24 0.28 0.4 0.36 c0.28 0.16 0.52 0.36 0.8 0.56 c0.24 0.16 0.44 0.4 0.68 0.44 c0.36 0.08 0.72 0.12 1.12 0.12 c0.24 0 0.56 0 0.8 0.04 c0.16 0.04 0.36 0.12 0.52 0 c0.12 -0.08 0.16 0.08 0.2 0.12 c0.12 0.12 0.12 0 0.12 -0.04 c0 -0.16 0.08 -0.16 0.2 -0.16 c0.36 0 0.76 0.04 1.08 -0.12 c0.08 -0.04 0.12 -0.08 0.2 -0.04 c0.12 0.04 0.24 0.04 0.32 -0.08 l0.04 0 c0.2 0 0.32 -0.28 0.56 -0.16 c0.08 0.04 0.24 -0.08 0.32 -0.16 c0.16 -0.16 0.32 -0.2 0.52 -0.2 c0.12 0 0.2 -0.12 0.36 -0.16 c0.36 -0.08 0.68 -0.24 1 -0.4 c0.44 -0.2 0.8 -0.44 1.16 -0.72 c0.16 -0.12 0.16 -0.28 0.08 -0.44 s0.04 -0.56 -0.16 -0.56 c-0.04 0 0 -0.04 0 -0.08 c0 0 0.04 -0.04 0.08 0 c0.16 0.16 0.36 0.24 0.52 0.4 c0.08 0.08 0.12 0.12 0.28 0.04 c0.08 -0.04 0.12 -0.04 0.16 0 c0.12 0.12 0.16 0.2 0.28 0.32 c0.16 0.16 0.36 0.04 0.48 0.16 c0.04 0.04 0.08 0.04 0.12 0.08 c0.36 0.36 0.68 0.72 1.04 1.08 c0.08 0.08 0.2 0.12 0.32 0.16 s0.2 0.12 0.24 0.24 c0.04 0.16 0.24 0.24 0.36 0.36 c0.08 0.08 0.12 0.16 0.04 0.24 c-0.12 0.12 -0.12 0.24 -0.12 0.4 c0 0.12 -0.04 0.16 -0.16 0.24 c-0.28 0.2 -0.56 0.4 -0.84 0.68 c-0.12 0.12 -0.16 0.28 -0.4 0.28 c0 0 -0.04 0 0 0.04 c0.12 0.12 -0.04 0.16 -0.12 0.24 c-0.36 0.36 -0.68 0.72 -1.12 0.96 c-0.08 0.04 -0.08 0.12 -0.16 0.2 c-0.32 0.32 -0.72 0.6 -1.16 0.8 c-0.16 0.08 -0.24 0.24 -0.4 0.28 c-0.2 0.04 -0.44 0.12 -0.6 0.24 c-0.12 0.08 -0.4 0 -0.44 0.16 c-0.08 0.24 -0.36 -0.12 -0.44 0.12 c-0.04 0.16 -0.16 0.24 -0.28 0.24 c-0.28 0 -0.4 0.24 -0.68 0.28 c-0.32 0.04 -0.6 0.2 -0.96 0.2 c-0.04 0 -0.08 0.04 -0.08 0 c0 -0.16 -0.12 -0.08 -0.12 0 c0 0.04 0.04 0.04 0 0.08 s-0.64 0.08 -0.64 0.04 c0 -0.2 -0.28 0 -0.36 -0.16 l0 0.08 s0.12 0.08 -0.04 0.16 z M94.64500000000001 33.84 c0.08 0 0.12 -0.08 0.12 -0.16 s0 -0.2 -0.08 -0.2 c-0.04 0 -0.08 -0.04 -0.08 -0.04 c-0.04 0 0.04 0.04 0 0.08 c-0.08 0.08 0.16 0.08 0.04 0.2 c-0.04 0.04 0 0.12 0 0.12 z M87.805 21.72 c0 0 0.08 -0.04 0.04 -0.08 c-0.08 -0.08 0.04 -0.16 0.04 -0.2 c0 -0.12 0 -0.12 -0.08 -0.12 c-0.12 0 -0.28 0.12 -0.24 0.2 c0.04 0.12 0.16 0.12 0.24 0.2 z M88.08500000000001 19.32 c-0.04 -0.04 -0.2 -0.04 -0.12 -0.04 s-0.04 -0.12 0.12 -0.16 c0.12 -0.04 0.24 -0.16 0.36 -0.2 c0.08 -0.04 0.12 -0.2 0.08 -0.28 s0 -0.12 0.04 -0.16 c0.12 -0.12 0.28 -0.2 0.4 -0.32 c0.04 -0.04 0.08 -0.04 0.08 0 s0.04 0.08 0 0.12 c-0.2 0.2 -0.12 0.44 -0.28 0.6 c-0.04 0.04 -0.08 0.28 -0.28 0.2 c-0.08 -0.04 -0.24 0.04 -0.24 0.16 s-0.12 0.12 -0.16 0.08 z M88.44500000000001 17.44 c-0.04 0 -0.04 0 0 -0.04 c0.12 -0.12 0.2 -0.12 0.28 -0.2 c0 0 0.04 0 0.04 0.04 c0 0.12 -0.2 0.2 -0.32 0.2 z M89.08500000000001 18.04 c0 0 -0.04 0 -0.04 -0.04 l0 0 c0.12 -0.04 0.24 -0.24 0.24 -0.16 s0.08 -0.04 0.08 0.04 l0 0.04 s-0.28 0.12 -0.28 0.12 z M91.245 16.88 c-0.08 0 -0.08 -0.04 -0.08 -0.08 c0 -0.08 0.08 -0.2 0.16 -0.2 c0.04 0 0.04 0.08 0.04 0.08 c0 0.12 -0.08 0.2 -0.12 0.2 z M91.44500000000001 16.36 c-0.12 0 -0.16 -0.08 -0.24 -0.16 c-0.04 -0.04 -0.04 -0.08 0 -0.12 c0 0 0.04 -0.08 0.04 -0.04 c0 0.16 0.2 0.16 0.2 0.28 l0 0.04 z M91.685 16.84 c-0.08 0 -0.04 -0.04 -0.04 -0.08 c0 -0.08 -0.12 -0.2 0 -0.2 c0.08 0 0.16 -0.12 0.28 0 c0.04 0.04 0.08 0.04 0.04 0.08 s-0.08 0.04 -0.12 0.04 s-0.12 -0.08 -0.12 0.08 c0 0.04 0 0.08 -0.04 0.08 z M92.20500000000001 16.44 c-0.04 0 -0.08 0 -0.08 -0.04 s0 -0.04 0.04 -0.04 s0.08 -0.04 0.04 -0.08 s-0.04 -0.12 0.04 -0.12 s0.08 0.08 0.08 0.16 l0 0.08 l0 0 c-0.04 0.04 -0.08 0.04 -0.12 0.04 z M91.64500000000001 16.24 c-0.04 -0.08 -0.04 -0.16 0 -0.2 s0.04 -0.08 0.08 -0.12 c0.12 -0.12 0.04 -0.2 -0.04 -0.28 c-0.04 -0.04 -0.16 0 -0.08 -0.08 c0.04 -0.04 0.12 0 0.16 0.04 l0 0.04 c0.04 0.12 0.08 0.32 0.24 0.16 c0.04 -0.04 0.08 0 0.12 0 l0 -0.04 c0.08 0.04 -0.16 0.12 0.12 0.12 c0.04 0 0.08 0 0.08 0.04 s-0.04 0.08 -0.04 0.08 c-0.08 0.04 -0.2 0.12 -0.28 0.12 s-0.16 0 -0.2 0.04 s-0.08 0.2 -0.16 0.08 z M92.48500000000001 15.280000000000001 l-0.04 -0.04 c0 -0.08 -0.04 -0.2 0.04 -0.24 s0.16 0.04 0.24 0 l0 0.04 c-0.12 0 -0.16 0.16 -0.24 0.24 z M93.64500000000001 15.16 c0.04 0 0 -0.04 0.04 -0.04 s0.04 0 0.04 -0.04 c0 -0.08 -0.08 -0.16 -0.08 -0.28 c0 -0.04 0 -0.12 -0.08 -0.12 c-0.04 0 -0.08 0.08 -0.08 0.12 s-0.04 0.12 -0.04 0.16 c0 0.12 0.04 0.2 0.2 0.2 z M130.82000000000002 39.48 c-1.16 0.08 -2.32 0.04 -3.44 -0.2 c-0.44 -0.12 -0.92 -0.2 -1.36 -0.4 c-0.28 -0.08 -0.6 -0.12 -0.88 -0.2 c-0.44 -0.12 -0.8 -0.28 -1.04 -0.68 c-0.04 -0.04 -0.12 -0.08 -0.16 -0.12 c-0.08 -0.04 -0.16 -0.08 -0.16 -0.2 c0 -0.16 -0.16 -0.2 -0.24 -0.2 c-0.12 -0.04 -0.24 -0.08 -0.28 -0.2 c-0.08 -0.08 -0.2 -0.16 -0.32 -0.2 c-0.52 -0.16 -0.92 -0.52 -1.24 -0.96 c-0.28 -0.36 -0.56 -0.68 -0.84 -1.04 c-0.04 -0.04 -0.08 -0.08 -0.12 -0.16 c-0.16 -0.28 -0.36 -0.56 -0.52 -0.84 c-0.16 -0.32 -0.44 -0.6 -0.6 -0.92 c-0.12 -0.28 -0.32 -0.52 -0.48 -0.8 c-0.24 -0.36 -0.44 -0.72 -0.6 -1.12 l-0.24 -0.6 c-0.32 -0.84 -0.52 -1.76 -0.6 -2.64 c0 -0.28 -0.04 -0.6 -0.04 -0.88 c0 -0.12 0 -0.28 0.08 -0.4 c0 -0.04 0.04 -0.12 0 -0.16 c-0.16 -0.2 -0.04 -0.48 -0.04 -0.68 c0.08 -0.36 0.04 -0.68 0.12 -1.04 c0.12 -0.36 0.16 -0.72 0.24 -1.08 c0.04 -0.24 0.08 -0.48 0.16 -0.72 c0.12 -0.24 0.08 -0.6 0.4 -0.8 c0.04 -0.04 0 -0.12 0 -0.2 c0.16 -0.44 0.44 -0.84 0.64 -1.28 c0.28 -0.6 0.76 -1.04 1.12 -1.56 c0.24 -0.36 0.6 -0.64 0.92 -0.92 c0.12 -0.12 0.2 -0.32 0.28 -0.44 c0.24 -0.24 0.48 -0.48 0.68 -0.72 c0.28 -0.36 0.68 -0.64 1 -0.96 c0.08 -0.08 0.2 -0.16 0.32 -0.2 c0.2 -0.08 0.4 -0.2 0.52 -0.36 c0.24 -0.36 0.68 -0.44 0.96 -0.68 c0.16 -0.16 0.32 -0.32 0.48 -0.44 c0.08 -0.04 0.12 -0.08 0.16 -0.08 c0.08 0.04 0.12 0 0.16 -0.08 c0.12 -0.16 0.36 -0.2 0.52 -0.16 c0.28 0.04 0.48 -0.04 0.6 -0.24 c0.08 -0.08 0.16 -0.12 0.24 -0.08 c0.28 0.08 0.48 -0.08 0.68 -0.24 c0 0 0 -0.04 0.04 -0.04 l0 0.04 c0 0.08 0.04 0.16 0 0.2 c-0.08 0.12 -0.04 0.2 0.08 0.24 c0.08 0.04 0.12 0.12 0 0.16 c-0.16 0.04 -0.24 0.16 -0.36 0.28 c-0.04 0.08 -0.08 0.16 -0.2 0.16 c-0.04 0 -0.04 0.04 -0.04 0.08 s0.04 0.04 0.08 0.04 c0.16 0 0.36 -0.04 0.52 0 c0.04 0 0.12 -0.04 0.12 0.04 c0.04 0.04 -0.04 0.08 -0.12 0.12 c-0.16 0.08 -0.28 0.16 -0.44 0.24 c-0.08 0.04 -0.12 0.04 -0.08 0.12 s0.08 0.04 0.12 0 s0.12 -0.04 0.16 0 c0.04 0.08 -0.04 0.12 -0.08 0.16 c0 0.04 -0.12 0.04 -0.08 0.08 s0.08 0 0.12 -0.04 c0.2 -0.16 0.48 -0.16 0.64 -0.36 c0.04 0 0.16 -0.04 0.16 0.12 c0 0.08 0 0.12 0.12 0.08 s0.24 -0.04 0.36 -0.04 c0.16 0 0.4 0.08 0.52 -0.16 c0.04 -0.08 0.12 0 0.2 -0.04 c0 0.04 0 0.12 -0.04 0.16 c-0.04 0.12 -0.16 0.2 -0.2 0.28 c-0.04 0.04 -0.12 0 -0.08 0.08 c0.04 0.04 0.08 0.04 0.12 0 c0.12 -0.12 0.28 -0.24 0.48 -0.2 c0.04 0 0.04 -0.04 0.04 -0.08 c0 -0.08 0.04 -0.12 0.12 -0.12 c0.08 -0.04 0.2 0 0.16 -0.16 c0 -0.04 0.08 0 0.12 0 s0.12 0.12 0.16 -0.04 l0.08 0 c0.16 0.08 0.36 0 0.52 0.04 c0.08 0 0.16 0 0.2 -0.04 c0.04 -0.08 0.08 -0.04 0.08 0.04 c0 0.04 0 0.08 0.08 0.08 c0.04 0 0.12 -0.04 0.12 -0.12 s0 -0.08 0.08 -0.08 c0.04 0 0.16 -0.04 0.16 0.08 s0.08 0.12 0.16 0.08 c0.12 0 0.24 -0.08 0.36 0 c0.08 0.04 0.08 -0.08 0.08 -0.12 c0.04 0 0.04 -0.08 0.08 -0.08 s0.04 0.08 0.04 0.08 c0 0.08 0 0.12 0.08 0.08 c0.04 0 0.08 -0.08 0.04 -0.12 c-0.08 -0.08 -0.08 -0.16 0.04 -0.2 l0.04 0 c-0.12 -0.16 0.08 -0.28 0.04 -0.4 c0 -0.12 -0.12 -0.12 -0.2 -0.12 c0 -0.04 0 -0.04 -0.04 -0.04 c0.04 0 0.04 -0.04 0.04 -0.04 c0.16 0 0.08 -0.04 0.04 -0.08 c0 -0.04 -0.04 -0.08 -0.04 -0.08 c-0.08 -0.04 -0.12 -0.08 -0.08 -0.16 c0 -0.04 0.08 -0.08 0.16 -0.08 c0 0 0.08 0 0.12 0.04 c0.04 0.08 -0.04 0.04 -0.08 0.08 c-0.04 0 -0.08 0.04 -0.04 0.08 c0 0.04 0.04 0.08 0.08 0.04 c0.12 -0.04 0.28 -0.08 0.36 -0.2 c0.04 0 0 -0.04 -0.04 -0.04 c-0.12 -0.04 0 -0.24 -0.12 -0.28 c0 0 0 -0.04 0.04 -0.04 l0.04 0.04 c0.08 0.12 0.28 0.16 0.28 0.32 c0 0.04 0 0.04 0.04 0.04 c0 -0.04 0.04 -0.04 0.04 -0.08 c0.04 -0.04 0 -0.08 0.08 -0.08 l0 0.08 c0.04 0.04 -0.08 0.12 0 0.12 c0.04 0 0.16 0.08 0.16 -0.08 c0 0 0.04 -0.04 0.08 0 c0.08 0.16 0.28 0.12 0.4 0.2 c0.12 0.12 0.32 0.16 0.48 0.2 c0.2 0.08 0.4 0.2 0.48 0.32 c0.12 0.28 0.44 0.24 0.64 0.44 c0.12 0.08 0.28 0.12 0.44 0.24 c0.16 0.08 0.32 0.24 0.48 0.32 c0.2 0.12 0.4 0.2 0.6 0.4 c0.04 0.04 0.16 0.12 -0.04 0.16 c-0.08 0.04 -0.04 0.08 0 0.12 c0.04 0.08 0.12 0.12 0.2 0.12 c0 0 0.04 0.04 0.08 0 c0 -0.04 -0.04 -0.04 -0.04 -0.04 c-0.04 -0.04 -0.12 -0.08 -0.08 -0.12 c0.08 -0.04 0.12 -0.12 0.2 -0.04 c0.08 0.12 0.24 0.16 0.32 0.28 c0 0.04 0.04 0.04 0.04 0.04 c0.2 -0.08 0.32 0 0.44 0.16 c0.04 0.08 0 0.28 0.2 0.16 c0.04 0 0.04 0.04 0.04 0.04 c0 0.04 0 0.08 -0.04 0.08 c-0.08 0.04 -0.12 0.24 -0.08 0.36 c0.04 0 0.08 0.04 0.08 0 c0.08 -0.04 0.04 -0.12 0.04 -0.16 c0 -0.08 -0.16 -0.04 -0.04 -0.12 c0.08 -0.08 0.16 0 0.2 0.04 c0.04 0.08 0.08 0.12 0.16 0.12 c0 0 0.16 0 0.08 0.08 c-0.08 0.04 -0.04 0.08 0 0.08 c0.32 -0.08 0.36 0.2 0.52 0.36 l0.28 0.28 s0.16 0.12 0.24 0.16 c0.04 0.08 0.16 0.2 -0.04 0.2 c-0.04 0.04 -0.08 0.04 -0.08 0.08 c0.04 0.08 0.08 0.08 0.12 0.04 c0.04 -0.08 0.12 -0.08 0.16 -0.04 c0.04 0.08 -0.04 0.12 -0.08 0.12 c0 0.04 -0.12 0.04 -0.04 0.12 c0 0 0.08 0.04 0.16 -0.04 c0 -0.04 0.04 -0.08 0.08 -0.08 c0.04 0.04 0.04 0.08 0.04 0.16 c0 0.04 0 0.12 0.08 0.16 c0.04 0 0.08 0.04 0.08 0.04 c-0.16 0.16 0.04 0.16 0.12 0.24 c0.12 0.16 0.32 0.28 0.16 0.52 c0 0.04 0.04 0.08 0.04 0.08 c0.24 0 0.2 0.16 0.24 0.28 s0 0.2 -0.12 0.28 c-0.04 0 -0.12 -0.12 -0.16 -0.04 c-0.08 0.12 -0.12 0.08 -0.16 0 c-0.04 -0.04 -0.04 -0.08 -0.12 -0.04 c-0.04 0 -0.04 0.04 -0.04 0.08 c0 0.08 0.08 0.04 0.12 0.08 l0.28 0 c-0.04 0.2 -0.16 0.12 -0.24 0.08 c-0.04 0 -0.08 0 -0.12 0.04 c0 0.04 0.04 0.04 0.08 0.04 c0.16 0.04 0.08 0.12 0.04 0.2 c0 0.04 -0.08 0.04 -0.04 0.12 s0.12 0 0.16 0 c0.08 0 -0.04 -0.08 0 -0.12 s0 -0.16 0.08 -0.16 s0.08 0.08 0.08 0.16 c0 0.04 0 0.12 0.04 0.16 s0.08 0.08 0.16 0.08 c0.04 -0.04 0.04 -0.08 0.04 -0.12 c-0.04 -0.2 -0.16 -0.36 -0.28 -0.48 l0.08 -0.08 c0.04 0.08 0.12 0.16 0.24 0.08 c0.08 0 0.12 0.08 0.16 0.16 c0.12 0.28 0.16 0.56 0.16 0.84 c-0.16 0 -0.2 -0.12 -0.2 -0.24 c0 -0.04 0.04 -0.08 0 -0.08 c-0.04 -0.04 -0.08 0 -0.08 0.04 c-0.04 0.08 0 0.16 -0.12 0.12 c-0.08 0 -0.16 0 -0.16 -0.16 c0 -0.04 -0.04 -0.08 -0.12 -0.04 c-0.12 0.04 -0.08 0.12 0 0.2 c0.08 0.04 0.16 0.08 0.08 0.24 c-0.04 0.08 0.16 0.12 0.12 0.24 c0.04 0 0.08 -0.04 0.08 -0.04 l0 -0.16 c0.04 -0.04 -0.04 -0.12 0.04 -0.16 c0.08 0 0.12 0 0.16 0.08 c0.08 0.04 0.16 0 0.2 -0.04 l0.04 0.04 c-0.08 0.2 0.12 0.32 0.08 0.52 c0 0.12 0.08 0.2 0.08 0.28 c0 0.12 0 0.2 -0.16 0.16 l-0.12 0 s-0.04 0 -0.08 0.04 l0.04 0.04 c0.12 0.04 0.16 0.12 0.2 0.16 c0.08 0.08 0.2 0.16 0.04 0.24 c-0.04 0.04 0 0.08 0.04 0.08 c0.24 0 0.32 0.16 0.44 0.32 c0.04 0.04 0 0.08 0 0.12 c-0.04 0.08 -0.04 0.16 0.04 0.2 c0.08 0.08 0.08 0.12 -0.04 0.16 c-0.04 0.04 -0.04 0.12 0 0.12 c0.12 0 -0.04 0.24 0.16 0.16 c0.08 0 0.16 0 0.2 0.08 s0.04 0.2 0.08 0.32 c0 0.04 -0.08 0 -0.12 -0.04 c-0.08 0 -0.08 -0.04 -0.08 -0.08 c-0.04 -0.08 0.12 -0.12 0 -0.16 c-0.08 -0.04 -0.12 0 -0.12 0.08 c-0.04 0.08 -0.08 0.16 0 0.2 l0.24 0.12 c0.04 0.04 0.08 0.08 0.08 0.12 s-0.08 0.04 -0.12 0.04 c-0.08 0 0 -0.04 -0.04 -0.08 c0 -0.08 -0.08 -0.08 -0.12 -0.08 c-0.08 0 -0.08 0.04 -0.08 0.08 c0 0.16 -0.16 0.32 0.04 0.48 l0 0.04 c-0.04 0.04 -0.16 0.08 -0.04 0.12 c0.08 0 0.16 0.04 0.2 -0.08 c0 -0.08 0.04 -0.2 0.04 -0.28 c-0.04 -0.08 0 -0.08 0.04 -0.12 c0.12 0 0.08 0.08 0.08 0.08 c0.04 0.12 0.04 0.12 -0.04 0.16 s-0.04 0.08 -0.04 0.12 c0.04 0.04 0.08 0.08 0.12 0.04 c0.16 -0.12 0.16 0.04 0.16 0.12 c0 0.12 -0.04 0.28 -0.04 0.44 c-0.04 0.08 -0.04 0.08 -0.12 0.08 s-0.16 0 -0.12 -0.12 l0 -0.12 c0 -0.08 0 -0.16 -0.08 -0.12 c-0.04 0 -0.12 0 -0.12 0.08 c0 0.04 -0.04 0.12 0.04 0.12 c0.04 0 0.08 0.04 0.08 0.08 c0 0.12 0.04 0.16 0.16 0.16 c0.04 0 0.08 0 0.08 0.04 c0 0.08 0 0.08 -0.04 0.12 c-0.24 0.04 -0.08 0.16 -0.04 0.2 c0.12 0.12 0.16 0.48 0.08 0.6 c-0.04 0.04 -0.12 0.08 -0.16 0 s-0.08 -0.04 -0.12 0 c-0.08 0.04 0.04 0.12 0 0.16 s0 0.08 0.08 0.08 c0.24 -0.08 0.2 0.12 0.12 0.2 c-0.08 0.16 -0.04 0.28 -0.04 0.4 c-0.04 0.24 -0.04 0.52 -0.24 0.68 c-0.04 0 -0.04 0.04 0 0.04 c0.16 0 0.04 0.12 0.04 0.16 c0 0.08 -0.08 0.08 -0.16 0.08 c-0.04 0.04 -0.08 0 -0.12 0.04 c0 0.04 0.08 0.04 0.12 0.04 c0.12 0.08 0.08 0.2 0.08 0.28 c-0.16 0.52 -0.28 1.04 -0.48 1.56 c-0.32 0.92 -0.72 1.76 -1.2 2.64 c-0.36 0.64 -0.72 1.28 -1.2 1.88 c-0.52 0.64 -1.12 1.24 -1.8 1.72 s-1.4 0.92 -2.16 1.36 c-0.68 0.36 -1.4 0.64 -2.12 0.88 c-0.64 0.24 -1.28 0.36 -1.96 0.48 c-0.2 0.04 -0.4 0 -0.6 0.04 z M128.66 37.28 c0.04 0 0 -0.04 0 -0.04 c-0.12 -0.04 -0.24 -0.12 -0.36 -0.08 c-0.04 0.04 -0.12 0.08 -0.16 0.08 c0.04 0.08 0.12 0 0.16 0 c0.08 0.04 0.16 0.08 0.24 0.04 c0.04 0 0.08 0.08 0.12 0 z M125.9 34.64 c0 0 0.04 -0.04 0.04 -0.08 c-0.08 -0.04 -0.16 -0.08 -0.24 -0.08 c-0.04 0 -0.04 0.04 -0.04 0.08 c0.04 0.08 0.16 0 0.24 0.08 z M128.54000000000002 37 c0.08 0.04 0.16 0.08 0.16 -0.04 c-0.04 -0.08 0.04 -0.2 -0.08 -0.2 c-0.16 0.04 -0.28 -0.04 -0.44 -0.08 c-0.08 -0.04 -0.12 0 -0.16 0.04 c-0.04 0.08 -0.08 0.16 0 0.2 c0.04 0.04 0.08 0.12 0.16 0.04 c0.12 -0.08 0.24 -0.04 0.36 0.04 z M128.26000000000002 36.64 c0.12 -0.04 0.2 -0.08 0.36 -0.12 c-0.08 -0.08 -0.16 -0.16 -0.2 -0.12 c-0.08 0 -0.16 0.08 -0.2 0.16 c-0.04 0.04 0 0.08 0.04 0.08 z M127.9 35.519999999999996 c0.12 0.24 0.24 0.2 0.36 0 c0.04 -0.04 0.08 -0.04 0.04 -0.12 c-0.04 -0.04 -0.04 0.04 -0.08 0.04 c-0.08 0.04 -0.2 0.16 -0.28 0 c-0.04 -0.08 -0.12 0 -0.12 0.08 l0 0 l0.08 0 z M129.10000000000002 36.68 c0.08 -0.04 0.16 -0.08 0.16 -0.16 c0 -0.12 -0.04 -0.04 -0.12 -0.04 c-0.04 -0.04 -0.08 0 -0.08 0.12 c0 0.04 0 0.08 0.04 0.08 z M128.86 35.88 c-0.04 0 -0.16 0 -0.12 -0.12 c0 -0.08 0.04 -0.16 -0.08 -0.04 c-0.04 0.08 -0.04 0.04 -0.08 0 c0 -0.12 -0.08 -0.08 -0.12 -0.08 c-0.08 0 -0.12 0.04 -0.16 -0.04 c0 -0.04 0.08 -0.04 0.12 -0.08 c0.24 -0.04 0.48 0.08 0.48 0.24 c0 0.04 0.08 0.12 -0.04 0.12 z M128.10000000000002 34.88 c-0.12 0 -0.24 -0.04 -0.4 -0.04 c-0.04 -0.04 -0.12 -0.04 -0.2 0 c-0.04 0 -0.08 0.08 -0.12 0 c0 -0.08 0.04 -0.12 0.12 -0.16 c0.16 -0.04 0.28 0.04 0.44 0.04 c0.04 0.04 0.12 0.04 0.16 0.04 c0.08 0 0.16 -0.04 0.16 0.08 c0 0.08 -0.08 0.04 -0.16 0.04 z M129.18 35.72 c-0.04 -0.04 0 -0.08 0.04 -0.12 c0 -0.04 0 -0.08 -0.04 -0.08 c-0.12 -0.08 -0.08 -0.12 -0.04 -0.2 c0.08 -0.12 0.04 -0.12 -0.08 -0.12 c-0.2 0 -0.4 0.08 -0.6 0 c0 -0.04 -0.04 -0.04 -0.04 -0.08 l0.04 0 c0.12 0 0.24 -0.04 0.32 0 c0.04 0.04 0.08 -0.04 0.04 -0.12 c0 -0.04 -0.08 -0.08 -0.04 -0.12 c0.04 -0.08 0.08 0 0.16 0 l0.12 0 l0.08 0.08 c0 0.04 -0.04 0.04 -0.08 0.04 c-0.04 0.04 -0.08 0.04 -0.08 0.08 s0.08 0.04 0.12 0.04 l0.12 0 c0.08 0 0.12 0.08 0.08 0.12 c-0.24 0.2 0.04 0.24 0.08 0.36 c-0.04 0 -0.08 0.04 -0.12 0.08 c0 0 -0.04 0.04 -0.08 0.04 z M129.42000000000002 36.16 c-0.08 -0.08 0 -0.12 0.04 -0.16 c0.08 -0.12 0.04 -0.32 -0.08 -0.4 l0 0 c0.12 -0.04 0.2 -0.04 0.32 0 c0.12 0.08 0.24 0.12 0.4 0.08 c0.04 0 0.08 0 0.08 0.04 c0 0.08 -0.04 0.08 -0.08 0.04 l-0.24 0 c-0.12 0 -0.28 -0.04 -0.16 0.16 c0 0.04 -0.12 0.2 -0.2 0.2 c-0.04 0 0.04 0.2 -0.08 0.04 z M130.18 36.6 c-0.08 -0.08 -0.08 -0.12 0 -0.2 c0.12 -0.08 0 -0.08 -0.04 -0.12 c-0.08 0 -0.16 0 -0.16 -0.04 c0 -0.08 0.12 -0.08 0.16 -0.08 l0.04 0 l0.12 0 c0.08 0 0.16 -0.08 0.28 -0.04 c-0.04 0.08 -0.16 0.08 -0.2 0.16 s0.04 0.16 -0.08 0.24 c-0.04 0.04 -0.04 0.16 -0.12 0.08 z M129.82000000000002 35.56 c0 -0.04 0.08 -0.04 0.08 -0.08 c0 -0.08 0.12 -0.16 -0.04 -0.16 c-0.04 0 -0.08 0 -0.08 -0.08 c0 -0.04 0.12 -0.04 0.12 -0.12 c0.04 -0.08 0.08 -0.08 0.12 0 c0.04 0.04 0.08 -0.04 0.12 -0.04 c0.04 0.04 0.12 0.04 0.12 0.08 c0.04 0.04 -0.04 0.04 -0.04 0.08 c-0.04 0 -0.04 0.04 0 0.08 c0.04 0.08 -0.04 0.12 -0.12 0.12 c-0.04 0 -0.12 0 -0.16 0.04 c0 0.08 -0.08 0.08 -0.12 0.08 z M131.38 35.519999999999996 c-0.04 0 -0.08 0 -0.08 -0.04 c0.04 -0.16 -0.08 -0.12 -0.16 -0.08 c-0.04 0 -0.08 0.04 -0.08 -0.04 c0 -0.16 0.08 -0.16 0.16 -0.24 c0.04 -0.08 0.12 0 0.12 0.04 c0.08 0.12 0.12 0.08 0.2 0.04 c0.04 -0.04 0.04 -0.12 0.12 -0.08 c0.04 0.04 0.04 0.12 0.04 0.16 c-0.08 0.16 -0.24 0.12 -0.32 0.24 z M132.58 35.2 c-0.24 0 -0.36 -0.16 -0.32 -0.36 c0.04 -0.08 0 -0.08 -0.04 -0.08 s-0.12 0 -0.12 -0.04 c0 -0.08 0.08 -0.04 0.12 -0.04 c0.16 -0.04 0.28 -0.04 0.4 -0.12 c0.04 0 0.12 -0.04 0.12 0.04 c0.04 0.08 0 0.12 -0.04 0.16 c-0.04 0 -0.08 0.04 -0.04 0.08 c0 0 0.04 0.04 0.08 0.04 c0.08 -0.04 0.12 0.04 0.12 0.12 s-0.04 0.16 -0.16 0.16 c-0.04 0 -0.08 0.04 -0.12 0.04 z M134.02 35.2 c0.08 0 0.08 -0.08 0.12 -0.12 c-0.04 -0.08 -0.04 -0.12 -0.12 -0.08 c-0.08 0 -0.16 0.04 -0.16 0.12 c0 0.04 0.08 0.12 0.16 0.08 z M134.54000000000002 35.12 c0.04 0 0.08 0 0.12 -0.04 s-0.04 -0.08 -0.08 -0.12 c0.04 -0.08 0.16 0.04 0.16 -0.04 c0 -0.04 -0.04 -0.16 -0.12 -0.16 s-0.12 0 -0.16 0.08 c0 0.08 0.08 0.12 0.12 0.12 c-0.08 0.2 -0.12 0.04 -0.16 0 c-0.08 -0.08 -0.12 -0.04 -0.2 -0.04 c-0.04 0.04 -0.04 0.08 -0.04 0.12 c0.04 0.04 0.08 0.08 0.16 0.08 l0.2 0 z M122.9 22.16 c0.12 0 0.2 -0.16 0.32 -0.2 c0.04 0 0 -0.12 0.04 -0.16 l-0.04 0 c0.04 0 0.04 -0.04 0.04 -0.04 c0 -0.04 0.04 -0.12 -0.04 -0.12 c-0.08 -0.04 -0.12 0 -0.16 0.08 c-0.04 0.04 0 0.08 0.08 0.08 c0.04 0 0.04 0.04 0.04 0.08 c0 0.08 -0.04 0.04 -0.08 0.08 c-0.08 0 -0.12 -0.04 -0.2 -0.04 c-0.04 0 -0.12 0.04 -0.12 0.12 c0.04 0.04 0.08 0.16 0.12 0.12 z M123.46000000000001 21.64 c0.04 0 0.04 -0.08 0.08 -0.12 c-0.12 0 0 -0.16 -0.08 -0.12 c-0.12 0.08 -0.24 0.04 -0.32 0 c-0.04 -0.04 -0.08 -0.04 -0.12 0 c0 0.04 0.08 0.04 0.08 0.08 c0.08 0.08 0.2 0.04 0.28 0.12 c0.04 0 0 0.08 0.08 0.04 z M123.66000000000001 21.24 c0 -0.04 0.04 -0.12 0 -0.16 c-0.08 -0.04 -0.12 -0.08 -0.12 -0.16 c0.12 0.04 0.24 0 0.28 0.12 c0 0.04 0.08 0.08 0.12 0.04 c0.08 -0.08 0 -0.12 -0.04 -0.16 s-0.08 -0.08 -0.04 -0.16 c0.04 -0.2 -0.2 -0.16 -0.24 -0.28 c-0.04 0 -0.04 0.04 -0.04 0.04 c0.08 0.12 -0.08 0.28 -0.04 0.4 c-0.08 0 -0.2 0.04 -0.24 0.12 c-0.04 0.04 -0.12 0 -0.12 0.08 c0.04 0.04 0.08 0.08 0.16 0.04 c0.08 -0.08 0.24 0 0.28 0.08 c0 0.08 0.04 0.04 0.04 0 z M129.70000000000002 37.32 c0.08 0 0.04 -0.08 0.04 -0.12 c0 0 0.04 -0.04 0.08 -0.04 c0.16 0 0.04 -0.12 0.08 -0.2 c0.04 -0.12 -0.08 -0.04 -0.12 -0.08 c-0.04 -0.08 -0.24 -0.08 -0.2 -0.12 c0.08 -0.12 0.08 -0.24 0.16 -0.28 c0.04 -0.04 0.04 -0.16 0.12 -0.12 s0.04 0.12 0.04 0.2 c-0.04 0.04 -0.08 0.12 -0.04 0.12 c0.04 0.04 0.04 -0.04 0.08 -0.04 c0.08 -0.04 0.12 0 0.16 0.04 c0 0.2 0.16 0.16 0.28 0.2 c0.04 0 0.08 -0.04 0.08 0.04 s0.04 0.12 0.08 0.08 c0.08 -0.04 0 -0.08 0 -0.12 c-0.08 -0.16 -0.04 -0.32 0.12 -0.32 c0.16 -0.04 0.28 -0.12 0.36 -0.28 c0.04 -0.04 0.12 -0.04 0.16 -0.08 s0.16 0.04 0.16 -0.04 s-0.12 -0.08 -0.16 -0.08 c-0.04 0.04 -0.08 0.04 -0.08 -0.04 l0 -0.08 c0.2 -0.08 0.08 -0.2 0.08 -0.32 c0 -0.04 -0.04 -0.08 0 -0.08 c0 -0.04 0.04 0.04 0.08 0.08 l0 0.12 c0 0.08 0.04 0.12 0.16 0.08 c0.04 0 0.08 -0.08 0.12 0.04 c0.04 0.08 0.04 0.16 -0.04 0.2 c-0.04 0 -0.08 0.04 -0.04 0.08 c0.12 0.04 0.12 0.16 0.2 0.24 c0 0 0.08 0.12 0.16 0.08 s0 -0.08 0 -0.16 c0 -0.12 0.08 -0.2 0.24 -0.16 l0.2 0 c0.08 -0.04 0 -0.12 0 -0.16 c0 -0.08 0 -0.12 0.04 -0.16 c0.08 -0.08 0.16 -0.2 0.28 -0.24 c0.2 -0.04 0.24 -0.16 0.12 -0.28 c-0.04 0 -0.12 0 -0.12 -0.08 c0.04 0 0.12 0 0.16 0.04 c0.08 0.04 0.2 0.08 0.12 0.2 c-0.04 0.04 0 0.08 0.04 0.16 c0.08 0.08 0.12 0.2 0 0.32 c0 0 -0.04 0.04 0.04 0.04 c0.16 0.04 0.36 -0.12 0.44 -0.32 c0 0 0 -0.04 0.04 -0.04 c0.2 0.08 0.08 -0.08 0.12 -0.16 l0 -0.04 l0.04 0.04 l0 0.16 c0.12 -0.12 0.24 0.04 0.32 -0.08 c0.08 -0.16 0.16 -0.16 0.2 0 c0.04 0.04 0.04 0.08 0.08 0.08 s0.08 -0.04 0.08 -0.04 c-0.08 -0.08 -0.12 -0.28 -0.16 -0.28 c-0.16 0.04 -0.24 -0.04 -0.36 -0.12 c-0.2 -0.2 -0.32 0 -0.44 0.08 c-0.08 0.08 -0.08 0.08 -0.16 0 c-0.04 -0.12 0 -0.16 0.08 -0.2 s0.16 -0.04 0.28 -0.08 c0.04 -0.04 0.04 -0.04 0.04 -0.12 c0 -0.04 -0.04 -0.08 -0.08 -0.08 c-0.08 -0.04 -0.08 0.04 -0.08 0.08 c-0.04 0.12 -0.16 0.08 -0.2 0.08 c-0.08 -0.04 -0.08 -0.12 -0.04 -0.2 c0.08 -0.08 0.08 -0.2 -0.08 -0.16 c-0.04 0 -0.08 0 -0.08 -0.04 s0.04 -0.04 0.08 -0.08 c0.2 -0.04 0.36 -0.08 0.52 -0.2 c0.04 -0.04 0.08 -0.04 0.12 0 s-0.04 0.04 -0.04 0.08 c-0.04 0.04 -0.12 0.12 -0.04 0.16 s0.08 0.12 0.12 0.2 c0.04 0.16 0.08 0.12 0.2 0.08 c0.16 -0.08 0.04 -0.32 0.24 -0.36 c0 -0.04 0 -0.04 -0.04 -0.08 c-0.08 -0.12 0.04 -0.2 0.04 -0.28 c0.08 -0.12 0.16 0 0.2 0 c0.04 0.04 0.08 0.08 0.08 0.04 c0.04 -0.04 0 -0.08 -0.04 -0.08 c-0.12 -0.08 -0.12 -0.08 0 -0.2 c0.08 -0.08 0.12 -0.08 0.24 -0.12 c0.2 0 0.44 -0.12 0.52 -0.4 l0 -0.08 c0.2 -0.12 0.4 -0.28 0.6 -0.44 c0.36 -0.36 0.68 -0.68 1 -1.08 c0.08 -0.08 0.2 -0.12 0.2 -0.28 c0 -0.12 0.04 -0.16 0.16 -0.2 c0.04 0 0.12 -0.04 0.12 -0.12 c0.04 -0.12 0.16 -0.24 0.24 -0.32 c0.52 -0.52 0.8 -1.24 1.12 -1.88 c0.16 -0.32 0.28 -0.72 0.4 -1.08 c0.12 -0.52 0.28 -1 0.36 -1.52 c0.04 -0.32 -0.04 -0.4 -0.36 -0.44 c-0.04 0 -0.08 0.04 -0.08 0 c0 -0.08 0 -0.16 0.04 -0.24 c0.04 -0.16 -0.12 0 -0.12 -0.12 c-0.04 -0.28 -0.2 -0.52 -0.4 -0.72 c-0.32 -0.36 -0.68 -0.72 -0.8 -1.24 c-0.04 0 -0.04 -0.04 -0.08 -0.08 c-0.12 -0.12 -0.2 -0.32 -0.28 -0.48 c-0.04 -0.08 -0.08 -0.2 -0.16 -0.28 c-0.12 -0.16 -0.2 -0.36 -0.4 -0.52 c0 0 -0.12 -0.08 0 -0.16 c0 0 0.08 0.04 0.04 -0.04 c0 0 -0.04 0 -0.04 -0.04 c-0.08 0 -0.2 0.04 -0.24 -0.08 c-0.12 -0.2 -0.32 -0.36 -0.48 -0.56 c-0.04 -0.04 -0.12 -0.08 -0.12 -0.2 c0 -0.04 -0.04 -0.08 -0.08 -0.08 c-0.04 0.04 0 0.08 0 0.08 c0.04 0.04 0.04 0.08 0 0.12 c-0.04 0 -0.04 -0.04 -0.08 -0.08 c-0.08 -0.08 -0.04 -0.2 -0.16 -0.2 s-0.08 -0.08 -0.12 -0.16 c0 -0.04 0.04 -0.08 0.04 -0.12 s0.04 -0.08 -0.04 -0.08 c-0.04 0 0 0.08 -0.08 0.04 l-0.36 -0.24 c-0.16 -0.08 -0.24 -0.16 -0.24 -0.36 c0 0 -0.04 0 -0.08 -0.04 c-0.12 -0.2 -0.36 -0.24 -0.48 -0.44 s-0.28 -0.36 -0.48 -0.44 c-0.04 0 -0.08 -0.04 -0.04 -0.08 s0.04 0 0.08 0 c0.04 0.04 0.12 0.04 0.12 -0.04 c0.04 -0.04 -0.04 -0.08 -0.08 -0.08 s-0.12 -0.04 -0.16 0 c-0.16 0.12 -0.24 -0.04 -0.32 -0.12 c-0.04 0 -0.04 -0.08 -0.12 -0.08 c-0.16 0 -0.28 -0.12 -0.36 -0.28 c-0.04 -0.04 -0.04 -0.04 -0.12 0 c-0.16 0.08 -0.16 0.04 -0.2 -0.12 c0 -0.08 -0.08 -0.16 -0.16 -0.16 c-0.12 0 0 0.08 0 0.12 s-0.04 0.04 -0.08 0.04 c-0.04 -0.04 -0.12 -0.08 -0.12 -0.12 c-0.04 -0.2 -0.16 -0.16 -0.24 -0.12 c-0.24 0.12 -0.32 -0.12 -0.52 -0.12 c0 -0.2 -0.2 -0.28 -0.28 -0.4 c-0.08 -0.08 -0.28 -0.12 -0.32 -0.04 c-0.08 0.08 -0.12 0.12 -0.2 0.04 c-0.04 -0.08 -0.12 -0.08 -0.16 -0.04 c-0.04 0.08 0.04 0.08 0.08 0.12 c0 0.08 0.04 0.04 0.08 0.04 c0.2 0.08 0.4 0.04 0.6 0.16 c0.04 0 0.08 -0.04 0.08 0 c0 0.08 -0.04 0.12 -0.04 0.16 c-0.04 0 -0.08 -0.04 -0.08 -0.04 c-0.04 -0.08 -0.12 -0.08 -0.16 -0.04 c-0.12 0.12 -0.24 0.04 -0.28 0 c-0.12 -0.16 -0.24 -0.04 -0.36 -0.08 c-0.24 -0.08 -0.56 0.04 -0.8 -0.2 c-0.04 -0.04 -0.16 -0.04 -0.16 0.04 c-0.04 0.04 -0.12 0.12 -0.04 0.16 c0.12 0.04 0.08 0.08 0.08 0.16 c0 0 0 0.04 0.04 0.08 c0.04 0 0.04 0 0.08 -0.04 c0.08 -0.08 0.28 -0.08 0.36 0.04 c0.04 0 0.04 0.04 0.04 0.08 l-0.08 0 c-0.2 -0.08 -0.4 0 -0.6 0.04 c-0.24 0.04 -0.52 0.12 -0.76 0.16 c-0.36 0.04 -0.72 0.16 -1.12 0.2 c-0.12 0 -0.24 0.04 -0.32 0.16 c-0.28 0.4 -0.64 0.68 -0.96 1.04 c-0.04 0.04 -0.08 0.12 -0.16 0.04 c-0.04 -0.04 0.04 -0.08 0.04 -0.12 c0.08 -0.08 0.12 -0.2 0.24 -0.28 c-0.12 0 -0.24 0 -0.4 -0.04 c0 0 -0.04 0 -0.08 0.04 c0 0 0 0.08 0.04 0.08 c0.08 0.04 0.08 0.08 0 0.12 c-0.12 0.04 -0.2 0.04 -0.28 0.16 c-0.04 0.04 -0.12 0 -0.16 -0.04 s0.04 -0.08 0.04 -0.12 c0.08 -0.04 0.24 -0.04 0.2 -0.2 c-0.04 -0.08 -0.04 -0.12 0 -0.2 c0 -0.04 -0.04 -0.08 -0.08 -0.08 c0 0 -0.08 0 -0.08 0.04 c0 0.12 0 0.12 -0.08 0.12 c-0.12 -0.04 -0.2 -0.04 -0.08 0.08 c0.04 0.08 -0.04 0.12 -0.08 0.16 c-0.16 0.16 -0.32 0.32 -0.44 0.48 c-0.08 0.08 -0.08 0.28 -0.24 0.08 l-0.04 0 c-0.04 0.16 -0.08 0.24 -0.24 0.32 c0 0 0.08 0.12 0.08 0.16 c0 0.12 -0.16 -0.04 -0.12 0.04 c0 0.16 -0.08 0.16 -0.2 0.2 c-0.04 0.04 -0.04 0.08 0 0.12 c0.12 0.08 0.12 0.12 0.04 0.2 s0 0.2 -0.16 0.2 c0 0 -0.04 0.04 0 0.04 c0.16 0.16 -0.04 0.28 -0.08 0.4 c-0.04 0.16 -0.12 0.2 -0.28 0.08 l-0.08 0 c0 0.04 0.04 0.08 0.04 0.08 c0.12 0.04 0.12 0.08 0.04 0.2 c-0.16 0.08 -0.32 0.16 -0.32 0.4 c-0.04 0.08 -0.08 -0.04 -0.08 -0.04 c-0.08 -0.08 -0.12 -0.08 -0.08 -0.04 c0.08 0.12 -0.2 0.2 -0.04 0.36 c0.08 0.04 -0.08 0 -0.12 0 c-0.12 0.04 0.12 0.16 -0.04 0.16 c-0.08 0 -0.16 -0.08 -0.24 0 c0.08 0 0.16 0.04 0.24 0.08 c0.04 0 0.08 0.04 0.12 0.04 s0.08 0 0.04 0.04 c-0.16 0.08 -0.12 0.28 -0.2 0.36 c-0.16 0.08 -0.12 0.16 -0.12 0.28 c0 0.08 -0.04 0.12 -0.04 0.2 c-0.04 0.16 -0.16 0.32 -0.16 0.48 c0.08 0.32 -0.08 0.6 -0.12 0.88 c-0.04 0.12 -0.04 0.16 0 0.24 c0.08 0.08 0.08 0.16 -0.04 0.16 c-0.16 0 -0.08 0.08 -0.04 0.12 c0.08 0.08 0.08 0.16 0.08 0.28 c0 0.2 -0.12 0.36 -0.12 0.52 c0.04 0.4 0 0.8 0.04 1.2 c0.12 0.64 0.2 1.28 0.36 1.92 c0.08 0.32 0.16 0.68 0.28 1.04 c0.12 0.32 0.28 0.6 0.56 0.84 c0.12 0.16 0.24 0.28 0.36 0.48 c0.08 0.08 0.12 0.2 0.2 0.28 c0.4 0.32 0.68 0.68 1.16 0.88 c0.08 0.04 0.12 0.08 0.16 0.16 c0.04 0 0.04 0.08 0.04 0.12 c-0.08 0.04 -0.08 0 -0.12 -0.04 c-0.04 0 -0.04 -0.04 -0.08 -0.04 c-0.04 -0.04 -0.08 -0.08 -0.12 -0.04 c-0.04 0.08 -0.12 0.04 -0.12 0.12 s0.08 0.08 0.12 0.12 l0.2 0 c0.12 0.04 0.16 0.12 0.16 0.24 c0 0.04 0 0.16 0.04 0.16 c0.08 -0.04 0.16 0.12 0.2 0.04 s0.12 -0.2 0.04 -0.28 c-0.04 -0.04 -0.12 -0.04 -0.08 -0.12 c0.04 0 0.12 -0.04 0.16 0.04 c0.04 0.04 0.16 0.12 0.04 0.2 c-0.04 0.04 -0.04 0.04 0.04 0.08 c0.2 0.08 0.36 0.16 0.56 0.24 c0.08 0.04 0.12 0.08 0.2 0.04 c0.08 -0.08 0.12 0.04 0.16 0.08 s0 0.04 -0.04 0.08 s-0.12 0.04 -0.08 0.08 c0 0.08 0.04 0 0.12 0 c0.04 0 0.12 0 0.12 0.04 c0.04 0.08 -0.08 0.04 -0.08 0.08 c-0.2 0.04 -0.36 0.08 -0.56 0.04 c-0.04 -0.04 -0.12 -0.08 -0.16 0 c0 0.08 0.08 0.08 0.12 0.08 c0.08 0 0.04 0.04 0.04 0.08 c0.04 0.08 0.44 0.24 0.52 0.2 c0.16 -0.16 0.28 -0.08 0.44 0.04 c-0.08 0 -0.16 0.08 -0.12 0.08 c0.04 0.12 0.04 0.28 0.16 0.32 c0.08 0 0.12 0.12 0.16 0.04 s-0.04 -0.08 -0.12 -0.12 c-0.04 0 -0.04 -0.04 0 -0.08 c0.08 -0.04 0.04 -0.04 0 -0.08 c0 -0.04 -0.04 -0.12 -0.08 -0.16 c0.08 0 0.16 0 0.2 0.04 c0.12 0 0.2 0.08 0.16 0.2 c-0.04 0.16 0.08 0.16 0.2 0.16 l0 0 c0 0.08 0.12 0.2 0 0.24 c-0.16 0.08 -0.08 0.2 -0.04 0.28 c0 0.08 0.12 0.04 0.16 0.04 c0.12 -0.04 0.24 0 0.32 0.08 s0.12 0.04 0.16 0 s0.08 -0.24 0.12 0 c0 0.04 0.04 0.04 0.04 0 c0.12 -0.12 0.24 0 0.32 0.04 c0.12 0.04 0.12 0 0.16 -0.12 c0.04 -0.04 0 -0.16 0 -0.2 c0.08 -0.04 0.12 0.12 0.2 0.08 c0.04 -0.04 0.08 -0.08 0.08 -0.04 c0.04 0.04 0 0.12 -0.04 0.12 c-0.16 0.04 -0.08 0.12 -0.04 0.2 s0.12 0.12 0.2 0.12 c0.04 0 0.12 0 0.12 0.04 c0 0.08 -0.04 0.04 -0.08 0.04 s-0.08 0 -0.04 0.04 c0.12 0.2 -0.04 0.16 -0.16 0.2 c-0.08 0.04 -0.12 0.12 -0.12 0.2 c0.04 0.08 0.12 0.12 0.2 0.12 l0.2 0 c0.08 0.04 0.12 0.08 0.04 0.12 c-0.04 0.04 -0.12 0.04 -0.08 0.12 c0.04 0.04 0.08 0.08 0.16 0.08 z M125.42000000000002 20.24 c-0.08 0 -0.16 -0.08 -0.24 -0.12 s0.04 -0.04 0.08 -0.08 c0.04 -0.12 0.12 -0.2 0.24 -0.12 c0.08 0.04 0.12 -0.04 0.12 -0.08 c0 -0.08 0.04 -0.12 0.12 -0.16 c0.04 0 0.08 -0.04 0.08 0 c0.04 0.04 0 0.04 -0.04 0.08 c-0.08 0.04 -0.08 0.08 0.04 0.08 c0.04 0 0.08 0.08 0.04 0.12 c-0.12 0.12 -0.28 0.24 -0.44 0.28 z M125.34 15.879999999999999 c0.04 0 0.12 -0.04 0.16 -0.08 c0.04 0 0.08 -0.08 0.16 -0.08 c0.2 -0.04 0.28 -0.16 0.28 -0.36 c0 0 0.04 -0.04 0 -0.08 c-0.04 0 -0.08 0 -0.08 0.04 c-0.12 0.04 -0.24 0.08 -0.32 0.16 s-0.2 0.12 -0.2 0.28 c0.08 0.04 -0.04 0.12 0 0.12 z M128.42000000000002 17.88 c0.04 0 0.12 -0.04 0.2 -0.04 c0.12 0.04 0.2 -0.04 0.28 0 c0.08 0 0.08 -0.08 0.08 -0.12 c0 -0.08 -0.04 -0.08 -0.08 -0.08 c-0.12 -0.04 -0.08 0.04 -0.08 0.08 c0 0.08 -0.08 0 -0.12 0.04 c-0.2 -0.16 -0.44 -0.16 -0.68 -0.16 c-0.04 0 -0.12 0.04 -0.12 0.08 c0 0.08 0.08 0.08 0.12 0.08 s0.12 0.04 0.16 0 c0.08 -0.08 0.12 0 0.12 0.04 c-0.04 0.12 0 0.12 0.12 0.08 z M126.94000000000001 14.96 c0.08 0.04 0.12 -0.04 0.12 -0.04 c-0.04 -0.08 -0.12 -0.16 -0.2 -0.16 c-0.12 -0.04 0.04 0.08 0 0.16 c-0.08 0.08 0.08 0 0.08 0.04 z M130.34 18.24 c-0.04 0.04 -0.12 0.04 -0.16 0 s-0.08 -0.04 -0.08 -0.12 s0.08 0 0.12 -0.04 l0.08 0 c0.04 -0.04 0.08 -0.08 0.16 0 c0.04 0.04 0 0.12 0 0.16 c0 0.08 -0.08 0 -0.12 0 z M128.34 15.760000000000002 c0.04 0.04 0.32 -0.24 0.32 -0.28 c-0.04 0 -0.04 0 -0.04 -0.04 c-0.08 0 -0.32 0.24 -0.32 0.28 s0.04 0.04 0.04 0.04 z M128.94 15.719999999999999 c0.16 0 0.36 -0.08 0.44 -0.24 c0.04 -0.04 0.08 -0.04 0.08 -0.12 c-0.04 -0.04 -0.12 0 -0.16 0 c-0.16 0 -0.32 0.2 -0.52 0.08 l0 0.04 c-0.08 0.08 0.08 0.12 0.04 0.2 c0 0.04 0.04 0.08 0.12 0.04 z M141.82000000000002 26.92 l0.04 -0.04 c-0.04 -0.12 0.04 -0.2 0.04 -0.32 c0 -0.04 -0.04 -0.12 -0.08 -0.08 c-0.08 0 -0.12 0.04 -0.2 0.08 c0.12 0.08 0.16 0.2 0.2 0.32 l0 0.04 z M141.70000000000002 26.16 c0.12 0 0.24 -0.16 0.16 -0.28 c0 -0.04 0 -0.16 -0.08 -0.12 c-0.08 0 -0.04 0.08 0 0.16 c0 0.08 0 0.12 -0.12 0.12 c-0.04 0 -0.04 0 -0.04 0.04 c0 0.08 0.04 0.08 0.08 0.08 z M130.94 14.64 c-0.08 0 -0.12 0 -0.12 -0.04 c-0.04 -0.08 -0.04 -0.12 -0.12 -0.16 c-0.04 0 -0.04 -0.08 0 -0.12 c0 -0.04 0.04 -0.04 0.08 -0.04 c0.08 0.04 0.16 0.04 0.24 0.08 c0.12 0.04 0.24 0.12 0.24 -0.08 c0 -0.04 0 -0.08 0.04 -0.04 l0 0.32 c-0.04 0 -0.04 0.04 -0.08 0.04 c-0.04 -0.04 -0.08 -0.12 -0.2 -0.12 c-0.04 0 -0.08 -0.04 -0.12 0 c-0.08 0.04 0 0.08 0.04 0.08 c0.04 0.04 0 0.08 0 0.08 z M131.82000000000002 14.68 c-0.04 -0.04 -0.12 0.04 -0.16 0 s-0.08 -0.04 -0.08 -0.08 c0.04 -0.08 0.08 -0.04 0.08 0 c0.08 0 0.12 0 0.16 -0.08 c0.04 -0.04 0.04 -0.12 0.04 -0.08 c0.04 0.08 0.04 0.16 0.04 0.24 c0 0 -0.04 0.08 -0.08 0 z M132.5 14.760000000000002 c-0.08 0.16 -0.12 0.12 -0.12 -0.04 c0 -0.04 -0.04 -0.08 -0.08 -0.04 c-0.16 0.08 -0.24 0.04 -0.28 -0.12 c-0.04 -0.08 0 -0.16 -0.04 -0.24 l0 -0.04 c0.04 -0.04 0.08 0 0.08 0.04 c0.04 0.12 0.16 0.12 0.24 0.12 c0.12 0 0.2 0.04 0.28 0.08 c0.04 0.04 0.12 0.04 0.08 0.08 c0 0.08 0 0.12 -0.08 0.16 c-0.04 0 -0.08 -0.04 -0.08 0 z M133.14000000000001 15.280000000000001 c0.08 -0.08 0.04 -0.2 0.08 -0.32 c0.04 -0.04 0 -0.04 -0.04 -0.04 c-0.12 0 -0.16 0.08 -0.16 0.16 s0.08 0.12 0.12 0.2 z M141.38 22.16 c0.04 0 0.04 0 0.04 -0.04 c0.04 -0.04 -0.12 -0.04 0 -0.08 c0.04 -0.04 0.08 0.04 0.08 0.04 c0.04 0.04 0.08 0.08 0.08 0.04 c0.04 -0.04 0.04 -0.04 0 -0.08 c-0.04 -0.08 -0.08 -0.08 -0.16 -0.08 c-0.04 0 -0.08 0 -0.12 0.04 s-0.04 0.08 0 0.12 c0 0.04 0.04 0.04 0.08 0.04 z M133.82000000000002 14.399999999999999 c0.04 -0.04 0.08 -0.12 0 -0.16 c0 -0.04 -0.08 -0.04 -0.08 -0.08 c0.04 -0.04 0.08 0 0.12 0 c0.08 0.04 0.16 0.04 0.16 -0.04 c0 -0.04 -0.08 0 -0.12 -0.04 l-0.08 0 c-0.08 0 -0.16 0 -0.2 0.08 c0 0.08 0.04 0.12 0.12 0.16 c0.04 0.04 0.04 0.12 0.08 0.08 z M134.66000000000003 14.760000000000002 c0.04 0.04 0.12 -0.04 0.16 -0.08 c0.04 0 0.04 -0.08 0.12 -0.04 c0 0 0.08 0.04 0.08 -0.04 c0 -0.04 -0.04 -0.04 -0.08 -0.04 s-0.12 0 -0.2 -0.04 c-0.04 0 -0.08 0.08 -0.12 0.12 c0 0.04 0 0.12 0.04 0.12 z M139.34 17.96 c0.04 0 0.08 -0.04 0.04 -0.08 c0 -0.04 0 -0.08 -0.04 -0.08 c-0.08 0.08 -0.16 0.08 -0.24 0 c-0.04 0 -0.08 0.04 -0.04 0.04 c0.08 0.08 0.16 0.12 0.28 0.12 z M138.46 17.12 c0.04 0.04 0.04 0 0 0 c-0.04 -0.08 0.04 -0.24 -0.12 -0.24 c-0.08 0 0 0.08 -0.04 0.08 c0 0.16 0.08 0.16 0.16 0.16 z M154.595 40.44 c-0.08 0 -0.2 0.08 -0.24 -0.08 c-0.04 -0.12 -0.08 0.04 -0.16 0 c-0.12 0 -0.24 0.04 -0.36 0.08 c-0.16 0 -0.36 -0.04 -0.48 -0.12 c-0.2 -0.16 -0.4 -0.2 -0.6 -0.36 c-0.12 -0.12 -0.16 -0.04 -0.16 0.12 c0 0.04 0.08 0.12 -0.04 0.16 c-0.08 0 -0.08 -0.08 -0.12 -0.16 c-0.08 -0.2 -0.04 -0.44 -0.16 -0.64 l0 -0.04 c0.08 -0.08 0.04 -0.24 0.04 -0.32 c0.04 -0.16 0 -0.28 0 -0.44 c0.04 -0.24 0.04 -0.52 0.04 -0.76 c0.04 -0.32 -0.08 -0.6 -0.04 -0.92 c0.04 -0.16 -0.04 -0.4 -0.04 -0.6 c0 -0.52 0.08 -1.08 0.04 -1.64 c-0.04 -0.4 -0.12 -0.8 -0.08 -1.2 c0.04 -0.44 0.04 -0.88 0.08 -1.28 c0 -0.24 -0.04 -0.44 -0.08 -0.64 c0 -0.12 0.04 -0.24 0.08 -0.4 c0.08 -0.16 0 -0.36 0 -0.56 l0 -1.28 c0 -0.24 -0.08 -0.48 -0.08 -0.72 c0.04 -0.24 0.04 -0.48 0.04 -0.76 c0.04 -0.28 0 -0.6 -0.04 -0.88 c0 -0.08 -0.04 -0.12 0 -0.2 c0.04 -0.04 0.04 -0.08 0.04 -0.12 c-0.12 -0.28 -0.08 -0.52 -0.04 -0.8 c0.04 -0.08 -0.04 -0.16 -0.04 -0.24 c-0.08 -0.36 0 -0.72 -0.04 -1.08 c-0.04 -0.16 -0.04 -0.36 -0.04 -0.52 c-0.04 -0.2 0 -0.44 -0.04 -0.6 c-0.04 -0.28 0.04 -0.6 0 -0.88 c-0.04 -0.08 0 -0.2 0 -0.28 c0.04 -0.36 0.04 -0.72 0.04 -1.08 c0 -0.24 -0.04 -0.44 -0.04 -0.68 c-0.04 -0.32 -0.08 -0.64 -0.08 -1 c0 -0.28 0.08 -0.64 0 -0.88 s0 -0.48 -0.12 -0.72 l0 -0.12 c0.12 -0.04 0.12 -0.08 0.04 -0.16 c-0.08 -0.04 0.04 -0.12 0.08 -0.12 s0.08 -0.04 0.12 -0.04 c-0.04 -0.04 -0.08 -0.04 -0.08 -0.04 c-0.2 -0.04 -0.28 -0.12 -0.2 -0.32 c0.08 -0.16 0.04 -0.32 0 -0.44 c-0.08 -0.2 -0.12 -0.32 -0.08 -0.52 s-0.04 -0.44 0 -0.64 c0.08 -0.32 0 -0.64 0.04 -0.96 c0 -0.08 0.08 -0.2 0.04 -0.32 c-0.04 -0.04 0 -0.04 0.08 -0.04 c0 0 0.08 0 0.08 -0.04 s-0.04 -0.12 -0.08 -0.12 c-0.12 0.04 -0.08 -0.04 -0.08 -0.08 c0 -0.16 0 -0.32 0.12 -0.48 c0.04 -0.08 0.12 -0.2 -0.04 -0.28 c-0.04 0 0.04 -0.04 0.04 -0.08 c0.08 -0.08 0.2 -0.2 0.08 -0.36 c-0.04 -0.04 0 -0.12 0.04 -0.2 c0.16 -0.16 0 -0.4 0.04 -0.56 c0 -0.08 0.04 -0.12 0.08 -0.2 s0.16 -0.12 0.16 -0.24 c0 -0.04 0.04 -0.08 0.12 -0.08 c0.04 0.04 0 0.08 0 0.12 c-0.04 0.16 0 0.36 0.04 0.52 c0.04 0.12 -0.04 0.24 -0.08 0.36 c-0.04 0.08 -0.12 0.04 -0.16 0.04 s-0.08 0 -0.08 0.04 s0.04 0.04 0.04 0.04 c0.24 0 0.4 0.08 0.52 0.28 s0.56 0.28 0.76 0.16 c0.08 -0.04 0.12 -0.08 0.16 -0.12 c0.12 -0.04 0.2 -0.04 0.24 0.08 c0.16 0.24 0.4 0.36 0.72 0.32 c0.24 -0.04 0.44 -0.08 0.68 0.04 c0.08 0 0.2 -0.04 0.28 0 c0 0 0.08 0 0.04 0 c-0.12 0.08 -0.04 0.08 0.04 0.12 c0.04 0.04 0.12 0.04 0.12 -0.04 s0.08 -0.12 0.12 -0.08 c0.08 0.16 0.16 0.08 0.24 0.08 c0.2 0 0.4 0 0.56 0.2 c0 0.04 0.04 0.04 0.08 0 c0.08 -0.16 0.16 -0.08 0.24 0 c0.04 0.04 0.04 0.16 0.16 0 c0 -0.04 0.16 -0.04 0.24 0 c0.16 0.04 0.32 0.08 0.48 0.16 c0.12 0.04 0.2 -0.04 0.32 0 c0.16 0.08 0.12 0.12 0.04 0.2 c0 0 -0.04 0.04 -0.08 0.04 c-0.12 0.08 -0.12 0.12 0 0.24 c0.36 0.36 0.68 0.76 0.88 1.24 l0.04 0.04 c-0.08 0.24 0.12 0.4 0.2 0.6 c0.04 0.04 0.2 0.2 -0.08 0.16 c-0.08 0 -0.04 0.12 0 0.16 c0.24 0.32 0.48 0.68 0.68 1.08 c0.08 0.08 0.08 0.2 0.16 0.32 c0.04 0.08 0.08 0.12 0.12 0.16 c0.24 0.2 0.44 0.4 0.64 0.68 c0.16 0.28 0.36 0.56 0.52 0.8 c0.32 0.52 0.68 1 1.04 1.44 c0.36 0.4 0.6 0.84 0.88 1.28 c0.28 0.4 0.52 0.8 0.76 1.2 c0.2 0.36 0.44 0.68 0.68 1 c0 0.04 0.04 0.04 0.04 0.08 c0.08 0.2 0.24 0.4 0.36 0.56 c0.36 0.52 0.64 1.08 0.96 1.6 l0.48 0.72 c0.28 0.32 0.48 0.68 0.68 1.04 l0.48 0.72 c0.16 0.32 0.36 0.64 0.56 0.92 c0.04 0.04 0.04 0.12 0.12 0.12 s0.04 -0.08 0.04 -0.16 c0.08 -0.16 0.08 -0.36 0.08 -0.56 c0 -0.6 -0.08 -1.2 -0.08 -1.84 c0 -0.52 -0.04 -1.04 0.04 -1.6 c0.04 -0.36 -0.08 -0.76 -0.04 -1.12 c0.04 -0.32 0 -0.68 0.04 -1 c0.08 -0.44 0.04 -0.88 -0.04 -1.28 c-0.04 -0.32 0 -0.6 0 -0.88 c-0.04 -0.48 -0.04 -1 0.12 -1.48 c0.08 -0.12 0 -0.32 0 -0.48 s0 -0.28 0.12 -0.4 c0.08 -0.12 0.12 -0.24 0.04 -0.36 c-0.04 -0.04 -0.16 -0.24 0.08 -0.2 c0.08 0 0.08 -0.04 0.04 -0.08 c-0.04 -0.12 -0.04 -0.2 0.04 -0.24 c0.04 -0.04 0.04 -0.08 0.04 -0.12 l0 -0.12 c0.04 -0.12 0.12 -0.48 0.04 -0.56 c-0.04 -0.12 0 -0.16 0.04 -0.2 c0 -0.04 0.04 -0.08 0.04 -0.12 c-0.08 -0.28 0.04 -0.52 0.04 -0.8 s0 -0.56 -0.04 -0.84 c0 -0.32 0 -0.64 0.04 -0.96 c0 -0.08 0.04 -0.16 0.08 -0.2 c0.16 -0.16 0.12 -0.32 -0.08 -0.4 c-0.12 -0.04 -0.16 -0.08 -0.12 -0.2 c0.04 -0.2 0 -0.48 0.24 -0.64 c0.04 -0.04 0.04 -0.08 0.12 -0.08 c0.32 0.04 0.6 -0.16 0.92 -0.08 c0.12 0.04 0.28 0.04 0.28 -0.16 s0.16 -0.24 0.32 -0.16 c0.12 0.08 0.28 0.12 0.44 0.12 c0.48 0 0.96 -0.04 1.4 0.16 c0.08 0.04 0.12 -0.04 0.16 -0.08 s0.08 -0.08 0.16 0 c0.04 0.04 0.08 0.08 0.08 -0.04 c0 -0.04 0.12 -0.04 0.12 0 c0.04 0.16 0.2 0.16 0.28 0.16 c0.12 0.04 0.16 0.08 0.24 0.16 c0.08 0.12 -0.04 0.12 -0.08 0.2 c0.12 0 0.16 0.08 0.04 0.16 c-0.08 0.08 -0.2 0.16 -0.28 0.2 c-0.2 0.08 -0.28 0.2 -0.28 0.4 c-0.04 0.68 -0.04 1.36 0 2.04 c0.04 0.16 -0.04 0.32 -0.04 0.48 c0 0.52 0.04 1 0.08 1.48 c0 0.04 0.04 0.08 0 0.16 c-0.08 0.08 -0.08 0.08 0 0.2 c0.04 0.08 -0.04 0.16 -0.08 0.24 c0.12 0.04 0.16 0.12 0.08 0.24 l0 0.04 c-0.24 0.12 -0.08 0.32 -0.04 0.44 c0.12 0.16 0.04 0.16 -0.08 0.16 c-0.08 0.04 -0.08 0.04 -0.04 0.12 c0.04 0.04 0.12 0.16 0 0.24 c-0.04 0 0.04 0.12 0.12 0.16 c0.12 0.04 0.08 0.16 0.16 0.28 c0 0 0 0.08 -0.04 0.08 c-0.2 0.08 -0.12 0.16 -0.04 0.28 c0.04 0.04 0.04 0.12 0 0.16 s-0.04 0.08 -0.08 0.08 s-0.04 -0.08 -0.04 -0.08 c0 -0.08 -0.04 -0.12 -0.04 -0.16 c-0.04 -0.04 -0.04 -0.12 -0.08 -0.08 c-0.08 0.04 -0.04 0.08 0 0.12 l0 0.04 c-0.16 0.24 0.04 0.2 0.16 0.24 s0.16 0.16 0.16 0.28 l0 0.96 c0 0.16 -0.12 0.32 -0.08 0.48 c0.04 0.36 0.08 0.72 0.08 1.04 c-0.04 0.72 0.08 1.4 0.04 2.08 c-0.04 0.6 -0.04 1.24 0 1.84 c0.08 0.84 0.08 1.72 0.16 2.6 c0.08 0.48 -0.04 1 -0.04 1.48 c0 0.44 -0.04 0.88 -0.08 1.32 l0 0.2 c-0.16 0.52 -0.12 1.04 -0.12 1.56 l0 0.08 c-0.08 0.84 0.08 1.68 0.04 2.52 c-0.04 0.48 0 1 -0.16 1.48 c-0.04 0.12 -0.08 0.2 -0.2 0.24 c-0.12 0.08 -0.24 0.16 -0.4 0.24 c-0.12 0.04 -0.2 0.16 -0.36 0 c-0.04 -0.08 -0.24 0 -0.36 0.04 c-0.12 0 -0.24 0.08 -0.32 -0.12 c-0.04 -0.04 -0.08 0 -0.08 0.04 c0 0.08 -0.08 0.12 -0.12 0.08 c-0.2 -0.12 -0.36 0.08 -0.52 0.08 c-0.36 0 -0.68 0.08 -1 0.08 c-0.44 -0.04 -0.88 -0.08 -1.28 -0.28 c-0.16 -0.08 -0.32 -0.08 -0.52 -0.16 c-0.08 -0.04 -0.16 -0.04 -0.12 -0.16 c0 -0.08 -0.12 -0.08 -0.16 -0.04 c-0.08 0.04 -0.16 0.04 -0.24 0 l0 -0.08 c0.08 -0.04 0.16 -0.08 0.28 -0.08 c0.04 0.04 0.08 0.04 0.12 0.04 c0.08 0.08 0.12 0.04 0.16 -0.04 c0.08 -0.12 0.04 -0.16 -0.04 -0.2 c-0.04 -0.04 -0.08 -0.04 -0.12 -0.08 c-0.04 0 -0.12 0 -0.12 -0.12 c0.04 -0.08 0.08 -0.16 0.2 -0.16 c0.24 -0.04 0.24 -0.08 0.12 -0.28 c-0.32 -0.6 -0.68 -1.2 -1.16 -1.68 c-0.32 -0.32 -0.48 -0.72 -0.64 -1.08 c-0.08 -0.2 -0.12 -0.44 -0.32 -0.6 c0 0 -0.04 -0.08 -0.04 -0.12 c-0.12 -0.4 -0.36 -0.76 -0.6 -1.08 s-0.52 -0.6 -0.72 -0.96 c-0.2 -0.4 -0.52 -0.76 -0.68 -1.2 c-0.04 -0.12 -0.12 -0.2 -0.2 -0.32 c-0.32 -0.56 -0.76 -1.08 -1.24 -1.56 c-0.2 -0.2 -0.36 -0.44 -0.52 -0.68 c-0.24 -0.44 -0.48 -0.88 -0.76 -1.32 c-0.28 -0.52 -0.52 -1 -0.92 -1.44 c-0.44 -0.52 -0.88 -1.08 -1.28 -1.68 c-0.24 -0.32 -0.48 -0.68 -0.68 -1.04 c-0.08 -0.16 -0.04 -0.32 -0.12 -0.48 c0 -0.04 0 -0.08 -0.04 -0.12 c-0.08 -0.04 -0.04 -0.08 0 -0.12 c0.04 0 0.12 -0.04 0.08 -0.08 l-0.08 -0.08 c-0.08 -0.04 -0.04 0.04 -0.08 0.08 c-0.04 0.08 -0.04 0.04 -0.08 0 c-0.08 -0.08 -0.12 -0.2 -0.16 -0.28 c-0.08 -0.24 -0.28 -0.4 -0.36 -0.6 c-0.04 -0.04 -0.04 -0.08 -0.08 -0.08 c-0.08 0 -0.04 0.08 -0.08 0.12 c-0.12 0.28 -0.12 0.6 -0.2 0.92 c-0.08 0.36 0 0.68 0.08 1.04 s0.16 0.72 0.04 1.08 c0 0.08 0.08 0.12 0.08 0.2 c0 0.24 0.08 0.52 0 0.76 c-0.04 0.08 0.04 0.16 0.04 0.24 c-0.04 0.48 -0.08 0.96 -0.08 1.44 l0 1.04 c-0.04 0.4 -0.08 0.76 -0.08 1.16 s0.04 0.76 0.08 1.16 c0 0.76 0 1.56 -0.04 2.32 c-0.04 0.56 0 1.12 -0.04 1.64 c0 0.4 0.04 0.8 0 1.2 c-0.04 0.84 -0.12 1.68 -0.04 2.56 c0 0.04 0.04 0.08 0 0.12 c-0.12 0.04 -0.08 0.12 -0.08 0.2 c0.04 0.08 0.16 0.08 0.2 0.04 c0.2 -0.08 0.2 0 0.12 0.16 s-0.12 0.32 -0.28 0.44 c-0.08 0.04 -0.12 0.08 -0.16 0.16 c-0.2 0.36 -0.6 0.44 -0.96 0.52 c-0.28 0.04 -0.56 0.12 -0.88 0.12 c-0.16 0 -0.32 0.08 -0.48 0.08 z M154.035 26.4 c0.04 0 0.08 -0.12 0.12 -0.16 c0 -0.04 -0.04 -0.08 -0.08 -0.08 c-0.08 0 -0.12 0.04 -0.12 0.12 c0 0.04 0 0.16 0.08 0.12 z M154.835 25.8 c0.08 -0.04 0.12 -0.08 0.04 -0.16 c-0.04 -0.04 -0.16 -0.04 -0.08 -0.12 c0 -0.08 -0.2 -0.2 -0.28 -0.2 c-0.04 0.04 -0.12 0.04 -0.12 0.08 c-0.04 0.08 0.08 0.04 0.12 0.08 c0 0 0.16 -0.04 0 0.08 c-0.04 0.04 0.08 0.12 0.12 0.16 c0.08 0.08 0.12 0.12 0.2 0.08 z M154.475 25.240000000000002 c0 0.08 0.12 0.04 0.12 -0.04 c0.04 -0.04 0.04 -0.08 0.08 -0.08 c0.16 0.04 0.12 -0.04 0.08 -0.12 c0 -0.04 0 -0.08 -0.04 -0.12 c0.04 -0.04 0.08 -0.12 0 -0.12 c-0.08 -0.04 -0.08 0.08 -0.08 0.12 c0 0.12 -0.08 0.2 -0.08 0.32 c-0.04 0.04 -0.16 -0.04 -0.08 0.04 z M154.715 14.8 c0.04 0 0.04 -0.04 0.04 -0.12 c-0.08 -0.08 -0.04 -0.28 -0.24 -0.32 c-0.12 0 -0.12 0.04 -0.16 0.08 c-0.04 0.08 0.08 0.08 0.08 0.16 c0.12 -0.04 0.16 0.04 0.2 0.16 c0.04 0.04 0.04 0.04 0.08 0.04 z M153.835 12.8 c-0.08 -0.08 -0.12 -0.16 -0.16 -0.2 c0 -0.08 0 -0.12 0.04 -0.16 c0 -0.04 0.04 0 0.04 -0.04 c0 0.16 0.12 0.24 0.12 0.36 z M152.39499999999998 11.2 c-0.16 -0.04 -0.12 -0.16 -0.16 -0.24 c0 -0.04 0 -0.12 0.08 -0.08 c0.08 0 0.16 0.08 0.16 0.2 c0.04 0.04 0 0.12 -0.08 0.12 z"></path></g>
			</g>
		</svg>
	