<?xml version="1.0" encoding="utf-8"?>
<!-- Generator: Adobe Illustrator 25.2.1, SVG Export Plug-In . SVG Version: 6.00 Build 0)  -->
<svg version="1.1" id="Ebene_1" xmlns="http://www.w3.org/2000/svg" xmlns:xlink="http://www.w3.org/1999/xlink" x="0px" y="0px"
	 viewBox="0 0 4170.7 870.8" style="enable-background:new 0 0 4170.7 870.8;" xml:space="preserve">
<style type="text/css">
	.st0{fill:#01151D;}
	.st1{fill:#F18736;}
</style>
<g>
	<g>
		<path class="st0" d="M544.3,181.6c11.1-19.4,26.1-34.6,45.2-45.5c19.1-10.9,40.1-16.4,63.2-16.4c33.9,0,62.8,12,86.7,36.1
			c24,24.1,36,53.4,36,87.8c0,36.9-13.5,67.7-40.6,92.3c-23.7,21.4-51,32.2-81.8,32.2c-22.3,0-43.2-5.6-62.8-16.7
			c-19.6-11.2-34.9-26.3-45.9-45.4c-11-19.1-16.5-39.7-16.5-61.9C527.7,221.8,533.2,201,544.3,181.6 M420.9,812.6
			c159.7,0,455-511.6,374.3-651.5C715.8,23.4,125.6,24.3,45.7,161.8C-34.8,300.6,260.6,812.6,420.9,812.6"/>
		<path class="st0" d="M650.9,312.4c18.4,0,33.7-6.4,45.9-19.2c12.2-12.8,18.3-29.1,18.3-49.1c0-20.5-6-37.1-18.1-49.9
			c-12.1-12.7-27.4-19-45.9-19c-18.5,0-33.9,6.4-46.2,19.3c-12.3,12.8-18.4,29.4-18.4,49.6c0,20.2,6.1,36.6,18.1,49.3
			C616.6,306.1,632,312.4,650.9,312.4"/>
	</g>
	<g>
		<path class="st0" d="M4138.6,326.1l-65.9,142.3l-41,89.7l-86.3,189H3868l65.9-143.7l-114.5-278.7h77.2l78.3,189.1l70.7-154
			C4062,325,4103.5,309.9,4138.6,326.1z"/>
		<path class="st0" d="M3717.4,555.5l-2,1c-13.7,6.5-29.5,9.7-47.4,9.7c-27.4,0-49.4-8.1-66.2-24.3c-16.8-16.2-25.2-37.1-25.2-62.7
			c0-26.4,8.7-48,26.2-64.8c17.5-16.9,40.3-25.3,68.6-25.3c15.5,0,29.1,2.4,40.6,7.2c11.5,4.8,23.2,13.4,35.1,25.7l62.9-34.6
			c-15.1-22-34.6-38.9-58.4-50.8c-23.8-11.9-50.6-17.8-80.5-17.8c-32.3,0-61.5,7-87.6,21c-26.1,14-46.5,33.3-61,57.9
			c-14.6,24.6-21.9,51.4-21.9,80.6c0,42.1,15,78.8,45,110.2c30,31.4,71.5,47.1,124.4,47.1c58.9,0,104.5-21,136.8-63l-0.2,0l0.3-0.2
			C3783.6,546.3,3746.7,540.3,3717.4,555.5"/>
		<path class="st0" d="M2920.7,401.3c15.9-11.8,34.4-17.7,55.5-17.7c19.4,0,36.5,5.3,51.2,15.8c14.7,10.5,24.5,24.2,29.5,41h-163.9
			C2901.4,421.7,2910.7,408.7,2920.7,401.3 M3112.4,570.2l0.4-0.3c-22-24.6-57.6-29.5-84.9-13.5c-0.2,0.1-0.4,0.1-0.6,0.2
			c-15.3,8.8-32.4,13.3-51.3,13.3c-23.6,0-43-6.3-58.3-19c-15.2-12.6-24.6-29.7-28.1-51.1h242.8l0.3-14.4
			c0-49.8-14.8-89.9-44.6-120.3c-29.7-30.3-68.3-45.5-115.7-45.5c-44.7,0-81.8,15.2-111.4,45.5c-29.6,30.3-44.4,68.5-44.4,114.5
			c0,44.8,14.8,82.2,44.6,112s68.2,44.7,115.5,44.7c30.4,0,56.8-5.4,78.9-16.2C3077.6,609.3,3096.6,592.7,3112.4,570.2"/>
		<path class="st0" d="M3353.3,318.8c-14.5,0-28.8,2.8-42.7,8.5c-13.9,5.6-29.5,15.7-46.6,30.2v-32.7h-75.6v305.5h75.6V506.9
			c0-31.3,1.1-51.7,3.3-61.1c4.2-18.1,11.8-32.2,22.8-42.5s24.1-15.3,39.4-15.3c11.8,0,21.7,3.1,29.7,9.3c8,6.2,13.7,15.2,16.9,27
			c3.2,11.8,4.8,35.7,4.8,71.6v134.4h74.7V428.7c0-34.7-8.7-60.9-26.3-78.6C3408.5,329.2,3383.1,318.8,3353.3,318.8"/>
		<path class="st0" d="M2316.2,541.6c-15.6,16.5-35.3,24.8-59,24.8c-23,0-42.4-8.4-58.1-25.2c-15.7-16.8-23.6-38.2-23.6-64.2
			c0-25.8,7.7-47,23.2-63.5c15.5-16.5,34.9-24.8,58.2-24.8c23.9,0,43.7,8.1,59.3,24.4c15.6,16.3,23.5,37.5,23.5,63.7
			C2339.6,503.5,2331.8,525.1,2316.2,541.6 M2411.7,394c-0.2-41.5-34-75.2-75.8-75.2l-0.1,40.7c-13.4-13.5-27.9-23.6-43.6-30.3
			c-15.9-6.8-32.8-10.3-50.9-10.3c-39.3,0-72.6,14.9-100.1,44.6c-27.5,29.7-41.2,67.8-41.2,114.3c0,44.8,14.2,82.4,42.6,112.6
			c28.4,30.2,62,45.2,100.9,45.2c17.3,0,33.4-3.1,48.2-9.2c14.8-6.2,29.6-16.3,44.4-30.3v31.8h75.6V405.5l-0.1-0.1V394z"/>
		<path class="st0" d="M2682.4,541.7c-15.2,15.9-34.6,23.9-58,23.9c-24,0-43.9-8.2-59.8-24.5c-15.9-16.4-23.8-37.3-23.8-62.8
			c0-24.6,7.8-45,23.3-61.3c15.5-16.2,35.2-24.3,59-24.3c24.2,0,43.9,8,59.3,23.9c15.3,16,23,36.7,23,62.2
			C2705.2,504.8,2697.6,525.7,2682.4,541.7 M2776.6,396.6c-0.2-42-33.8-76-75.3-76.1l0,42c-15.5-14.8-30.9-25.4-46.3-31.8
			c-15.4-6.5-31.8-9.7-49.1-9.7c-37.1,0-69,13.4-95.8,40c-29.5,29.5-44.3,68.5-44.3,117.1c0,45.4,13.9,82.9,41.8,112.6
			c27.9,29.7,62,44.5,102.4,44.5c18.5,0,35-2.9,49.6-8.9c14.6-5.9,28.5-15.6,41.8-29.1c0,24.8-2.5,42.2-7.6,52.4
			c-5.1,10.2-13.8,18.4-26.2,24.8c-12.4,6.3-28.7,9.5-49,9.5c-15.9,0-29.6-2.2-41.3-6.6c-9-3.4-16.7-8.1-23.2-14.1
			c-23.4-25.6-62.4-28.1-88.5-5.6l0.1,0.2l-0.3,0c6.6,20.8,16.9,38.5,30.7,53.1c13.8,14.6,30.8,25.6,50.9,33.1
			c20.1,7.5,44.9,11.3,74.4,11.3c55.4,0,96.8-16.5,124.3-49.5c20.5-24.4,30.7-62.5,30.7-114.3V413.6V396.6z"/>
	</g>
	<g>
		<path class="st0" d="M1707.6,342.9l-0.2-126.4l-0.1,0.2l0-0.1c-42.8,0-77.5,34.6-77.6,77.1l0.2,117.7h0l0,65
			c0,27.3-1.9,45.8-5.7,55.5c-3.8,9.7-10.6,17.7-20.4,23.9c-9.9,6.3-21.7,9.4-35.3,9.4c-12.9,0-24-2.8-33.1-8.4
			c-9.1-5.6-15.7-13.1-19.7-22.5c-4-9.4-6-25.5-6-48.1l-0.1-263.3l-77.8,0l0.1,242.8c0,48.6,4.7,78.1,14.2,98.5
			c9.4,20.4,25.1,37.4,46.9,50.9s47.6,20.3,77.1,20.3c22.5,0,42.2-3.6,59.3-10.7c16.9-7.1,31.9-18.1,44.9-32.8
			c13-14.8,21.8-30.1,26.4-46c4.6-15.9,6.9-39.4,6.9-80.3l0-106.4c0-0.1,0-0.2,0-0.3L1707.6,342.9z"/>
		<path class="st0" d="M1824.2,476.5l0-65h0l0.1-117.9c-0.2-42.6-34.8-77.1-77.6-77.1l0,0.1l-0.1-0.2l-0.1,126.5l0,16
			c0,0.1,0,0.2,0,0.3l0,106.4v164.6h77.9L1824.2,476.5z"/>
		<path class="st0" d="M1397.1,222.9h-79.7L1224.2,513l-88.1-289.8l-79.7-0.4l127.5,407.9l0.1,0.2c38,14,79.8-5.2,93.9-42.8
			L1397.1,222.9z"/>
	</g>
	<path class="st1" d="M1970.9,635.4c18.4,0,33.7-6.4,45.9-19.2c12.2-12.8,18.3-29.1,18.3-49.1c0-20.5-6-37.1-18.1-49.9
		c-12.1-12.7-27.4-19-45.9-19c-18.5,0-33.9,6.4-46.2,19.3c-12.3,12.8-18.4,29.4-18.4,49.6c0,20.2,6.1,36.6,18.1,49.3
		C1936.6,629.1,1952.1,635.4,1970.9,635.4"/>
</g>
</svg>
