<svg id="Layer_1" data-name="Layer 1" xmlns="http://www.w3.org/2000/svg" viewBox="0 0 1440 810"><defs><style>.cls-1{fill:#3b3b3c;}.cls-2{fill:#c84b26;}</style></defs><path class="cls-1" d="M423.67,302.6l1,14.51a85.8,85.8,0,0,1,30.6,3.49L451.66,333a76.21,76.21,0,0,1,52.73,91.27l15.81,3.87a93,93,0,0,0,2.64-22,90.31,90.31,0,0,0-.84-12.24l11-1.21a103.9,103.9,0,0,0-5.64-24.12,105.77,105.77,0,0,0-5.3-12.12l12-5.91a115.8,115.8,0,0,0-15.17-23.22,114.43,114.43,0,0,0-63.08-38.43,116.37,116.37,0,0,0-72.08,7l6.59,14.88A99,99,0,0,1,423.67,302.6Z"/><path class="cls-1" d="M430.43,345.06a61.07,61.07,0,1,0,61.07,61.06A61.14,61.14,0,0,0,430.43,345.06Zm0,16.27A44.87,44.87,0,0,1,472,389.49h-25.1l-8.05,15.65L423.3,369,404,406.48H385.65c0-.12,0-.24,0-.36A44.84,44.84,0,0,1,430.43,361.33Zm0,89.59a44.86,44.86,0,0,1-41.58-28.17h25.09L422,407.11l15.56,36.11,19.29-37.45h18.37c0,.12,0,.23,0,.35A44.85,44.85,0,0,1,430.43,450.92Z"/><path class="cls-1" d="M344.16,463.75l12.08-8.11A85.91,85.91,0,0,1,344,427.4l12.55-3.1A76.2,76.2,0,0,1,409.18,333l-4.56-15.63a92.57,92.57,0,0,0-20.39,8.73A90.58,90.58,0,0,0,374,332.94L367.47,324a103.83,103.83,0,0,0-18.07,16.94,105.2,105.2,0,0,0-7.84,10.65l-11.12-7.43a116.39,116.39,0,0,0-12.52,24.74,114.5,114.5,0,0,0-1.74,73.85,116.31,116.31,0,0,0,42.11,58.91l9.59-13.14A99.17,99.17,0,0,1,344.16,463.75Z"/><path class="cls-1" d="M533.06,419.1A99.15,99.15,0,0,1,523.47,452l-13.06-6.41a85.81,85.81,0,0,1-18.31,24.76l-9-9.32a76.22,76.22,0,0,1-105.41,0l-11.25,11.75a92.25,92.25,0,0,0,17.75,13.3,90.6,90.6,0,0,0,11,5.41l-4.47,10.16a103.79,103.79,0,0,0,23.71,7.18,105,105,0,0,0,13.14,1.46l-.88,13.35q3.74.24,7.49.24a116.39,116.39,0,0,0,20.2-1.77,114.45,114.45,0,0,0,64.83-35.42,116.33,116.33,0,0,0,30-65.92Z"/><polygon class="cls-2" points="638.38 416.05 605.75 354.97 569.44 354.97 620.71 448.56 603.94 478.75 638.3 478.75 705.11 354.97 670.02 354.97 638.38 416.05"/><path class="cls-2" d="M769.89,351.78c-36.92,0-64.15,26.74-64.15,62.55s27.23,62.56,64.15,62.56,64.4-26.74,64.4-62.56S806.93,351.78,769.89,351.78Zm0,95.31c-18,0-31.52-13.5-31.52-32.76s13.49-32.75,31.52-32.75,31.65,13.5,31.65,32.75S788,447.09,769.89,447.09Z"/><path class="cls-2" d="M917.22,351.78a67.92,67.92,0,0,0-31.53,7.45V321.82H853.06v92.51c0,35.82,27.23,62.56,64.16,62.56s64.39-26.74,64.39-62.56S954.26,351.78,917.22,351.78Zm0,95.31c-18,0-31.53-13.5-31.53-32.76s13.49-32.75,31.53-32.75,31.64,13.5,31.64,32.75S935.37,447.09,917.22,447.09Z"/><path class="cls-2" d="M1111.66,414.21c0-37-23.55-62.43-57.77-62.43-35.57,0-60.11,25.64-60.11,62.92s25.4,62.19,61.7,62.19h30.18V449.66h-28.34c-15.08,0-27.35-7.48-30.54-24.65h84.27A91.52,91.52,0,0,0,1111.66,414.21Zm-84.76-11c2.82-14.84,11.53-23.79,26.74-23.79,13.86,0,22.94,8.46,25.88,23.79Z"/></svg>